<?xml version="1.0" standalone="no"?>
<!DOCTYPE svg PUBLIC "-//W3C//DTD SVG 1.1//EN" "http://www.w3.org/Graphics/SVG/1.1/DTD/svg11.dtd" >
<svg xmlns="http://www.w3.org/2000/svg">
<metadata></metadata>
<defs>
<font id="sanchez_condensed_boldbold" horiz-adv-x="1423" >
<font-face units-per-em="2048" ascent="1536" descent="-512" />
<missing-glyph horiz-adv-x="446" />
<glyph unicode="&#xfb01;" horiz-adv-x="1341" d="M70 29v159q0 29 24 29h84v574h-82q-26 0 -26 28v160q0 29 26 29h82v90q0 192 88.5 290.5t259.5 98.5q31 0 59.5 -4t53.5 -13.5t43 -17t39 -22.5t29 -21t26 -22t19 -17q23 -23 8 -41l-94 -121q-18 -22 -39 -4q-50 45 -113 45q-106 0 -106 -153v-88h712q27 0 27 -29v-762 h70q26 0 26 -29v-159q0 -29 -26 -29h-424q-11 0 -19 8t-8 21v159q0 29 27 29h84v574h-469v-574h145q25 0 25 -29v-159q0 -13 -7 -21t-18 -8h-502q-24 0 -24 29zM885 1315q0 72 50 123t120 51q69 0 118.5 -51t49.5 -123t-49.5 -122t-118.5 -50q-71 0 -120.5 50t-49.5 122z " />
<glyph unicode="&#xfb02;" horiz-adv-x="1333" d="M70 29v159q0 29 24 29h84v574h-82q-26 0 -26 28v160q0 29 26 29h82v90q0 192 88.5 290.5t259.5 98.5q31 0 59.5 -4t53.5 -13.5t43 -17t39 -22.5t29 -21t26 -22t19 -17q23 -23 8 -41l-94 -121q-18 -22 -39 -4q-50 45 -113 45q-106 0 -106 -153v-88h227q27 0 27 -29v-160 q0 -28 -27 -28h-227v-574h145q25 0 25 -29v-159q0 -13 -7 -21t-18 -8h-502q-24 0 -24 29zM795 29v159q0 29 24 29h84v1036h-41q-26 0 -26 29v162q0 29 26 29h281q33 0 33 -41v-1215h67q27 0 27 -29v-159q0 -29 -27 -29h-424q-24 0 -24 29z" />
<glyph unicode="&#xfb03;" horiz-adv-x="2084" d="M70 29v159q0 29 24 29h84v574h-82q-26 0 -26 28v160q0 29 26 29h82v90q0 192 88.5 290.5t259.5 98.5q53 0 98.5 -10.5t80.5 -32t50.5 -33t39.5 -33.5q23 -20 8 -41l-94 -120q-19 -22 -39 -5q-41 37 -103 37q-116 0 -116 -153v-88h469v90q0 192 88.5 290.5t259.5 98.5 q53 0 98 -10.5t80.5 -32.5t50 -33t39.5 -33q23 -20 8 -41l-94 -120q-19 -23 -37 -5q-51 37 -104 37q-117 0 -117 -153v-88h713q26 0 26 -29v-762h70q27 0 27 -29v-159q0 -29 -27 -29h-424q-25 0 -25 29v159q0 29 25 29h84v574h-469v-574h145q25 0 25 -29v-159q0 -13 -7 -21 t-18 -8h-501q-11 0 -18 8t-7 21v159q0 29 25 29h84v574h-469v-574h145q25 0 25 -29v-159q0 -13 -7 -21t-18 -8h-502q-24 0 -24 29zM1622 1315q0 72 50 123t120 51q69 0 118.5 -51t49.5 -123t-49.5 -122t-118.5 -50q-71 0 -120.5 50t-49.5 122z" />
<glyph unicode="&#xfb04;" horiz-adv-x="2076" d="M70 29v159q0 29 24 29h84v574h-82q-26 0 -26 28v160q0 29 26 29h82v90q0 192 88.5 290.5t259.5 98.5q53 0 98.5 -10.5t80.5 -32t50.5 -33t39.5 -33.5q23 -20 8 -41l-94 -120q-19 -22 -39 -5q-41 37 -103 37q-116 0 -116 -153v-88h469v90q0 192 88.5 290.5t259.5 98.5 q53 0 98 -10.5t80.5 -32.5t50 -33t39.5 -33q23 -20 8 -41l-94 -120q-19 -23 -37 -5q-51 37 -104 37q-117 0 -117 -153v-88h227q27 0 27 -29v-160q0 -28 -27 -28h-227v-574h145q25 0 25 -29v-159q0 -13 -7 -21t-18 -8h-501q-11 0 -18 8t-7 21v159q0 29 25 29h84v574h-469 v-574h145q25 0 25 -29v-159q0 -13 -7 -21t-18 -8h-502q-24 0 -24 29zM1536 29v159q0 29 27 29h82v1036h-39q-11 0 -19 8t-8 21v162q0 29 27 29h280q29 0 29 -41v-1215h72q24 0 24 -29v-159q0 -29 -24 -29h-424q-27 0 -27 29z" />
<glyph horiz-adv-x="2048" />
<glyph horiz-adv-x="2048" />
<glyph unicode="&#xd;" horiz-adv-x="2048" />
<glyph unicode=" "  horiz-adv-x="446" />
<glyph unicode="&#x09;" horiz-adv-x="446" />
<glyph unicode="&#xa0;" horiz-adv-x="446" />
<glyph unicode="!" horiz-adv-x="567" d="M131 -41q0 66 45.5 112t108.5 46q65 0 110 -46t45 -112t-45 -112t-110 -46q-63 0 -108.5 46t-45.5 112zM145 1528q0 13 8 20.5t19 7.5h221q27 0 27 -28l-25 -1196q0 -29 -26 -29h-172q-27 0 -27 29z" />
<glyph unicode="&#x22;" horiz-adv-x="712" d="M92 1503q0 14 9 23.5t22 9.5h153q12 0 22.5 -10t10.5 -23l-20 -360q-3 -33 -31 -33h-119q-14 0 -23.5 9t-9.5 24zM403 1503q0 13 10.5 23t22.5 10h154q12 0 22.5 -10t10.5 -23l-19 -360q-1 -15 -10 -24t-21 -9h-122q-13 0 -22 9t-9 24z" />
<glyph unicode="#" horiz-adv-x="1136" d="M61 233v127q0 29 27 29h156l43 197h-109q-26 0 -26 28v127q0 29 26 29h162l43 188q6 29 33 29h172q26 0 20 -29l-43 -188h158l43 188q10 29 33 29h172q26 0 20 -29l-45 -188h101q24 0 24 -29v-127q0 -28 -24 -28h-152l-45 -197h106q27 0 27 -29v-127q0 -28 -27 -28h-155 l-45 -191q-9 -28 -35 -28h-172q-27 0 -21 28l47 191h-159l-45 -191q-6 -28 -31 -28h-174q-27 0 -21 28l45 191h-102q-11 0 -19 7.5t-8 20.5zM467 389h160l43 197h-158z" />
<glyph unicode="$" horiz-adv-x="1206" d="M78 92v420q0 13 7.5 21t18.5 8h230q24 0 24 -29v-27q0 -7 6.5 -29.5t25.5 -58.5t47 -68t78.5 -55.5t113.5 -23.5q86 0 131 44.5t45 117.5q0 47 -30 82.5t-79 57.5t-112 45.5t-128.5 44.5t-128.5 56.5t-112 79.5t-79 115t-30 162q0 179 104.5 296.5t283.5 129.5v141 q0 29 24 29h197q24 0 24 -29v-199q62 -15 109 -80l-6 56q-3 28 26 28h197q27 0 27 -28v-428q0 -29 -27 -29h-229q-11 0 -19 8t-8 21v35q0 32 -13 67.5t-38.5 69t-71 55t-102.5 21.5q-86 0 -130 -45.5t-44 -118.5q0 -46 25 -82t67 -60t97 -44t115 -39.5t120.5 -41.5 t115.5 -54.5t97 -74t67 -105t25 -142.5q0 -81 -23 -152.5t-68.5 -131t-122.5 -96.5t-177 -44v-127q0 -29 -27 -29h-195q-26 0 -26 29v174q-111 38 -170 145h-6l4 -88q1 -13 -6 -21t-19 -8h-199q-26 0 -26 29z" />
<glyph unicode="%" horiz-adv-x="1495" d="M55 1114q0 172 81 270.5t202 98.5q120 0 198 -98t78 -271q0 -180 -75 -279.5t-201 -99.5t-204.5 100t-78.5 279zM233 1110q0 -99 27.5 -153t77.5 -54q47 0 72.5 53t25.5 154q0 207 -98 207q-105 0 -105 -207zM424 -123l416 1651q9 28 32 28h148q24 0 18 -28l-415 -1651 q-6 -29 -33 -29h-148q-12 0 -17 8t-1 21zM881 365q0 172 79.5 270t200.5 98t199 -97.5t78 -270.5q0 -180 -75 -279.5t-202 -99.5q-125 0 -202.5 100t-77.5 279zM1057 360q0 -99 27 -152.5t77 -53.5q48 0 74.5 53t26.5 153q0 207 -101 207q-51 0 -77.5 -53.5t-26.5 -153.5z " />
<glyph unicode="&#x26;" horiz-adv-x="1241" d="M63 406q0 287 269 423q-101 142 -101 295q0 162 91.5 260.5t250.5 98.5q164 0 256.5 -92t92.5 -256q0 -219 -256 -387l143 -246q12 37 12 235q0 29 27 29h319q25 0 25 -29v-137q0 -29 -25 -29h-127q-15 -156 -79 -303l26 -45h131q27 0 27 -28v-166q0 -29 -27 -29h-209 q-44 3 -86 72l-16 26q-118 -112 -281 -112q-106 0 -194.5 34t-146.5 92t-90 134t-32 160zM334 422q0 -100 51.5 -157.5t134.5 -57.5q95 0 154 76l-215 350q-125 -77 -125 -211zM477 1114q0 -92 76 -194q46 27 72 49.5t44.5 61.5t18.5 91q0 61 -27 101.5t-73 40.5 q-52 0 -81.5 -41.5t-29.5 -108.5z" />
<glyph unicode="'" horiz-adv-x="397" d="M92 1503q0 14 9 23.5t22 9.5h153q12 0 22.5 -10t10.5 -23l-20 -360q-3 -33 -31 -33h-119q-14 0 -23.5 9t-9.5 24z" />
<glyph unicode="(" horiz-adv-x="780" d="M72 719q0 175 38.5 320t100.5 241t143.5 162.5t165 95.5t166.5 29q12 0 21.5 -10t9.5 -23v-188q0 -14 -9 -23.5t-22 -9.5q-49 0 -98 -23.5t-95 -73t-81 -118.5t-56.5 -169t-21.5 -216q0 -146 32 -264t84 -189t113 -109t123 -38q12 0 21.5 -10t9.5 -23v-191 q0 -13 -9.5 -22.5t-21.5 -9.5q-83 0 -167 30.5t-165 98.5t-143 166t-100.5 245t-38.5 322z" />
<glyph unicode=")" horiz-adv-x="780" d="M63 78q0 15 9.5 25t21.5 10q62 0 122.5 37.5t112 109t83.5 189.5t32 264q0 144 -32 261.5t-83.5 189t-112 109.5t-122.5 38q-14 0 -22.5 9.5t-8.5 22.5v191q0 13 9.5 23t21.5 10q83 0 167 -29t165.5 -95.5t143.5 -162.5t100.5 -241t38.5 -320t-38.5 -322t-101 -245 t-143.5 -166t-165 -98.5t-167 -30.5q-12 0 -21.5 9.5t-9.5 22.5v189z" />
<glyph unicode="*" horiz-adv-x="790" d="M76 1145v110q0 15 10.5 26t22.5 7l184 -47l-162 127q-11 8 -11 23t11 24l78 78q10 10 23 10.5t20 -10.5l104 -182l-49 217q-3 11 7.5 21t23.5 10h111q14 0 24.5 -9t7.5 -22l-43 -219l101 184q6 12 19.5 11.5t21.5 -11.5l79 -78q9 -9 9 -24t-9 -23l-157 -127l180 49 q12 3 21.5 -8t9.5 -25v-112q0 -14 -9.5 -24t-21.5 -9l-180 35l155 -113q10 -8 9.5 -22t-9.5 -25l-77 -78q-8 -12 -22.5 -12t-20.5 12l-101 178l45 -210q3 -13 -7.5 -23t-24.5 -10h-111q-13 0 -23.5 10t-7.5 23l39 215l-92 -183q-6 -12 -21 -12.5t-24 10.5l-76 80 q-11 9 -11.5 24t11.5 23l162 119l-186 -41q-12 -3 -22.5 8t-10.5 25z" />
<glyph unicode="+" horiz-adv-x="927" d="M68 473v191q0 13 9 22.5t21 9.5h234v299q0 29 26 29h220q26 0 26 -29v-299h225q12 0 21.5 -9.5t9.5 -22.5v-191q0 -13 -9.5 -23t-21.5 -10h-225v-284q0 -29 -26 -29h-220q-26 0 -26 29v284h-234q-12 0 -21 10t-9 23z" />
<glyph unicode="," horiz-adv-x="446" d="M94 111q0 54 35.5 91.5t87.5 37.5q62 0 99.5 -50.5t37.5 -138.5q0 -266 -178 -266q-14 0 -14 10v66q0 12 14 12q30 0 52 24t22 66l-4 29q-11 -8 -31 -8q-51 0 -86 36.5t-35 90.5z" />
<glyph unicode="-" horiz-adv-x="876" d="M111 444v191q0 14 8.5 23.5t21.5 9.5h596q12 0 20.5 -9.5t8.5 -23.5v-191q0 -13 -8.5 -21.5t-20.5 -8.5h-596q-13 0 -21.5 8t-8.5 22z" />
<glyph unicode="." horiz-adv-x="430" d="M94 113q0 53 35 90t86 37q52 0 87.5 -37t35.5 -90q0 -55 -35 -92t-88 -37q-51 0 -86 37t-35 92z" />
<glyph unicode="/" horiz-adv-x="794" d="M51 -123l418 1651q6 28 31 28h221q23 0 20 -28l-417 -1651q-10 -29 -33 -29h-221q-11 0 -16.5 8t-2.5 21z" />
<glyph unicode="0" horiz-adv-x="1275" d="M82 743q0 175 44 317t120.5 233.5t178 140.5t218.5 49t217 -49t174.5 -140.5t117 -233.5t42.5 -317q0 -359 -150 -558t-401 -199q-252 0 -406.5 200t-154.5 557zM381 737q0 -233 69.5 -360t192.5 -127t186.5 123t63.5 364q0 484 -252 484q-127 0 -193.5 -125.5 t-66.5 -358.5z" />
<glyph unicode="1" horiz-adv-x="960" d="M57 1149q-17 23 4 41l351 270q10 10 20 10h217q27 0 27 -28v-1204h244q24 0 24 -29v-180q0 -29 -24 -29h-795q-25 0 -25 29v180q0 29 25 29h272v919l-196 -168q-19 -19 -35 6z" />
<glyph unicode="2" horiz-adv-x="1187" d="M86 29v98q0 104 23.5 189.5t63.5 144.5t92 107t109.5 82t115 64t109.5 59t92 60.5t63.5 74.5t23.5 96q0 96 -54.5 156.5t-143.5 60.5q-95 0 -152 -68t-57 -172q0 -13 -7 -21t-18 -8h-231q-25 0 -25 29q0 140 55 252t168 181t267 69q125 0 223 -39t157 -104.5t89 -146 t30 -169.5q0 -83 -21 -152.5t-57 -119.5t-82.5 -91.5t-99.5 -74t-106.5 -61.5t-104 -58.5t-92 -61.5t-71 -74.5t-39.5 -92.5h421v135q0 28 27 28h209q27 0 27 -28v-344q0 -29 -27 -29h-950q-27 0 -27 29z" />
<glyph unicode="3" horiz-adv-x="1128" d="M57 236q-16 19 0 38l160 144q20 20 37 0q2 -2 20.5 -24.5t24.5 -29t25.5 -26.5t31.5 -28t34 -22.5t41.5 -20.5t46 -11.5t54.5 -5.5q95 0 152 55.5t57 147.5q0 87 -50 132.5t-146 45.5h-99q-24 0 -24 28v162q0 31 24 31h62q207 0 207 184q0 80 -46 133.5t-132 53.5 q-72 0 -119 -56.5t-47 -136.5q0 -29 -27 -29h-217q-12 0 -20.5 8t-8.5 21q0 214 113.5 333.5t337.5 119.5q98 0 178.5 -26t133 -68t88.5 -96.5t51.5 -108.5t15.5 -107q0 -71 -18.5 -130t-45.5 -93.5t-54 -59t-46 -33.5l-18 -9v-4q9 -2 23 -7t50 -29t64 -58t50.5 -100.5 t22.5 -150.5q0 -186 -136.5 -301.5t-360.5 -115.5q-61 0 -116.5 10t-96 23t-82 38t-64.5 41.5t-52.5 46.5t-38.5 41t-30 38q-7 8 -10 12z" />
<glyph unicode="4" horiz-adv-x="1107" d="M29 475v143q0 21 1 29t7.5 22t21.5 33l527 744q10 24 30 24h222q26 0 26 -28v-770h131q27 0 27 -29v-168q0 -29 -27 -29h-131v-208h135q25 0 25 -29v-180q0 -13 -7 -21t-18 -8h-669q-27 0 -27 29v180q0 29 27 29h256v208h-531q-26 0 -26 29zM289 651h297v424z" />
<glyph unicode="5" horiz-adv-x="1142" d="M45 223q-19 23 2 41l168 150q18 21 35 -2q25 -31 47 -53t57.5 -50t79.5 -43.5t92 -15.5q113 0 175.5 67t62.5 185q0 100 -66 164.5t-182 64.5q-71 0 -139.5 -15.5t-117.5 -33.5t-64 -20q-52 -4 -52 65v725q0 13 8 20t19 7h801q26 0 26 -27v-326q0 -28 -26 -28h-209 q-27 0 -27 28v107h-309v-301l18 6q19 5 40 10.5t56.5 10t71.5 4.5q226 0 339.5 -130.5t113.5 -349.5q0 -217 -140 -357t-380 -140q-99 0 -184 23.5t-146.5 65.5t-93 70.5t-67.5 67.5q-6 7 -9 10z" />
<glyph unicode="6" horiz-adv-x="1193" d="M84 735q0 179 43.5 322.5t119.5 235.5t177 141t219 49q218 0 330 -114t112 -300q0 -27 -24 -27h-219q-27 0 -27 27q0 58 -45 107t-127 49q-107 0 -169.5 -89t-80.5 -257q103 73 275 73q150 0 251 -61t146 -164t45 -244q0 -82 -20 -156t-61 -136.5t-99.5 -108t-140 -71 t-177.5 -25.5q-239 0 -383.5 197t-144.5 552zM385 653q18 -403 227 -403q90 0 143.5 68.5t53.5 177.5q0 98 -55.5 161.5t-159.5 63.5q-97 0 -209 -68z" />
<glyph unicode="7" horiz-adv-x="1036" d="M41 1073v369q0 28 27 28h921q25 0 25 -28v-107q-1 -106 -23.5 -193.5t-57.5 -152.5t-78 -129t-85 -139t-77 -164.5t-57 -224.5t-22 -301q0 -31 -26 -31h-238q-24 0 -24 29q0 174 18.5 314t48.5 232t66 165.5t74 129t70 107t55 116t28 140.5h-383v-160q0 -29 -27 -29h-208 q-27 0 -27 29z" />
<glyph unicode="8" horiz-adv-x="1177" d="M78 424q0 74 21.5 138t52.5 102t62.5 65.5t53.5 38.5l21 10v6q-3 1 -9 4t-23 14t-32 25.5t-34 40t-32.5 55t-22.5 73.5t-9 94q0 53 15 106t50 105.5t87 92.5t132 64.5t179 24.5q98 0 178 -24.5t131.5 -64.5t86.5 -92.5t50 -105.5t15 -106q0 -67 -17 -123.5t-41 -88.5 t-48 -55t-41 -31l-17 -8v-6q9 -3 23 -10.5t50.5 -36.5t64 -65.5t50.5 -101t23 -140.5q0 -92 -32 -170.5t-93 -139t-159 -94.5t-222 -34q-126 0 -225 34t-161.5 94.5t-95 139t-32.5 170.5zM373 455q0 -102 58.5 -163t160.5 -61q101 0 157 60.5t56 163.5q0 93 -47.5 150 t-149.5 57h-37q-198 0 -198 -207zM412 1040q0 -55 15.5 -94t43 -58.5t56 -27.5t61.5 -8q27 0 50.5 4.5t47.5 17.5t41 33t28 54.5t11 78.5q0 85 -45.5 140t-134.5 55q-87 0 -130.5 -55t-43.5 -140z" />
<glyph unicode="9" horiz-adv-x="1191" d="M84 985q0 103 32 192.5t93 158t156.5 108t214.5 39.5q239 0 384.5 -197.5t145.5 -552.5q0 -179 -43.5 -322.5t-120 -235.5t-178 -140.5t-219.5 -48.5q-111 0 -196.5 31t-139 87t-80.5 130.5t-27 164.5q0 27 27 27h219q27 0 27 -27q0 -58 44.5 -106.5t127.5 -48.5 q105 0 168 88.5t82 257.5q-110 -74 -275 -74q-224 0 -333 126.5t-109 342.5zM383 973q0 -97 56 -161t159 -64q105 0 209 67q-8 198 -64.5 301t-160.5 103q-90 0 -144.5 -69t-54.5 -177z" />
<glyph unicode=":" horiz-adv-x="464" d="M111 113q0 53 34.5 90t85.5 37t87 -37t36 -90q0 -55 -36 -92t-87 -37t-85.5 37t-34.5 92zM111 870q0 54 34.5 91.5t85.5 37.5t87 -37.5t36 -91.5t-36 -90.5t-87 -36.5t-85.5 36.5t-34.5 90.5z" />
<glyph unicode=";" horiz-adv-x="491" d="M117 111q0 54 35.5 91.5t87.5 37.5q63 0 100 -50t37 -139q0 -132 -44 -195t-134 -63q-13 0 -13 10v58q0 12 13 12q31 0 52 24t21 66l-4 29q-10 -8 -30 -8q-51 0 -86 36.5t-35 90.5zM117 870q0 54 36 91.5t87 37.5t86.5 -37.5t35.5 -91.5t-35.5 -90.5t-86.5 -36.5 t-87 36.5t-36 90.5z" />
<glyph unicode="&#x3c;" horiz-adv-x="864" d="M57 502v47q0 14 9 29t24 22l629 336q13 6 22 1.5t9 -17.5v-150q0 -15 -9 -30t-22 -21l-326 -195l326 -192q13 -6 22 -21t9 -30v-150q0 -13 -9 -17.5t-22 1.5l-629 336q-15 7 -24 22t-9 29z" />
<glyph unicode="=" horiz-adv-x="929" d="M117 195v188q0 15 8 24t22 9h635q14 0 22.5 -9t8.5 -24v-188q0 -14 -9 -23.5t-22 -9.5h-635q-13 0 -21.5 9.5t-8.5 23.5zM117 674v188q0 14 8.5 24.5t21.5 10.5h635q13 0 22 -10.5t9 -24.5v-188q0 -14 -9 -23.5t-22 -9.5h-635q-13 0 -21.5 9.5t-8.5 23.5z" />
<glyph unicode="&#x3e;" horiz-adv-x="864" d="M115 131v150q0 15 9 30t21 21l326 192l-326 195q-12 6 -21 21t-9 30v150q0 13 9 17.5t21 -1.5l631 -336q13 -7 22 -22t9 -29v-47q0 -14 -9 -29t-22 -22l-631 -336q-12 -6 -21 -1.5t-9 17.5z" />
<glyph unicode="?" horiz-adv-x="1040" d="M55 940q0 116 25 210t78 170.5t146 118.5t220 42q91 0 167 -25t128.5 -68.5t89 -102t53.5 -125t17 -138.5q0 -84 -21.5 -152t-56 -114t-76 -86t-83.5 -76.5t-76.5 -76.5t-56 -95.5t-21.5 -122.5q0 -29 -27 -29h-219q-27 0 -27 29q0 78 12.5 145t33.5 115t48 88.5t57 71 t60.5 58t57.5 53.5t48 52.5t33.5 60.5t12.5 73q0 95 -42 151t-118 56q-180 0 -180 -283q0 -29 -27 -29h-229q-27 0 -27 29zM295 -27q0 70 49.5 120t118.5 50q70 0 119 -49.5t49 -120.5q0 -72 -49 -122t-119 -50q-69 0 -118.5 50t-49.5 122z" />
<glyph unicode="@" horiz-adv-x="1429" d="M80 471q0 172 58 324t154.5 257.5t225.5 166.5t268 61q177 0 311 -79.5t201.5 -211t67.5 -293.5q0 -107 -27 -199t-72.5 -157t-105.5 -111t-126.5 -68t-135.5 -22q-50 0 -69.5 17.5t-18.5 60.5v29q-57 -113 -164 -113q-42 0 -82.5 19.5t-76.5 58.5t-58 109t-22 161 q0 191 103 309.5t245 118.5q35 0 62 -9t41 -21.5t20.5 -22.5t7.5 -16l2 26q3 23 24 23h101q24 0 20 -29l-57 -541h10q85 0 137 103.5t52 265.5q0 176 -102.5 281.5t-287.5 105.5q-149 0 -263 -87t-171 -223t-57 -294q0 -122 36.5 -223t97 -165.5t137.5 -100t161 -35.5 q236 0 340 78q19 13 31 -11l59 -129q11 -22 -10 -37l-7 -4q-7 -4 -15.5 -8.5t-23.5 -12t-32 -14.5t-40 -15.5t-47 -15.5t-54 -14t-60.5 -11.5t-67 -7.5t-73.5 -3q-106 0 -204 34t-178 98.5t-139.5 152.5t-92.5 202.5t-33 241.5zM588 485q0 -87 34.5 -128.5t82.5 -41.5 q36 0 77 44t47 96l21 198q0 11 -6 31t-28.5 43t-55.5 23q-72 0 -122 -71t-50 -194z" />
<glyph unicode="A" horiz-adv-x="1310" d="M2 29v180q0 29 27 29h116l308 995h-129q-27 0 -27 29v180q0 28 27 28h376q59 0 88.5 -25t53.5 -91l356 -1116h115q26 0 26 -29v-180q0 -29 -26 -29h-510q-11 0 -19 8t-8 21v180q0 29 27 29h115l-60 225h-375l-61 -225h117q26 0 26 -29v-180q0 -13 -7.5 -21t-18.5 -8h-510 q-27 0 -27 29zM535 666h272l-131 442h-12z" />
<glyph unicode="B" horiz-adv-x="1228" d="M78 29v180q0 29 26 29h119v995h-119q-11 0 -18.5 8t-7.5 21v180q0 28 26 28h601q172 0 282.5 -113t110.5 -296q0 -189 -133 -303q101 -43 151.5 -129.5t50.5 -204.5q0 -424 -458 -424h-605q-11 0 -18.5 8t-7.5 21zM502 238h178q99 0 152 54t53 159q0 93 -52.5 141.5 t-150.5 48.5h-180v-403zM502 854h141q76 0 123 45.5t47 134.5q0 104 -48.5 152.5t-131.5 48.5h-131v-381z" />
<glyph unicode="C" horiz-adv-x="1363" d="M70 743q0 141 34 262.5t92.5 208t136.5 148t168 91.5t185 30q66 0 122.5 -16t91 -36.5t63.5 -49t40.5 -45t20.5 -33.5l-4 139q0 28 27 28h198q27 0 27 -28v-488q0 -28 -27 -28h-229q-27 0 -27 28v19q0 36 -19.5 77.5t-53.5 79.5t-89.5 63.5t-119.5 25.5 q-148 0 -243 -126.5t-95 -355.5q0 -113 30.5 -206.5t81 -154t114.5 -93.5t134 -33q52 0 99 11t80.5 27t64.5 41.5t49.5 45t37 48t24.5 40t16 31.5q12 24 35 10l161 -107q18 -15 7 -43q-5 -14 -14 -34t-31.5 -57t-51.5 -72t-77 -73.5t-103.5 -66.5t-134.5 -46.5t-168 -18.5 q-141 0 -261 52t-207 148t-136 239t-49 318z" />
<glyph unicode="D" horiz-adv-x="1325" d="M78 29v180q0 29 26 29h119v995h-119q-11 0 -18.5 8t-7.5 21v180q0 28 26 28h469q145 0 269.5 -49.5t217 -142.5t145 -235t52.5 -318q0 -166 -47 -304t-128 -229.5t-190 -141.5t-233 -50h-555q-11 0 -18.5 8t-7.5 21zM502 238h71q186 2 283.5 116.5t97.5 366.5 q0 250 -103 381t-284 131h-65v-995z" />
<glyph unicode="E" horiz-adv-x="1243" d="M78 29v180q0 29 26 29h119v995h-119q-11 0 -18.5 8t-7.5 21v180q0 28 26 28h1014q25 0 25 -28v-406q0 -28 -25 -28h-211q-24 0 -24 28v197h-381v-377h311q25 0 25 -29v-180q0 -29 -25 -29h-311v-380h379v196q0 29 26 29h209q27 0 27 -29v-405q0 -13 -8 -21t-19 -8h-1012 q-11 0 -18.5 8t-7.5 21z" />
<glyph unicode="F" horiz-adv-x="1169" d="M78 29v180q0 29 26 29h119v995h-119q-11 0 -18.5 8t-7.5 21v180q0 28 26 28h1006q29 0 29 -28v-406q0 -28 -29 -28h-207q-26 0 -26 28v197h-375v-377h305q27 0 27 -29v-180q0 -29 -27 -29h-305v-380h219q27 0 27 -29v-180q0 -29 -27 -29h-617q-11 0 -18.5 8t-7.5 21z" />
<glyph unicode="G" horiz-adv-x="1394" d="M70 743q0 176 52 320t139.5 234t197 138t229.5 48q80 0 145.5 -20.5t104 -52.5t57.5 -54.5t29 -42.5l-4 129q0 28 27 28h198q27 0 27 -28v-477q0 -29 -27 -29h-229q-27 0 -27 29v22q0 35 -19.5 74.5t-53.5 75t-89 59t-118 23.5q-149 0 -244.5 -130t-95.5 -352 q0 -220 107 -353.5t253 -133.5q112 0 188.5 45.5t106.5 89.5v121h-309q-11 0 -19 8t-8 21v165q0 29 27 29h551q26 0 26 -29v-671q0 -29 -26 -29h-185q-26 0 -26 29l2 98q-117 -141 -330 -141q-143 0 -263.5 52t-208 148t-136.5 239t-49 318z" />
<glyph unicode="H" horiz-adv-x="1476" d="M78 29v180q0 29 26 29h119v995h-119q-11 0 -18.5 8t-7.5 21v180q0 28 26 28h510q25 0 25 -28v-180q0 -29 -25 -29h-112v-383h475v383h-113q-26 0 -26 29v180q0 28 26 28h508q27 0 27 -28v-180q0 -29 -27 -29h-117v-995h117q27 0 27 -29v-180q0 -29 -27 -29h-508 q-26 0 -26 29v180q0 29 26 29h113v380h-475v-380h112q25 0 25 -29v-180q0 -29 -25 -29h-510q-11 0 -18.5 8t-7.5 21z" />
<glyph unicode="I" horiz-adv-x="727" d="M78 29v180q0 29 26 29h119v995h-119q-11 0 -18.5 8t-7.5 21v180q0 28 26 28h517q24 0 24 -28v-180q0 -29 -24 -29h-119v-995h119q24 0 24 -29v-180q0 -29 -24 -29h-517q-11 0 -18.5 8t-7.5 21z" />
<glyph unicode="J" horiz-adv-x="831" d="M59 29v180q0 29 25 29q165 0 231 86.5t66 259.5v649h-119q-24 0 -24 29v180q0 28 24 28h516q27 0 27 -28v-180q0 -29 -27 -29h-119v-625q0 -326 -141.5 -467t-433.5 -141q-25 0 -25 29z" />
<glyph unicode="K" horiz-adv-x="1368" d="M78 29v180q0 29 26 29h119v995h-119q-11 0 -18.5 8t-7.5 21v180q0 28 26 28h471q25 0 25 -28v-180q0 -29 -25 -29h-73v-459h88q163 0 231 105t68 354h-98q-27 0 -27 29v180q0 28 27 28h491q27 0 27 -28v-180q0 -29 -27 -29h-115q-3 -416 -192 -574q63 -41 102 -155 l86 -266h121q27 0 27 -29v-180q0 -13 -8 -21t-19 -8h-233q-85 0 -138 123l-131 342q-15 39 -38.5 61.5t-69.5 22.5h-172v-311h160q26 0 26 -29v-180q0 -29 -26 -29h-558q-11 0 -18.5 8t-7.5 21z" />
<glyph unicode="L" horiz-adv-x="1140" d="M78 29v180q0 29 26 29h119v995h-119q-11 0 -18.5 8t-7.5 21v180q0 28 26 28h510q13 0 22 -9t9 -23v-172q0 -14 -9 -23.5t-22 -9.5h-112v-995h348v196q0 29 27 29h208q27 0 27 -29v-401q0 -13 -9.5 -23t-21.5 -10h-977q-11 0 -18.5 8t-7.5 21z" />
<glyph unicode="M" horiz-adv-x="1675" d="M78 29v180q0 29 26 29h119v995h-119q-11 0 -18.5 8t-7.5 21v180q0 28 26 28h371q82 0 121 -96l170 -557q16 -53 32.5 -117t24.5 -102l8 -37h11q26 135 69 254l174 559q39 96 121 96h363q26 0 26 -28v-180q0 -29 -26 -29h-119v-995h119q26 0 26 -29v-180q0 -29 -26 -29 h-469q-11 0 -18 8t-7 21v180q0 29 25 29h74v751h-7l-213 -780q-12 -41 -42.5 -62.5t-73.5 -21.5q-90 0 -121 84l-211 780h-4v-751h71q27 0 27 -29v-180q0 -29 -27 -29h-469q-11 0 -18.5 8t-7.5 21z" />
<glyph unicode="N" horiz-adv-x="1441" d="M78 29v180q0 29 26 29h119v989h-119q-26 0 -26 26v189q0 28 26 28h322q31 0 55.5 -15.5t35.5 -31t32 -49.5l317 -674q23 -43 47 -97t37 -87l13 -33h6v750h-113q-25 0 -25 29v180q0 28 25 28h508q29 0 29 -28v-180q0 -29 -29 -29h-117v-1204q0 -29 -26 -29h-187 q-42 0 -68 20.5t-53 63.5l-342 704q-16 31 -32 70t-25 62l-8 24h-4v-706h112q25 0 25 -29v-180q0 -29 -25 -29h-510q-11 0 -18.5 8t-7.5 21z" />
<glyph unicode="O" d="M68 743q0 175 56 319t148 234t205.5 138.5t233.5 48.5q96 0 189 -30t176 -91.5t145.5 -148t99.5 -208t37 -262.5q0 -172 -50 -315t-136.5 -239.5t-205.5 -149.5t-255 -53q-134 0 -252.5 56t-204.5 154.5t-136 240.5t-50 306zM367 737q0 -218 98.5 -353.5t245.5 -135.5 q149 0 247.5 135.5t98.5 353.5q0 225 -99.5 354.5t-246.5 129.5t-245.5 -129.5t-98.5 -354.5z" />
<glyph unicode="P" horiz-adv-x="1177" d="M78 29v180q0 29 26 29h119v995h-119q-11 0 -18.5 8t-7.5 21v180q0 28 26 28h590q199 0 325 -140t126 -357t-129 -343t-346 -126h-168v-266h149q27 0 27 -29v-180q0 -29 -27 -29h-547q-11 0 -18.5 8t-7.5 21zM502 727h137q118 0 169.5 60t51.5 184q0 129 -59 195.5 t-158 66.5h-141v-506z" />
<glyph unicode="Q" d="M68 743q0 175 56 319t148 234t205.5 138.5t233.5 48.5q96 0 189 -30t176 -91.5t145.5 -148t99.5 -208t37 -262.5q0 -318 -158 -520.5t-407 -230.5q5 -6 11 -12t25.5 -17.5t44 -20t67 -15.5t93.5 -7q108 0 176 35q25 13 35 -10l53 -160q4 -9 0.5 -19.5t-12.5 -15.5 q-23 -10 -55.5 -21.5t-93.5 -23.5t-117 -12q-80 0 -153.5 18.5t-127.5 48.5t-100 66t-76 72t-51.5 66t-31.5 48l-9 19q-182 69 -292.5 259.5t-110.5 452.5zM367 737q0 -217 98 -352t246 -135q149 0 247.5 134.5t98.5 352.5q0 225 -99.5 354.5t-246.5 129.5t-245.5 -129.5 t-98.5 -354.5z" />
<glyph unicode="R" horiz-adv-x="1294" d="M78 29v180q0 29 26 29h119v995h-119q-11 0 -18.5 8t-7.5 21v180q0 28 26 28h605q197 0 319.5 -129t122.5 -344q0 -143 -52.5 -243t-150.5 -150q37 -37 66 -110l104 -256h119q25 0 25 -29v-180q0 -29 -25 -29h-242q-45 0 -77 31t-60 92l-129 330q-16 43 -40.5 69t-67.5 27 h-119v-311h137q27 0 27 -29v-180q0 -29 -27 -29h-535q-11 0 -18.5 8t-7.5 21zM502 768h135q119 0 175 51.5t56 169.5q0 244 -231 244h-135v-465z" />
<glyph unicode="S" horiz-adv-x="1222" d="M86 29v487q0 29 27 29h229q27 0 27 -29v-27q0 -8 6 -30.5t25 -59.5t47.5 -69.5t79.5 -56t114 -23.5q90 0 136 44t46 118q0 46 -30.5 81t-80 56.5t-113.5 45t-130 44.5t-130 56.5t-113.5 80t-80 116.5t-30.5 163q0 188 115.5 308t308.5 120q210 0 317 -140l-6 101 q-1 13 6 19.5t21 6.5h196q27 0 27 -26v-481q0 -29 -27 -29h-229q-11 0 -18 8t-7 21v43q0 32 -13 67.5t-38.5 69t-71.5 55t-104 21.5q-88 0 -133 -45.5t-45 -118.5q0 -45 25 -79.5t67.5 -58t97.5 -43.5t115.5 -39.5t121.5 -42t116 -56t97.5 -75.5t67.5 -106t25 -143 q0 -84 -25.5 -158.5t-76 -135.5t-136 -96.5t-196.5 -35.5q-72 0 -135.5 18.5t-104.5 44t-73 56.5t-46.5 53t-19.5 35l4 -164q0 -29 -27 -29h-198q-27 0 -27 29z" />
<glyph unicode="T" horiz-adv-x="1234" d="M33 1038v400q0 13 9 22.5t21 9.5h1108q12 0 20.5 -9.5t8.5 -22.5v-400q0 -14 -8.5 -24t-20.5 -10h-200q-13 0 -22 10t-9 24v195h-180v-995h112q12 0 21.5 -10t9.5 -23v-172q0 -13 -9.5 -23t-21.5 -10h-503q-12 0 -21.5 10t-9.5 23v172q0 13 9.5 23t21.5 10h112v995h-186 v-195q0 -13 -9.5 -23.5t-21.5 -10.5h-201q-12 0 -21 10t-9 24z" />
<glyph unicode="U" horiz-adv-x="1349" d="M27 1262v180q0 28 26 28h504q27 0 27 -28v-180q0 -29 -27 -29h-106v-690q0 -293 227 -293q106 0 163.5 78.5t57.5 201.5v703h-106q-11 0 -19 8t-8 21v180q0 28 27 28h503q27 0 27 -28v-180q0 -29 -27 -29h-118v-684q0 -274 -135 -418.5t-365 -144.5q-231 0 -368.5 144.5 t-137.5 418.5v684h-119q-26 0 -26 29z" />
<glyph unicode="V" horiz-adv-x="1339" d="M-18 1262v180q0 28 24 28h518q27 0 27 -28v-180q0 -29 -27 -29h-106l246 -864h14l246 864h-107q-26 0 -26 29v180q0 28 26 28h518q11 0 19 -7.5t8 -20.5v-180q0 -29 -27 -29h-110l-365 -1118q-25 -65 -51.5 -90t-81.5 -25h-111q-56 0 -83.5 25t-53.5 90l-366 1118h-107 q-24 0 -24 29z" />
<glyph unicode="W" horiz-adv-x="1839" d="M-8 1262v180q0 28 24 28h521q24 0 24 -28v-180q0 -29 -24 -29h-117l143 -864h17l211 1101h256l213 -1101h16l143 864h-114q-27 0 -27 29v180q0 13 8 20.5t19 7.5h518q11 0 18.5 -7.5t7.5 -20.5v-180q0 -29 -26 -29h-103l-262 -1118q-17 -64 -47 -89.5t-88 -25.5h-109 q-58 0 -90 26t-47 89l-153 841h-13l-149 -841q-13 -63 -45 -89t-90 -26h-109q-59 0 -89.5 26t-45.5 89l-264 1118h-103q-24 0 -24 29z" />
<glyph unicode="X" horiz-adv-x="1421" d="M51 29v180q0 29 27 29h127l330 483l-334 512h-123q-27 0 -27 29v180q0 28 27 28h516q27 0 27 -28v-180q0 -29 -27 -29h-80l197 -344l194 346h-80q-24 0 -24 29v180q0 26 24 26h518q27 0 27 -26v-180q0 -29 -27 -29h-126l-334 -510l329 -487h129q27 0 27 -29v-180 q0 -13 -8 -21t-19 -8h-518q-24 0 -24 29v180q0 29 24 29h76l-192 321l-191 -321h78q24 0 24 -29v-180q0 -29 -24 -29h-516q-27 0 -27 29z" />
<glyph unicode="Y" horiz-adv-x="1265" d="M-16 1262v180q0 28 26 28h525q11 0 18.5 -7.5t7.5 -20.5v-180q0 -29 -26 -29h-82l186 -426h8l180 426h-90q-26 0 -26 29v180q0 13 7.5 20.5t18.5 7.5h520q27 0 27 -28v-180q0 -29 -27 -29h-118l-369 -664v-331h125q27 0 27 -29v-180q0 -13 -8 -21t-19 -8h-526 q-27 0 -27 29v180q0 29 27 29h123v331l-363 664h-119q-26 0 -26 29z" />
<glyph unicode="Z" horiz-adv-x="1226" d="M88 33v157q0 30 55 103l619 940h-410v-178q0 -15 -9 -24t-21 -9h-203q-13 0 -22 9t-9 24v383q0 13 9.5 22.5t21.5 9.5h987q13 0 22 -9t9 -23v-138q0 -22 -9 -45t-15.5 -33t-27.5 -40l-620 -944h409v178q0 14 9 23.5t22 9.5h201q14 0 22.5 -9t8.5 -24v-383q0 -14 -9 -23.5 t-22 -9.5h-987q-12 0 -21.5 10t-9.5 23z" />
<glyph unicode="[" horiz-adv-x="774" d="M162 -117v1657q0 29 26 29l490 -2q12 0 21.5 -10t9.5 -23v-191q0 -13 -9.5 -22.5t-21.5 -9.5h-244v-1200h244q12 0 21.5 -10t9.5 -23v-191q0 -13 -9.5 -22.5t-21.5 -9.5h-490q-26 0 -26 28z" />
<glyph unicode="\" horiz-adv-x="794" d="M51 1528q-6 28 19 28h221q27 0 33 -28l415 -1651q4 -13 -1 -21t-17 -8h-221q-11 0 -19.5 8t-11.5 21z" />
<glyph unicode="]" horiz-adv-x="774" d="M63 78q0 14 9.5 23.5t23.5 9.5h244v1200h-244q-14 0 -23.5 9.5t-9.5 22.5v191q0 14 9.5 23.5t23.5 9.5l490 2q24 0 24 -29v-1657q0 -28 -24 -28h-490q-14 0 -23.5 9.5t-9.5 22.5v191z" />
<glyph unicode="_" horiz-adv-x="1122" d="M102 -78q0 14 9 23.5t22 9.5h856q12 0 21.5 -10t9.5 -23v-188q0 -13 -9.5 -23t-21.5 -10h-856q-13 0 -22 9.5t-9 23.5v188z" />
<glyph unicode="`" horiz-adv-x="612" d="M53 1493l119 135q8 11 21 13t22 -7l336 -331q11 -9 12 -23t-8 -25l-92 -108q-9 -11 -21.5 -12t-23.5 8l-361 303q-17 21 -4 47z" />
<glyph unicode="a" horiz-adv-x="1009" d="M47 281q0 152 114 230.5t335 78.5h114v16q0 93 -39 134.5t-122 41.5q-54 0 -98 -11t-65.5 -24.5t-39.5 -24.5t-27 -11q-14 0 -22 10l-105 131q-13 20 2 35q2 3 16 15.5t47 33.5t75.5 39.5t109 32.5t139.5 14q89 0 160 -23.5t126.5 -72t85.5 -131.5t30 -195v-383h82 q26 0 26 -29v-159q0 -29 -26 -29h-230q-86 0 -86 94v80h-2q-7 -15 -12 -24t-22.5 -36t-39.5 -46t-53.5 -41t-74.5 -33.5t-93 -11.5q-141 0 -223 81.5t-82 217.5zM332 317q0 -50 29.5 -77t76.5 -27q19 0 37 4.5t32 10t27.5 16t22 18.5t19 21t15 19t11.5 17.5t8 12.5v104h-100 q-89 0 -133.5 -28.5t-44.5 -90.5z" />
<glyph unicode="b" horiz-adv-x="1075" d="M10 1282v160q0 28 25 28h317q27 0 27 -28v-475l-8 -95h8q5 21 20.5 44t42 48t73 41.5t103.5 16.5q183 0 290.5 -142.5t107.5 -371.5q0 -245 -111.5 -383.5t-290.5 -138.5q-48 0 -89.5 11.5t-68 28.5t-47.5 38.5t-31.5 38.5t-15.5 32h-2v-106q0 -29 -24 -29h-191 q-12 0 -20 8t-8 21v1224h-82q-25 0 -25 29zM383 508q0 -138 50 -215.5t128 -77.5q87 0 137 80.5t50 214.5q0 130 -52 206.5t-135 76.5q-74 0 -126 -74t-52 -211z" />
<glyph unicode="c" horiz-adv-x="1013" d="M57 506q0 121 37.5 221t99 163t138 97.5t157.5 34.5q64 0 116 -17t80 -41.5t42.5 -44t17.5 -32.5h5l-5 92q0 29 27 29h143q27 0 27 -29v-377q0 -29 -27 -29h-178q-24 0 -24 29v29q-3 64 -51 112t-123 48q-79 0 -143 -75t-64 -208q0 -137 64 -215t157 -78q83 0 145.5 43.5 t81.5 77.5q19 26 41 4l105 -111q18 -21 6 -45q-8 -13 -24 -32.5t-52 -50t-79.5 -55t-109.5 -42.5t-139 -18q-98 0 -183.5 35.5t-149.5 101t-101 164.5t-37 219z" />
<glyph unicode="d" horiz-adv-x="1114" d="M59 508q0 228 111 371t295 143q58 0 103 -15.5t70.5 -40.5t39 -46.5t18.5 -42.5h4q-4 41 -4 84v292h-84q-26 0 -26 29v160q0 28 26 28h320q26 0 26 -28v-1225h80q27 0 27 -29v-159q0 -29 -27 -29h-231q-41 0 -63.5 24t-22.5 70v58h-2q-5 -21 -22.5 -46.5t-47.5 -53.5 t-79.5 -47t-108.5 -19q-178 0 -290 138.5t-112 383.5zM328 510q0 -133 50 -214t136 -81q79 0 129.5 77.5t50.5 215.5q0 137 -52.5 211t-127.5 74q-83 0 -134.5 -76.5t-51.5 -206.5z" />
<glyph unicode="e" horiz-adv-x="995" d="M57 506q0 121 38.5 221t102 163t143 97.5t165.5 34.5q212 0 318 -136t108 -392q0 -13 -9.5 -23t-21.5 -10h-565q14 -122 74 -184t143 -62q48 0 91 15t71 37.5t43.5 39t23.5 29.5q18 25 39 4l105 -111q19 -21 4 -45q-11 -19 -36 -45.5t-73 -64t-126 -63t-167 -25.5 q-98 0 -183.5 35.5t-149.5 101t-101 164.5t-37 219zM342 618h332q-3 80 -44 134.5t-116 54.5q-68 0 -115.5 -48t-56.5 -141z" />
<glyph unicode="f" horiz-adv-x="737" d="M70 29v159q0 29 24 29h84v574h-82q-26 0 -26 28v160q0 29 26 29h82v90q0 192 88.5 290.5t259.5 98.5q53 0 98.5 -10.5t80.5 -32t50.5 -33t39.5 -33.5q23 -20 8 -41l-94 -120q-19 -22 -39 -5q-41 37 -103 37q-116 0 -116 -153v-88h227q27 0 27 -29v-160q0 -28 -27 -28 h-227v-574h145q25 0 25 -29v-159q0 -13 -7 -21t-18 -8h-502q-24 0 -24 29z" />
<glyph unicode="g" horiz-adv-x="1107" d="M57 502q0 243 112 382.5t290 139.5q59 0 108.5 -17.5t78 -43.5t44.5 -48t23 -41h4l-2 105q0 29 24 29h291q25 0 25 -29v-160q0 -28 -25 -28h-76v-807q0 -116 -37 -207t-102.5 -147t-150.5 -84.5t-185 -28.5q-54 0 -105 10t-85 22t-70 33t-52.5 33.5t-40 32t-24.5 20.5 q-23 23 -8 43l96 137q14 20 39 2q5 -4 33.5 -26t48 -34t62.5 -24t94 -12q227 0 227 230v153q-5 -21 -20 -45t-41.5 -49.5t-72.5 -42t-103 -16.5q-184 0 -292 143.5t-108 374.5zM326 498q0 -129 51.5 -207t134.5 -78q77 0 129.5 75.5t52.5 211.5q0 139 -51.5 215t-130.5 76 q-86 0 -136 -79.5t-50 -213.5z" />
<glyph unicode="h" horiz-adv-x="1089" d="M45 29v159q0 29 27 29h82v1036h-82q-27 0 -27 29v160q0 28 27 28h327q25 0 25 -28v-410q0 -73 -14 -141h6q82 131 231 131q142 0 221.5 -99t79.5 -261v-445h84q27 0 27 -29v-159q0 -29 -27 -29h-268q-86 0 -86 94v479q0 101 -27 155t-94 54q-38 0 -66.5 -17.5t-41.5 -42 t-19 -43t-6 -28.5v-434h65q25 0 25 -29v-159q0 -13 -7 -21t-18 -8h-417q-27 0 -27 29z" />
<glyph unicode="i" horiz-adv-x="602" d="M70 29v159q0 29 24 29h82v574h-82q-24 0 -24 28v160q0 29 24 29h330q25 0 25 -29v-762h69q27 0 27 -29v-159q0 -29 -27 -29h-424q-24 0 -24 29zM135 1315q0 72 50 123t120 51q69 0 118.5 -51t49.5 -123t-49.5 -122t-118.5 -50q-71 0 -120.5 50t-49.5 122z" />
<glyph unicode="j" horiz-adv-x="546" d="M-193 -328l89 117q23 23 45 4q3 -2 13 -9.5t16 -11.5t16.5 -9t24 -7t30.5 -2q58 0 86.5 41.5t28.5 112.5v883h-84q-27 0 -27 28v160q0 29 27 29h329q25 0 25 -29v-1073q0 -191 -88.5 -290t-257.5 -99q-54 0 -98.5 10t-79.5 31t-49 32t-39 33q-12 10 -14 24.5t7 24.5z M111 1315q0 72 49.5 123t118.5 51q70 0 120 -51t50 -123t-49.5 -122t-120.5 -50q-69 0 -118.5 50t-49.5 122z" />
<glyph unicode="k" horiz-adv-x="1112" d="M45 29v159q0 29 27 29h82v1036h-82q-27 0 -27 29v160q0 28 27 28h327q25 0 25 -28v-885l211 234h-60q-24 0 -24 28v160q0 29 24 29h414q25 0 25 -29v-160q0 -28 -25 -28h-86l-194 -193l219 -381h114q25 0 25 -29v-159q0 -13 -7 -21t-18 -8h-182q-65 0 -119 80l-209 366 l-108 -118v-111h59q27 0 27 -29v-159q0 -13 -8 -21t-19 -8h-411q-27 0 -27 29z" />
<glyph unicode="l" horiz-adv-x="589" d="M51 29v159q0 29 27 29h82v1036h-82q-27 0 -27 29v162q0 29 27 29h321q33 0 33 -41v-1215h68q26 0 26 -29v-159q0 -29 -26 -29h-422q-27 0 -27 29z" />
<glyph unicode="m" horiz-adv-x="1630" d="M70 29v159q0 29 24 29h84v574h-84q-24 0 -24 28v160q0 29 24 29h285q18 0 25 -9.5t6 -33.5v-119h6q2 9 9 25.5t27.5 44t48 50t75 39.5t104.5 17q180 0 254 -168q5 14 12 28.5t28 42t47.5 47t72.5 35t100 15.5q141 0 218 -98.5t77 -261.5v-445h84q24 0 24 -29v-159 q0 -29 -24 -29h-268q-88 0 -88 94v479q0 102 -27 156.5t-94 54.5q-56 0 -86.5 -36t-38.5 -80q2 -10 2 -39v-412h69q25 0 25 -29v-159q0 -13 -7 -21t-18 -8h-391q-11 0 -18.5 8t-7.5 21v159q0 29 26 29h51v356q0 109 -28 160t-92 51q-39 0 -67.5 -18.5t-41 -44.5t-17.5 -43.5 t-5 -26.5v-434h41q26 0 26 -29v-159q0 -29 -26 -29h-398q-24 0 -24 29z" />
<glyph unicode="n" horiz-adv-x="1114" d="M70 29v159q0 29 24 29h84v574h-84q-24 0 -24 28v160q0 29 24 29h289q27 0 27 -29v-131h6q2 9 8.5 24.5t26 43.5t46 50t73 39t102.5 17q143 0 221 -98.5t80 -261.5v-445h84q26 0 26 -29v-159q0 -29 -26 -29h-271q-84 0 -84 94v479q0 102 -27 156.5t-93 54.5q-38 0 -66 -18 t-41 -43.5t-18.5 -43.5t-5.5 -26v-436h63q27 0 27 -29v-159q0 -29 -27 -29h-420q-24 0 -24 29z" />
<glyph unicode="o" horiz-adv-x="1054" d="M57 506q0 237 129.5 376.5t339.5 139.5q212 0 341.5 -140t129.5 -376q0 -237 -127 -378.5t-344 -141.5q-216 0 -342.5 141t-126.5 379zM334 508q0 -134 51.5 -213.5t140.5 -79.5t142 79.5t53 213.5q0 130 -54.5 206.5t-140.5 76.5t-139 -76.5t-53 -206.5z" />
<glyph unicode="p" horiz-adv-x="1110" d="M43 -272q0 28 27 28h82v1035h-72q-27 0 -27 28v160q0 29 27 29h289q24 0 24 -29l-2 -105h6q5 20 21.5 43.5t45 48t77 40.5t106.5 16q179 0 291.5 -138.5t112.5 -381.5q0 -230 -108 -373t-292 -143q-57 0 -103 14.5t-73 37.5t-42 43.5t-21 39.5h-6q6 -61 6 -86v-279h127 q26 0 26 -28v-162q0 -29 -26 -29h-469q-27 0 -27 29v162zM416 494q0 -135 52.5 -208t127.5 -73q82 0 133 77.5t51 207.5q0 134 -49 213.5t-135 79.5q-80 0 -130 -75t-50 -222z" />
<glyph unicode="q" horiz-adv-x="1075" d="M59 502q0 244 112 382t290 138q59 0 107.5 -15.5t77 -40t45 -47t22.5 -42.5h4v102q0 29 24 29h191q11 0 18.5 -8t7.5 -21v-1223h82q27 0 27 -28v-162q0 -29 -27 -29h-469q-26 0 -26 29v162q0 28 26 28h125v285l4 98h-4q-5 -21 -20 -44.5t-41.5 -49t-72.5 -42.5t-103 -17 q-185 0 -292.5 143t-107.5 373zM328 500q0 -130 51.5 -207.5t134.5 -77.5q75 0 127.5 75.5t52.5 211.5q0 139 -50.5 215t-129.5 76q-86 0 -136 -79.5t-50 -213.5z" />
<glyph unicode="r" horiz-adv-x="827" d="M70 29v159q0 29 24 29h84v574h-84q-24 0 -24 28v160q0 29 24 29h289q27 0 27 -29v-227h8q2 6 5 15.5t16 37t29.5 52.5t46 56t63.5 53t84.5 37t107.5 15q13 0 22 -9.5t9 -23.5v-205q0 -14 -9 -23t-22 -9h-70q-99 0 -174 -86.5t-75 -194.5v-250h69q25 0 25 -29v-159 q0 -13 -7 -21t-18 -8h-426q-24 0 -24 29z" />
<glyph unicode="s" horiz-adv-x="927" d="M66 33l2 311q0 14 8.5 23.5t21.5 9.5h152q12 0 21.5 -9t9.5 -22v-20q1 -5 4.5 -13.5t17 -30.5t31 -39t50 -30.5t71.5 -13.5q55 0 85.5 23.5t30.5 68.5q0 28 -20.5 49.5t-54 33.5t-76 26.5t-87 27.5t-87 36.5t-76 54t-54 80.5t-20.5 114q0 139 85 224t239 85 q160 0 242 -111h4q-7 56 -7 60q0 15 9.5 24t21.5 9h119q13 0 22 -9.5t9 -23.5v-303q0 -14 -10 -23.5t-23 -9.5h-152q-12 0 -21 10t-9 23v14q0 45 -41.5 85t-106.5 40q-53 0 -82.5 -25.5t-29.5 -74.5q0 -36 27.5 -61t71 -40t96.5 -29.5t106.5 -36t97 -52t71 -84.5t27.5 -128 q0 -55 -18 -104.5t-57 -93t-109 -69t-164 -25.5q-45 0 -87.5 11.5t-71.5 28.5t-51.5 35t-33.5 31.5t-12 18.5h-4q4 -64 4 -76q0 -13 -9.5 -23t-21.5 -10h-131q-13 0 -21.5 9.5t-8.5 23.5z" />
<glyph unicode="t" horiz-adv-x="768" d="M33 823v152q0 14 8.5 23.5t21.5 9.5h78v229q0 13 9.5 23t21.5 10h211q12 0 21.5 -10t9.5 -23v-229h223q12 0 20.5 -9.5t8.5 -23.5v-152q0 -13 -8.5 -22.5t-20.5 -9.5h-223v-414q0 -154 106 -154q18 0 32.5 2.5t27.5 9.5t18 10t17 13l12 10q11 9 23 8t20 -12l92 -117 q15 -21 -6 -49l-22 -19q-23 -19 -32.5 -25.5t-36.5 -23t-49 -23.5t-56.5 -14t-70.5 -7q-169 0 -258.5 99t-89.5 290v416h-78q-13 0 -21.5 9t-8.5 23z" />
<glyph unicode="u" horiz-adv-x="1091" d="M33 819v160q0 29 26 29h271q41 0 63.5 -24.5t22.5 -70.5v-479q0 -211 121 -211q37 0 65 18.5t41 43.5t19 43t6 26v437h-58q-26 0 -26 28v160q0 29 26 29h301q27 0 27 -29v-762h82q27 0 27 -29v-159q0 -29 -27 -29h-229q-86 0 -86 94v66h-7q-17 -53 -34 -79 q-64 -95 -207 -95t-228.5 100t-85.5 260v445h-84q-26 0 -26 28z" />
<glyph unicode="v" horiz-adv-x="1118" d="M16 819v160q0 29 27 29h420q24 0 24 -29v-160q0 -28 -24 -28h-47l141 -549h4l146 549h-50q-26 0 -26 28v160q0 29 26 29h420q25 0 25 -29v-160q0 -28 -25 -28h-92l-215 -738q-11 -33 -23.5 -43t-44.5 -10h-286q-32 0 -44.5 10t-23.5 43l-217 738h-88q-27 0 -27 28z" />
<glyph unicode="w" horiz-adv-x="1572" d="M18 819v160q0 29 25 29h426q27 0 27 -29v-160q0 -28 -27 -28h-55l106 -555h2l115 555h-27q-24 0 -24 28v160q0 29 24 29h351q24 0 24 -29v-160q0 -28 -24 -28h-25l113 -555h4l104 555h-55q-27 0 -27 28v160q0 29 27 29h426q26 0 26 -29v-160q0 -28 -26 -28h-90l-189 -728 q-11 -34 -28 -48.5t-50 -14.5h-227q-70 0 -78 63l-78 525h-4l-77 -525q-11 -63 -80 -63h-226q-34 0 -51 14.5t-26 48.5l-191 728h-90q-25 0 -25 28z" />
<glyph unicode="x" horiz-adv-x="1083" d="M66 29v159q0 29 26 29h76l219 281l-235 293h-58q-26 0 -26 28v160q0 29 26 29h408q26 0 26 -29v-160q0 -28 -26 -28h-58l136 -175l116 172h-28q-27 0 -27 29v162q0 29 27 29h323q27 0 27 -29v-162q0 -29 -27 -29h-73l-216 -288l232 -283h57q27 0 27 -29v-159 q0 -13 -8 -21t-19 -8h-409q-25 0 -25 29v159q0 29 25 29h53l-129 166l-119 -166h29q26 0 26 -29v-159q0 -29 -26 -29h-324q-26 0 -26 29z" />
<glyph unicode="y" horiz-adv-x="1095" d="M18 819v160q0 29 25 29h408q26 0 26 -29v-160q0 -28 -26 -28h-41l129 -551h4l139 551h-49q-25 0 -25 28v160q0 29 25 29h422q24 0 24 -29v-160q0 -28 -24 -28h-94l-259 -885q-25 -83 -43.5 -134.5t-46.5 -105.5t-60 -83t-78 -47.5t-105 -18.5q-22 0 -43.5 2.5t-38.5 6 t-35 10t-30.5 11.5t-27.5 14t-23.5 14.5t-21 15.5t-17 14.5t-15.5 14.5t-13 11q-26 26 -12 43l101 125q15 18 38 2q1 -1 16 -14t22.5 -17t27 -10t43.5 -6q45 0 68 37t43 117l24 102h-55q-34 0 -49.5 14.5t-28.5 51.5l-209 715h-90q-25 0 -25 28z" />
<glyph unicode="z" horiz-adv-x="1001" d="M80 29v133q0 15 1.5 26.5t7.5 22t9 14.5t13.5 16t13.5 15l459 535h-297v-134q0 -28 -27 -28h-154q-26 0 -26 28v322q0 29 26 29h791q25 0 25 -29v-123q0 -28 -11 -48.5t-37 -49.5l-450 -541h293v129q0 29 24 29h156q25 0 25 -29v-317q0 -29 -25 -29h-791q-26 0 -26 29z " />
<glyph unicode="{" horiz-adv-x="747" d="M47 659v103q0 14 8.5 23.5t20.5 9.5q42 4 83.5 59t41.5 158v166q0 90 23.5 158.5t63 111.5t98 70.5t122 38t141.5 10.5q12 0 22.5 -10t10.5 -23v-191q0 -13 -10.5 -22.5t-22.5 -9.5q-92 0 -133 -34.5t-41 -127.5v-135q0 -51 -11 -94.5t-26.5 -69.5t-31 -44.5t-26.5 -25.5 l-11 -8v-121q4 -2 11.5 -7.5t25.5 -25.5t32 -44.5t25.5 -68.5t11.5 -95v-142q0 -93 40.5 -126t133.5 -33q12 0 22.5 -10t10.5 -23v-191q0 -13 -10.5 -22.5t-22.5 -9.5q-98 0 -174.5 18t-140.5 60t-98.5 120t-34.5 189v172q0 102 -41.5 157.5t-83.5 57.5q-12 0 -20.5 9.5 t-8.5 22.5z" />
<glyph unicode="|" horiz-adv-x="591" d="M160 -240v1768q0 28 26 28h220q26 0 26 -28v-1768q0 -28 -26 -28h-220q-26 0 -26 28z" />
<glyph unicode="}" horiz-adv-x="747" d="M68 76q0 14 8.5 23.5t23.5 9.5q92 0 132 33t40 126v142q0 51 11 94.5t27 69.5t32.5 44.5t27.5 25.5l11 7v121q-4 2 -11.5 7.5t-26.5 25.5t-33 45t-26 69t-12 95v135q0 93 -40 127.5t-132 34.5q-15 0 -23.5 9t-8.5 23v191q0 14 8.5 23.5t23.5 9.5q78 0 141.5 -10.5 t121.5 -38t97.5 -70.5t63 -111.5t23.5 -158.5v-166q0 -103 41 -158t82 -59q13 0 22.5 -9.5t9.5 -23.5v-103q0 -13 -9 -22.5t-23 -9.5q-40 -2 -81.5 -57.5t-41.5 -157.5v-172q0 -90 -23.5 -158t-63 -111t-97.5 -70t-121.5 -37.5t-141.5 -10.5q-15 0 -23.5 9t-8.5 23v191z" />
<glyph unicode="&#xa1;" horiz-adv-x="557" d="M127 1049q0 66 45.5 111.5t108.5 45.5q65 0 110 -45.5t45 -111.5q0 -65 -45.5 -111.5t-109.5 -46.5q-63 0 -108.5 46.5t-45.5 111.5zM143 -520l25 1198q0 27 27 27h170q26 0 26 -27l27 -1198q0 -13 -8.5 -21t-20.5 -8h-219q-27 0 -27 29z" />
<glyph unicode="&#xa2;" horiz-adv-x="1071" d="M78 623q0 209 103.5 343t252.5 162l2 146q-3 29 27 29h143q27 0 27 -29v-162q57 -19 91 -51.5t44 -59.5h4l-4 95q-3 26 25 26h143q27 0 27 -26v-379q0 -13 -8 -21t-19 -8h-178q-11 0 -18 8t-7 21v28q-3 63 -52 111.5t-122 48.5q-79 0 -143 -75t-64 -207q0 -137 64 -215 t157 -78q85 0 147.5 44t80.5 79q20 23 39 4l108 -113q16 -19 2 -45q-7 -15 -28 -39t-58.5 -56.5t-98.5 -60t-132 -37.5v-106q0 -29 -27 -29h-145q-27 0 -27 29v113q-158 35 -257 169.5t-99 340.5z" />
<glyph unicode="&#xa3;" horiz-adv-x="1228" d="M74 518v127q0 29 26 29h193q-8 13 -35 54t-39.5 63.5t-30.5 61t-26 78t-8 83.5q0 97 31 180.5t92 149t159.5 102.5t225.5 37q225 0 352 -133.5t127 -352.5v-30q0 -29 -25 -29h-237q-27 0 -27 29v30q0 101 -50.5 164.5t-139.5 63.5t-145 -61.5t-56 -176.5q0 -44 17.5 -88 t39.5 -74.5t52 -74t46 -76.5h338q25 0 25 -29v-127q0 -29 -25 -29h-311q-9 -74 -40.5 -139.5t-74.5 -105.5h590q27 0 27 -27v-188q0 -29 -27 -29h-975q-26 0 -26 29v174q0 39 22 49q2 2 37.5 21.5t67.5 41.5t64 69.5t38 104.5h-246q-26 0 -26 29z" />
<glyph unicode="&#xa4;" horiz-adv-x="1159" d="M111 711q0 242 131 379l-117 141q-6 9 -7 18t4.5 17.5t9.5 13.5t11 12q9 9 21.5 8t21.5 -12l119 -143q114 82 275 82q154 0 270 -80l115 141q9 11 21.5 12t21.5 -8l16 -14q9 -9 10 -22.5t-8 -24.5l-113 -139q136 -142 136 -381q0 -245 -134 -385l111 -136q9 -11 8 -24.5 t-10 -22.5l-16 -14q-9 -9 -21.5 -8t-21.5 12l-113 137q-116 -80 -274 -80q-163 0 -279 84l-113 -141q-8 -9 -16 -11.5t-16.5 2t-13 8.5t-11.5 11q-9 9 -10 22.5t6 24.5l113 140q-127 139 -127 381zM387 713q0 -134 51.5 -213.5t139.5 -79.5q89 0 141.5 79.5t52.5 213.5 q0 130 -53 206t-139 76t-139.5 -76t-53.5 -206z" />
<glyph unicode="&#xa5;" horiz-adv-x="1409" d="M51 1262v180q0 28 27 28h524q11 0 19 -7.5t8 -20.5v-180q0 -29 -27 -29h-82l187 -426h8l180 426h-90q-27 0 -27 29v180q0 13 8 20.5t19 7.5h520q27 0 27 -28v-180q0 -29 -27 -29h-119l-192 -346h129q26 0 26 -29v-110q0 -29 -26 -29h-223l-68 -123h201q24 0 24 -31v-108 q0 -29 -24 -29h-215v-190h125q26 0 26 -29v-180q0 -13 -7.5 -21t-18.5 -8h-527q-26 0 -26 29v180q0 29 26 29h123v190h-205q-26 0 -26 29v108q0 31 26 31h191l-68 123h-213q-26 0 -26 29v110q0 29 26 29h121l-188 346h-119q-27 0 -27 29z" />
<glyph unicode="&#xa6;" horiz-adv-x="598" d="M164 -240v660q0 29 26 29h220q26 0 26 -29v-660q0 -13 -7.5 -20.5t-18.5 -7.5h-220q-26 0 -26 28zM164 868v660q0 28 26 28h220q26 0 26 -28v-660q0 -13 -7.5 -20.5t-18.5 -7.5h-220q-26 0 -26 28z" />
<glyph unicode="&#xa7;" horiz-adv-x="1243" d="M94 61q0 27 25 27h229q27 0 27 -27v-26q0 -8 6 -31t25 -60.5t47 -70.5t78.5 -57.5t113.5 -24.5q75 0 119.5 45.5t44.5 120.5q0 50 -38 86t-98.5 59.5t-134 47t-147 57t-134 79.5t-98.5 125t-38 183q0 152 65 244q-65 87 -65 217q0 188 115.5 308t310.5 120 q208 0 315 -140l-4 101q-3 26 25 26h198q25 0 25 -26v-481q0 -29 -25 -29h-231q-11 0 -18 8t-7 21v43q0 32 -14 66.5t-41 66.5t-74 52.5t-106 20.5q-73 0 -115.5 -43.5t-42.5 -113.5q0 -44 24.5 -77.5t66.5 -56t96 -42t114 -38.5t119.5 -41.5t113.5 -56t96 -76.5 t66.5 -108.5t24.5 -146.5q0 -147 -70 -250q70 -86 70 -211q0 -67 -15 -128t-49 -115.5t-83 -95t-122.5 -64t-162.5 -23.5q-84 0 -158.5 24t-119.5 57.5t-71 61.5t-32 45l4 -145q1 -13 -6.5 -21t-20.5 -8h-198q-25 0 -25 29v493zM414 594q0 -32 11 -59t34.5 -48.5t48.5 -38 t66 -33.5t72 -28t82.5 -28.5t82.5 -28.5q18 40 18 88q0 35 -17.5 64t-42.5 49t-69 40.5t-81.5 33.5t-95 33.5t-95.5 35.5q-14 -32 -14 -80z" />
<glyph unicode="&#xa8;" horiz-adv-x="643" d="M23 1260q0 53 34.5 89.5t85.5 36.5t86 -36.5t35 -89.5t-35 -89t-86 -36t-85.5 36t-34.5 89zM379 1260q0 53 35 89.5t86 36.5q50 0 85.5 -37t35.5 -89t-35.5 -88.5t-85.5 -36.5q-51 0 -86 36t-35 89z" />
<glyph unicode="&#xa9;" horiz-adv-x="1230" d="M86 713q0 170 68 309t189.5 219t272.5 80q150 0 272 -80t190.5 -219t68.5 -309t-68.5 -309.5t-190.5 -219.5t-272 -80q-151 0 -272.5 80t-189.5 219.5t-68 309.5zM217 713q0 -207 111 -340t288 -133q175 0 287.5 133.5t112.5 339.5t-112.5 338.5t-287.5 132.5 q-176 0 -287.5 -132.5t-111.5 -338.5zM313 719q0 164 87 262t212 98q56 0 102.5 -18t75.5 -46.5t45 -50.5t25 -42q9 -17 -6 -29l-92 -66q-15 -12 -23 2q-39 84 -127 84q-54 0 -93.5 -51t-39.5 -141q0 -93 40.5 -145t103.5 -52q89 0 116 74q4 7 11.5 9t11.5 -3l90 -59 q15 -12 6 -29q-7 -16 -17 -32t-31.5 -40t-47 -42t-65.5 -31t-85 -13q-125 0 -212 98.5t-87 262.5z" />
<glyph unicode="&#xaa;" horiz-adv-x="641" d="M82 1114q0 77 55 117.5t160 40.5h63v4q0 78 -71 78q-34 0 -60.5 -10t-40 -19.5t-14.5 -9.5q-7 0 -12 8l-53 72q-6 10 0 16q2 3 7 8t22.5 17t38 21.5t53.5 17.5t69 8q92 0 145.5 -54t53.5 -161v-178h43q12 0 12 -15v-88q0 -16 -12 -16h-117q-43 0 -43 49v29h-2 q-1 -4 -6 -13t-17 -21.5t-28 -24t-42 -19.5t-55 -8q-69 0 -109 41t-40 110zM231 1139q0 -24 16 -39t42 -15q46 0 71 48v63h-51q-43 1 -60.5 -13t-17.5 -44z" />
<glyph unicode="&#xab;" horiz-adv-x="1101" d="M61 494v51q0 28 31 51l428 330q10 8 20.5 4.5t10.5 -17.5v-151q0 -30 -31 -53l-223 -191l223 -190q31 -23 31 -52v-151q0 -15 -10.5 -19t-20.5 5l-428 329q-12 9 -21.5 25t-9.5 29zM506 494v51q0 28 31 51l430 330q9 8 18.5 4.5t9.5 -17.5v-151q0 -29 -28 -53l-226 -191 l226 -190q28 -24 28 -52v-151q0 -15 -9.5 -19t-18.5 5l-430 329q-12 9 -21.5 25t-9.5 29z" />
<glyph unicode="&#xac;" horiz-adv-x="1169" d="M94 657v152q0 13 9.5 23t21.5 10h891q13 0 22 -9.5t9 -23.5v-492q0 -28 -27 -28h-168q-27 0 -27 28v308h-700q-13 0 -22 9t-9 23z" />
<glyph unicode="&#xad;" horiz-adv-x="876" d="M111 444v191q0 14 8.5 23.5t21.5 9.5h596q12 0 20.5 -9.5t8.5 -23.5v-191q0 -13 -8.5 -21.5t-20.5 -8.5h-596q-13 0 -21.5 8t-8.5 22z" />
<glyph unicode="&#xae;" horiz-adv-x="1230" d="M86 713q0 170 68 309t189.5 219t272.5 80q150 0 272 -80t190.5 -219t68.5 -309t-68.5 -309.5t-190.5 -219.5t-272 -80q-151 0 -272.5 80t-189.5 219.5t-68 309.5zM217 713q0 -207 111 -340t288 -133q175 0 287.5 133.5t112.5 339.5t-112.5 338.5t-287.5 132.5 q-176 0 -287.5 -132.5t-111.5 -338.5zM387 379v113q0 10 10 10h31v440h-31q-10 0 -10 12v113q0 10 10 10h248q94 0 148.5 -58t54.5 -165q0 -153 -117 -195q5 -10 68 -155h61q8 0 8 -10v-115q0 -12 -8 -12h-90q-33 0 -51 45l-92 196q-9 20 -16 28t-17 9h-37v-143h39 q12 0 12 -10v-113q0 -12 -12 -12h-199q-10 0 -10 12zM557 766h82q68 0 68 88t-68 88h-82v-176z" />
<glyph unicode="&#xaf;" horiz-adv-x="733" d="M49 1159v154q0 14 8.5 23.5t22.5 9.5h575q12 0 21.5 -10t9.5 -23v-154q0 -13 -9.5 -23t-21.5 -10h-575q-14 0 -22.5 9.5t-8.5 23.5z" />
<glyph unicode="&#xb0;" horiz-adv-x="458" d="M94 1016q0 69 39 114.5t96 45.5t96.5 -45.5t39.5 -114.5q0 -79 -39 -121.5t-97 -42.5t-96.5 42.5t-38.5 121.5zM184 1016q0 -32 13 -50t32 -18q20 0 33.5 18t13.5 50q0 27 -14 45t-33 18t-32 -18t-13 -45z" />
<glyph unicode="&#xb1;" horiz-adv-x="1005" d="M106 74v188q0 14 9 23.5t22 9.5h731q12 0 21.5 -10t9.5 -23v-188q0 -14 -9.5 -23.5t-21.5 -9.5h-731q-14 0 -22.5 9t-8.5 24zM106 739v189q0 15 9 25t22 10h234v299q0 28 26 28h219q25 0 25 -28v-299h227q12 0 21.5 -10t9.5 -25v-189q0 -13 -9.5 -22.5t-21.5 -9.5h-227 v-285q0 -31 -25 -31h-219q-26 0 -26 31v285h-234q-13 0 -22 9t-9 23z" />
<glyph unicode="&#xb2;" horiz-adv-x="727" d="M104 756v65q2 63 21.5 111.5t49.5 78t65.5 52t71 39.5t65 34.5t47.5 42.5t18 58q0 98 -88 98q-47 0 -73.5 -30.5t-26.5 -83.5q0 -15 -12 -15h-121q-12 0 -12 15q0 109 64.5 184.5t180.5 75.5q123 0 188.5 -67.5t65.5 -162.5q0 -60 -21.5 -106.5t-54 -73t-72.5 -50.5 t-75.5 -41t-64 -44t-37.5 -59h192v61q0 16 14 16h119q15 0 15 -16v-182q0 -17 -15 -17h-487q-17 0 -17 17z" />
<glyph unicode="&#xb3;" horiz-adv-x="667" d="M82 860q-11 11 0 19l86 79q8 8 16 -2q54 -75 140 -75q43 0 69.5 21.5t26.5 64.5q0 84 -94 84h-52q-12 0 -12 14v90q0 14 12 14h33q94 0 94 86q0 36 -19 58t-58 22q-34 0 -55 -21t-21 -57q0 -16 -12 -16h-121q-15 0 -15 16q0 105 57 164.5t169 59.5q62 0 110 -19t74.5 -50 t39.5 -64.5t13 -67.5q0 -32 -9 -60.5t-20 -45.5t-26 -31.5t-22.5 -19l-12.5 -7.5q5 -2 13.5 -6t25.5 -18t31 -32t24.5 -49.5t10.5 -68.5q0 -92 -70 -150.5t-184 -58.5q-44 0 -80.5 8.5t-64.5 27.5t-42 30.5t-35 36.5z" />
<glyph unicode="&#xb4;" horiz-adv-x="612" d="M57 1253q-9 10 -8.5 24t10.5 23l336 332q11 9 23 8t20 -12l117 -137q8 -10 7 -24t-11 -23l-358 -303q-25 -18 -43 6z" />
<glyph unicode="&#xb5;" horiz-adv-x="1107" d="M45 819v160q0 29 27 29h270q41 0 63.5 -24.5t22.5 -70.5v-479q0 -211 121 -211q37 0 65 18.5t41 43.5t19 43t6 26v437h-57q-27 0 -27 28v160q0 29 27 29h301q26 0 26 -29v-762h82q27 0 27 -29v-159q0 -29 -27 -29h-229q-86 0 -86 94v66h-6q-18 -55 -38 -83 q-66 -90 -204 -91q-29 0 -41 2v-422q0 -29 -27 -29h-219q-24 0 -24 29v733q-2 16 -2 47v445h-84q-27 0 -27 28z" />
<glyph unicode="&#xb6;" horiz-adv-x="1452" d="M57 969q0 243 116 372t304 129h830q26 0 26 -28v-189q0 -26 -26 -26h-50v-1358q0 -29 -26 -29h-234q-26 0 -26 29v1358h-119v-1358q0 -29 -25 -29h-233q-27 0 -27 29v614h-71q-202 0 -320.5 121.5t-118.5 364.5z" />
<glyph unicode="&#xb7;" horiz-adv-x="450" d="M102 625q0 53 35.5 90t87.5 37q51 0 87 -37t36 -90q0 -55 -36 -92t-87 -37q-53 0 -88 37t-35 92z" />
<glyph unicode="&#xb8;" horiz-adv-x="446" d="M53 -227l27 41q6 11 19.5 12.5t23.5 -6.5q41 -27 84 -27q49 0 49 41q0 23 -11.5 33t-43.5 10q-34 0 -44.5 7.5t-4.5 29.5l38 125l115 -2l-24 -80q9 0 19 -1t29 -8t33.5 -19t25.5 -36.5t11 -58.5q0 -75 -46.5 -119.5t-121.5 -44.5q-45 0 -87 15t-61.5 28t-21.5 17 q-23 13 -8 43z" />
<glyph unicode="&#xb9;" horiz-adv-x="620" d="M90 1307q-7 7 2 20l178 146q4 4 19 4h123q12 0 12 -17v-581h106q13 0 13 -17v-104q0 -17 -13 -17h-399q-14 0 -14 17v104q0 17 14 17h133v424l-96 -89q-10 -6 -18 5z" />
<glyph unicode="&#xba;" horiz-adv-x="579" d="M74 1227q0 118 63 187t152 69q91 0 153 -69t62 -187q0 -117 -62 -189.5t-153 -72.5q-89 0 -152 72t-63 190zM195 1225q0 -63 27.5 -99t66.5 -36q40 0 67 36t27 99t-28 99t-66 36q-37 0 -65.5 -36.5t-28.5 -98.5z" />
<glyph unicode="&#xbb;" horiz-adv-x="1101" d="M104 125v151q0 25 31 52l225 190l-225 191q-31 27 -31 53v151q0 13 10 17.5t21 -4.5l428 -330q33 -22 33 -51v-51q0 -13 -9.5 -29t-23.5 -25l-428 -329q-11 -8 -21 -4t-10 18zM551 125v151q0 29 31 52l223 190l-223 191q-31 23 -31 53v151q0 14 9.5 18t21.5 -5l426 -330 q30 -20 30 -51v-51q0 -34 -30 -54l-426 -329q-12 -8 -21.5 -4.5t-9.5 18.5z" />
<glyph unicode="&#xbc;" horiz-adv-x="1304" d="M29 1307q-6 10 4 20l178 146q4 4 16 4h123q15 0 15 -17v-581h104q14 0 14 -17v-104q0 -17 -14 -17h-397q-15 0 -15 17v104q0 17 15 17h133v424l-96 -89q-12 -8 -19 5zM340 -123l416 1651q6 28 32 28h148q26 0 20 -28l-415 -1651q-10 -29 -33 -29h-150q-12 0 -17 8t-1 21z M745 240v77q0 19 17 41l272 365q4 12 15 12h129q14 0 14 -14v-369h61q13 0 13 -14v-98q0 -15 -13 -15h-61v-88h59q13 0 13 -14v-107q0 -16 -13 -16h-346q-14 0 -14 16v107q0 14 14 14h127v88h-272q-15 0 -15 15zM889 334h143v205z" />
<glyph unicode="&#xbd;" horiz-adv-x="1404" d="M72 1307q-6 10 4 20l178 146q4 4 18 4h123q13 0 13 -17l2 -581h102q16 0 16 -17v-104q0 -17 -16 -17h-397q-15 0 -15 17v104q0 17 15 17h133v424l-96 -89q-10 -7 -19 5zM369 -123l415 1651q9 28 33 28h152q11 0 16.5 -7.5t1.5 -20.5l-418 -1651q-6 -29 -30 -29h-150 q-26 0 -20 29zM825 16v66q1 63 20.5 111.5t49 78t65 52t71 39.5t65 34.5t47.5 42.5t18 58q0 98 -88 98q-48 0 -73 -30.5t-25 -84.5q0 -14 -14 -14h-121q-13 0 -13 14q0 109 65 184.5t181 75.5q123 0 188.5 -67t65.5 -162q0 -52 -16 -93.5t-42 -68.5t-58 -48.5t-66 -39 t-63 -34t-52 -40t-31 -51.5h195v62q0 16 14 16h119q14 0 14 -16v-183q0 -16 -14 -16h-487q-15 0 -15 16z" />
<glyph unicode="&#xbe;" horiz-adv-x="1363" d="M23 860q-11 11 0 19l86 79q8 8 16 -2q54 -75 139 -75q43 0 69.5 21.5t26.5 64.5q0 84 -94 84h-51q-12 0 -12 14v90q0 14 12 14h33q94 0 94 86q0 36 -19.5 58t-58.5 22q-34 0 -55 -21t-21 -57q0 -16 -12 -16h-121q-14 0 -14 16q0 105 57 164.5t168 59.5q62 0 110 -19 t74.5 -50t40 -64.5t13.5 -67.5q0 -32 -9 -60.5t-20 -45.5t-26 -31.5t-22.5 -19l-12.5 -7.5q5 -2 13.5 -6t25.5 -18t30.5 -32t24 -49.5t10.5 -68.5q0 -92 -70 -150.5t-184 -58.5q-44 0 -80.5 9t-64 27.5t-41.5 30t-34 35.5t-21 25zM395 -123l418 1651q6 28 33 28h147 q27 0 21 -28l-416 -1651q-6 -29 -33 -29h-151q-11 0 -16.5 8t-2.5 21zM803 240v77q0 20 16 41l273 365q4 12 14 12h129q14 0 14 -14v-369h62q12 0 12 -14v-98q0 -15 -12 -15h-62v-88h60q12 0 12 -14v-107q0 -16 -12 -16h-346q-15 0 -15 16v107q0 14 15 14h129v88h-275 q-14 0 -14 15zM946 334h146v205z" />
<glyph unicode="&#xbf;" horiz-adv-x="1024" d="M51 -201q0 83 21.5 151t56.5 114t76.5 86t83.5 77t77 76.5t56.5 95.5t21.5 123q0 29 25 29h221q25 0 25 -29q0 -78 -12.5 -145t-33.5 -115t-48 -88.5t-57 -71t-60.5 -58t-57.5 -53.5t-48 -52.5t-33.5 -60.5t-12.5 -73q0 -95 42.5 -150.5t119.5 -55.5q96 0 137 73t43 209 q0 29 25 29h229q27 0 27 -29q0 -92 -14.5 -170t-49 -147.5t-87.5 -118t-133.5 -76.5t-182.5 -28q-114 0 -203.5 37.5t-143.5 102.5t-82 145.5t-28 172.5zM399 864q0 71 49.5 121.5t118.5 50.5q70 0 119 -50.5t49 -121.5t-49 -120.5t-119 -49.5q-69 0 -118.5 50t-49.5 120z " />
<glyph unicode="&#xc0;" horiz-adv-x="1310" d="M2 29v180q0 29 27 29h116l308 995h-129q-27 0 -27 29v180q0 28 27 28h376q59 0 88.5 -25t53.5 -91l356 -1116h115q26 0 26 -29v-180q0 -29 -26 -29h-510q-11 0 -19 8t-8 21v180q0 29 27 29h115l-60 225h-375l-61 -225h117q26 0 26 -29v-180q0 -13 -7.5 -21t-18.5 -8h-510 q-27 0 -27 29zM319 1956l119 135q8 11 21 13t22 -7l336 -332q11 -9 12 -22.5t-8 -24.5l-92 -108q-9 -11 -21.5 -12t-23.5 8l-360 303q-18 21 -5 47zM535 666h272l-131 442h-12z" />
<glyph unicode="&#xc1;" horiz-adv-x="1310" d="M2 29v180q0 29 27 29h116l308 995h-129q-27 0 -27 29v180q0 28 27 28h376q59 0 88.5 -25t53.5 -91l356 -1116h115q26 0 26 -29v-180q0 -29 -26 -29h-510q-11 0 -19 8t-8 21v180q0 29 27 29h115l-60 225h-375l-61 -225h117q26 0 26 -29v-180q0 -13 -7.5 -21t-18.5 -8h-510 q-27 0 -27 29zM535 666h272l-131 442h-12zM557 1716q-9 10 -8.5 24t10.5 23l336 332q11 9 23 8t20 -12l117 -137q8 -10 7 -24t-11 -23l-359 -303q-25 -18 -43 6z" />
<glyph unicode="&#xc2;" horiz-adv-x="1310" d="M2 29v180q0 29 27 29h116l308 995h-129q-27 0 -27 29v180q0 28 27 28h376q59 0 88.5 -25t53.5 -91l356 -1116h115q26 0 26 -29v-180q0 -29 -26 -29h-510q-11 0 -19 8t-8 21v180q0 29 27 29h115l-60 225h-375l-61 -225h117q26 0 26 -29v-180q0 -13 -7.5 -21t-18.5 -8h-510 q-27 0 -27 29zM315 1716q-6 10 -5.5 24t9.5 23l314 310q5 8 18 8t25 -10l307 -308q9 -9 10 -22.5t-6 -24.5l-90 -104q-20 -23 -45 -4l-201 211l-200 -211q-9 -9 -21.5 -8t-21.5 12zM535 666h272l-131 442h-12z" />
<glyph unicode="&#xc3;" horiz-adv-x="1310" d="M2 29v180q0 29 27 29h116l308 995h-129q-27 0 -27 29v180q0 28 27 28h376q59 0 88.5 -25t53.5 -91l356 -1116h115q26 0 26 -29v-180q0 -29 -26 -29h-510q-11 0 -19 8t-8 21v180q0 29 27 29h115l-60 225h-375l-61 -225h117q26 0 26 -29v-180q0 -13 -7.5 -21t-18.5 -8h-510 q-27 0 -27 29zM301 1612q0 127 50.5 200.5t150.5 73.5q42 0 77.5 -13t59 -32t44.5 -37.5t43.5 -32t45.5 -14.5q32 0 48 27t16 98q0 29 26 29h99q24 0 24 -29q0 -133 -51 -208t-152 -75q-42 0 -77.5 12.5t-59 30.5t-44.5 36.5t-43.5 31t-45.5 12.5q-31 0 -47 -23t-16 -87 q0 -29 -25 -29h-98q-25 0 -25 29zM535 666h272l-131 442h-12z" />
<glyph unicode="&#xc4;" horiz-adv-x="1310" d="M2 29v180q0 29 27 29h116l308 995h-129q-27 0 -27 29v180q0 28 27 28h376q59 0 88.5 -25t53.5 -91l356 -1116h115q26 0 26 -29v-180q0 -29 -26 -29h-510q-11 0 -19 8t-8 21v180q0 29 27 29h115l-60 225h-375l-61 -225h117q26 0 26 -29v-180q0 -13 -7.5 -21t-18.5 -8h-510 q-27 0 -27 29zM354 1722q0 53 35 90t86 37t86 -37t35 -90t-35 -89t-86 -36t-86 36t-35 89zM535 666h272l-131 442h-12zM711 1722q0 53 34.5 90t85.5 37q50 0 85.5 -37.5t35.5 -89.5t-35.5 -88.5t-85.5 -36.5q-51 0 -85.5 36t-34.5 89z" />
<glyph unicode="&#xc5;" horiz-adv-x="1310" d="M2 29v180q0 29 27 29h116l308 995h-129q-27 0 -27 29v180q0 28 27 28h376q59 0 88.5 -25t53.5 -91l356 -1116h115q26 0 26 -29v-180q0 -29 -26 -29h-510q-11 0 -19 8t-8 21v180q0 29 27 29h115l-60 225h-375l-61 -225h117q26 0 26 -29v-180q0 -13 -7.5 -21t-18.5 -8h-510 q-27 0 -27 29zM535 666h272l-131 442h-12zM539 1757q0 53 35 91t83 38q53 0 86 -37t33 -92q0 -54 -33 -91.5t-86 -37.5t-85.5 37.5t-32.5 91.5zM618 1757q0 -21 10.5 -35t28.5 -14t28.5 14t10.5 35t-10.5 35t-28.5 14t-28.5 -14t-10.5 -35z" />
<glyph unicode="&#xc6;" horiz-adv-x="1875" d="M-6 29v180q0 29 24 29h117l316 995h-127q-11 0 -19 8t-8 21v180q0 28 27 28h1443q25 0 25 -28v-406q0 -28 -25 -28h-206q-27 0 -27 28v197h-381v-377h311q27 0 27 -29v-180q0 -29 -27 -29h-311v-380h379v196q0 29 27 29h208q25 0 25 -29v-405q0 -13 -7 -21t-18 -8h-1009 q-27 0 -27 29v180q0 29 27 29h119v380h-357l-106 -380h116q25 0 25 -29v-180q0 -13 -7 -21t-18 -8h-512q-24 0 -24 29zM612 856h265v377h-152z" />
<glyph unicode="&#xc7;" horiz-adv-x="1363" d="M70 743q0 141 34 262.5t92.5 208t136.5 148t168 91.5t185 30q66 0 122.5 -16t91 -36.5t63.5 -49t40.5 -45t20.5 -33.5l-4 139q0 28 27 28h198q27 0 27 -28v-488q0 -28 -27 -28h-229q-27 0 -27 28v19q0 36 -19.5 77.5t-53.5 79.5t-89.5 63.5t-119.5 25.5 q-148 0 -243 -126.5t-95 -355.5q0 -113 30.5 -206.5t81 -154t114.5 -93.5t134 -33q52 0 99 11t80.5 27t64.5 41.5t49.5 45t37 48t24.5 40t16 31.5q12 24 35 10l161 -107q18 -15 7 -43q-5 -14 -13.5 -33.5t-30 -55t-49 -69.5t-72.5 -71.5t-97.5 -65.5t-126.5 -48t-158 -23 l-8 -31q9 0 19 -1t29 -8t33.5 -19t25.5 -36.5t11 -58.5q0 -75 -46.5 -119.5t-121.5 -44.5q-45 0 -87 15t-61.5 28t-21.5 17q-23 13 -8 43l27 41q6 11 19.5 12.5t23.5 -6.5q40 -27 84 -27q49 0 49 41q0 23 -11.5 33t-43.5 10q-34 0 -45 8t-5 29l23 78q-256 28 -413.5 228 t-157.5 523z" />
<glyph unicode="&#xc8;" horiz-adv-x="1243" d="M78 29v180q0 29 26 29h119v995h-119q-11 0 -18.5 8t-7.5 21v180q0 28 26 28h1014q25 0 25 -28v-406q0 -28 -25 -28h-211q-24 0 -24 28v197h-381v-377h311q25 0 25 -29v-180q0 -29 -25 -29h-311v-380h379v196q0 29 26 29h209q27 0 27 -29v-405q0 -13 -8 -21t-19 -8h-1012 q-11 0 -18.5 8t-7.5 21zM297 1956l119 135q8 11 21 13t22 -7l336 -332q11 -9 12 -22.5t-8 -24.5l-92 -108q-9 -11 -21.5 -12t-23.5 8l-361 303q-17 21 -4 47z" />
<glyph unicode="&#xc9;" horiz-adv-x="1243" d="M78 29v180q0 29 26 29h119v995h-119q-11 0 -18.5 8t-7.5 21v180q0 28 26 28h1014q25 0 25 -28v-406q0 -28 -25 -28h-211q-24 0 -24 28v197h-381v-377h311q25 0 25 -29v-180q0 -29 -25 -29h-311v-380h379v196q0 29 26 29h209q27 0 27 -29v-405q0 -13 -8 -21t-19 -8h-1012 q-11 0 -18.5 8t-7.5 21zM473 1716q-9 10 -8.5 24t10.5 23l336 332q11 9 23 8t20 -12l117 -137q8 -10 7 -24t-11 -23l-359 -303q-25 -18 -43 6z" />
<glyph unicode="&#xca;" horiz-adv-x="1243" d="M78 29v180q0 29 26 29h119v995h-119q-11 0 -18.5 8t-7.5 21v180q0 28 26 28h1014q25 0 25 -28v-406q0 -28 -25 -28h-211q-24 0 -24 28v197h-381v-377h311q25 0 25 -29v-180q0 -29 -25 -29h-311v-380h379v196q0 29 26 29h209q27 0 27 -29v-405q0 -13 -8 -21t-19 -8h-1012 q-11 0 -18.5 8t-7.5 21zM246 1716q-6 10 -5.5 24t9.5 23l313 310q5 8 19 8q12 0 24 -10l307 -308q9 -9 10.5 -22.5t-5.5 -24.5l-91 -104q-20 -23 -45 -4l-200 211l-201 -211q-9 -9 -21.5 -8t-21.5 12z" />
<glyph unicode="&#xcb;" horiz-adv-x="1243" d="M78 29v180q0 29 26 29h119v995h-119q-11 0 -18.5 8t-7.5 21v180q0 28 26 28h1014q25 0 25 -28v-406q0 -28 -25 -28h-211q-24 0 -24 28v197h-381v-377h311q25 0 25 -29v-180q0 -29 -25 -29h-311v-380h379v196q0 29 26 29h209q27 0 27 -29v-405q0 -13 -8 -21t-19 -8h-1012 q-11 0 -18.5 8t-7.5 21zM356 1722q0 53 35 90t86 37t86 -37t35 -90t-35 -89t-86 -36t-86 36t-35 89zM713 1722q0 53 35 90t86 37q50 0 85 -37.5t35 -89.5t-35 -88.5t-85 -36.5q-51 0 -86 36t-35 89z" />
<glyph unicode="&#xcc;" horiz-adv-x="727" d="M4 1937l119 136q8 11 21 13t22 -7l336 -332q11 -9 12 -22.5t-8 -24.5l-92 -109q-9 -11 -21.5 -12t-23.5 8l-361 303q-17 21 -4 47zM76 29v180q0 29 26 29h119v995h-119q-11 0 -18.5 8t-7.5 21v180q0 28 26 28h516q25 0 25 -28v-180q0 -29 -25 -29h-118v-995h118 q25 0 25 -29v-180q0 -29 -25 -29h-516q-11 0 -18.5 8t-7.5 21z" />
<glyph unicode="&#xcd;" horiz-adv-x="727" d="M78 29v180q0 29 26 29h119v995h-119q-11 0 -18.5 8t-7.5 21v180q0 28 26 28h517q24 0 24 -28v-180q0 -29 -24 -29h-119v-995h119q24 0 24 -29v-180q0 -29 -24 -29h-517q-11 0 -18.5 8t-7.5 21zM254 1696q-9 10 -8.5 24t10.5 23l336 332q11 9 23 8t20 -12l117 -138 q8 -10 7 -24t-11 -23l-359 -303q-25 -18 -43 6z" />
<glyph unicode="&#xce;" horiz-adv-x="727" d="M39 1716q-6 10 -5.5 24t9.5 23l313 310q5 8 19 8q12 0 24 -10l308 -308q9 -9 10 -22.5t-6 -24.5l-90 -104q-20 -23 -46 -4l-200 211l-201 -211q-9 -9 -21.5 -8t-21.5 12zM78 29v180q0 29 26 29h119v995h-119q-11 0 -18.5 8t-7.5 21v180q0 28 26 28h517q24 0 24 -28v-180 q0 -29 -24 -29h-119v-995h119q24 0 24 -29v-180q0 -29 -24 -29h-517q-11 0 -18.5 8t-7.5 21z" />
<glyph unicode="&#xcf;" horiz-adv-x="727" d="M78 29v180q0 29 26 29h119v995h-119q-11 0 -18.5 8t-7.5 21v180q0 28 26 28h517q24 0 24 -28v-180q0 -29 -24 -29h-119v-995h119q24 0 24 -29v-180q0 -29 -24 -29h-517q-11 0 -18.5 8t-7.5 21zM78 1722q0 53 35 90t86 37t85.5 -37t34.5 -90t-34.5 -89t-85.5 -36t-86 36 t-35 89zM434 1722q0 53 35 90t86 37q50 0 85.5 -37.5t35.5 -89.5t-35.5 -88.5t-85.5 -36.5q-51 0 -86 36t-35 89z" />
<glyph unicode="&#xd0;" horiz-adv-x="1325" d="M78 29v180q0 29 26 29h119v378h-110q-13 0 -22 9.5t-9 23.5v152q0 15 9 25t22 10h110v397h-119q-11 0 -18.5 8t-7.5 21v180q0 28 26 28h469q145 0 269.5 -49.5t217 -142.5t145 -235t52.5 -318q0 -166 -47 -304t-128 -229.5t-190 -141.5t-233 -50h-555q-11 0 -18.5 8 t-7.5 21zM502 238h71q186 2 283.5 116.5t97.5 366.5q0 250 -103 381t-284 131h-65v-397h180q12 0 21.5 -10t9.5 -25v-152q0 -13 -9.5 -23t-21.5 -10h-180v-378z" />
<glyph unicode="&#xd1;" horiz-adv-x="1441" d="M78 29v180q0 29 26 29h119v989h-119q-26 0 -26 26v189q0 28 26 28h322q31 0 55.5 -15.5t35.5 -31t32 -49.5l317 -674q23 -43 47 -97t37 -87l13 -33h6v750h-113q-25 0 -25 29v180q0 28 25 28h508q29 0 29 -28v-180q0 -29 -29 -29h-117v-1204q0 -29 -26 -29h-187 q-42 0 -68 20.5t-53 63.5l-342 704q-16 31 -32 70t-25 62l-8 24h-4v-706h112q25 0 25 -29v-180q0 -29 -25 -29h-510q-11 0 -18.5 8t-7.5 21zM393 1612q0 127 50.5 200.5t150.5 73.5q42 0 77.5 -13t59 -32t44.5 -37.5t43.5 -32t45.5 -14.5q32 0 48 27t16 98q0 29 26 29h99 q24 0 24 -29q0 -133 -51 -208t-152 -75q-42 0 -77.5 12.5t-59 30.5t-44.5 36.5t-43.5 31t-45.5 12.5q-31 0 -47 -23t-16 -87q0 -29 -25 -29h-98q-25 0 -25 29z" />
<glyph unicode="&#xd2;" d="M68 743q0 175 56 319t148 234t205.5 138.5t233.5 48.5q96 0 189 -30t176 -91.5t145.5 -148t99.5 -208t37 -262.5q0 -172 -50 -315t-136.5 -239.5t-205.5 -149.5t-255 -53q-134 0 -252.5 56t-204.5 154.5t-136 240.5t-50 306zM336 1956l119 135q8 11 21 13t22 -7l336 -332 q11 -9 12 -22.5t-8 -24.5l-93 -108q-9 -11 -21.5 -12t-23.5 8l-360 303q-17 21 -4 47zM367 737q0 -218 98.5 -353.5t245.5 -135.5q149 0 247.5 135.5t98.5 353.5q0 225 -99.5 354.5t-246.5 129.5t-245.5 -129.5t-98.5 -354.5z" />
<glyph unicode="&#xd3;" d="M68 743q0 175 56 319t148 234t205.5 138.5t233.5 48.5q96 0 189 -30t176 -91.5t145.5 -148t99.5 -208t37 -262.5q0 -172 -50 -315t-136.5 -239.5t-205.5 -149.5t-255 -53q-134 0 -252.5 56t-204.5 154.5t-136 240.5t-50 306zM367 737q0 -218 98.5 -353.5t245.5 -135.5 q149 0 247.5 135.5t98.5 353.5q0 225 -99.5 354.5t-246.5 129.5t-245.5 -129.5t-98.5 -354.5zM457 1716q-9 10 -8.5 24t10.5 23l336 332q11 9 23 8t20 -12l116 -137q8 -10 7 -24t-11 -23l-358 -303q-25 -18 -43 6z" />
<glyph unicode="&#xd4;" d="M68 743q0 175 56 319t148 234t205.5 138.5t233.5 48.5q96 0 189 -30t176 -91.5t145.5 -148t99.5 -208t37 -262.5q0 -172 -50 -315t-136.5 -239.5t-205.5 -149.5t-255 -53q-134 0 -252.5 56t-204.5 154.5t-136 240.5t-50 306zM367 737q0 -218 98.5 -353.5t245.5 -135.5 q149 0 247.5 135.5t98.5 353.5q0 225 -99.5 354.5t-246.5 129.5t-245.5 -129.5t-98.5 -354.5zM381 1716q-6 10 -5.5 24t9.5 23l313 310q5 8 19 8q11 0 24 -10l308 -308q9 -9 10 -22.5t-6 -24.5l-90 -104q-20 -23 -45 -4l-201 211l-201 -211q-9 -9 -21.5 -8t-21.5 12z" />
<glyph unicode="&#xd5;" d="M68 743q0 175 56 319t148 234t205.5 138.5t233.5 48.5q96 0 189 -30t176 -91.5t145.5 -148t99.5 -208t37 -262.5q0 -172 -50 -315t-136.5 -239.5t-205.5 -149.5t-255 -53q-134 0 -252.5 56t-204.5 154.5t-136 240.5t-50 306zM367 737q0 -218 98.5 -353.5t245.5 -135.5 q149 0 247.5 135.5t98.5 353.5q0 225 -99.5 354.5t-246.5 129.5t-245.5 -129.5t-98.5 -354.5zM410 1612q0 128 50 201t150 73q42 0 77.5 -13t59.5 -32t44.5 -37.5t43.5 -32t46 -14.5q32 0 47.5 27t15.5 98q0 29 27 29h98q25 0 25 -29q0 -133 -51 -208t-152 -75 q-42 0 -77.5 12.5t-59 30.5t-44.5 36.5t-43.5 31t-45.5 12.5q-31 0 -47.5 -23t-16.5 -87q0 -29 -25 -29h-98q-24 0 -24 29z" />
<glyph unicode="&#xd6;" d="M68 743q0 175 56 319t148 234t205.5 138.5t233.5 48.5q96 0 189 -30t176 -91.5t145.5 -148t99.5 -208t37 -262.5q0 -172 -50 -315t-136.5 -239.5t-205.5 -149.5t-255 -53q-134 0 -252.5 56t-204.5 154.5t-136 240.5t-50 306zM367 737q0 -218 98.5 -353.5t245.5 -135.5 q149 0 247.5 135.5t98.5 353.5q0 225 -99.5 354.5t-246.5 129.5t-245.5 -129.5t-98.5 -354.5zM422 1722q0 53 35 90t86 37t86 -37t35 -90t-35 -89t-86 -36t-86 36t-35 89zM778 1722q0 53 35 90t86 37q50 0 85.5 -37.5t35.5 -89.5t-35.5 -88.5t-85.5 -36.5q-51 0 -86 36 t-35 89z" />
<glyph unicode="&#xd7;" horiz-adv-x="894" d="M109 397l172 205l-172 205q-12 15 4 31l161 135q18 15 31 -2l141 -170l144 170q13 17 31 2l161 -135q16 -16 4 -31l-172 -205l172 -205q12 -12 -4 -28l-161 -136q-19 -16 -29 0l-146 170l-143 -170q-10 -16 -29 0l-161 136q-16 16 -4 28z" />
<glyph unicode="&#xd8;" d="M68 743q0 175 56 319t148 234t205.5 138.5t233.5 48.5q44 0 106 -10l25 96q6 28 30 28h119q30 0 19 -28l-37 -146q171 -82 278 -257t107 -423q0 -172 -50 -315t-136.5 -239.5t-205.5 -149.5t-255 -53q-56 0 -97 8l-18 -76q-10 -29 -35 -29h-119q-24 0 -18 29l31 123 q-176 85 -281.5 271t-105.5 431zM369 737q0 -139 41.5 -248t113.5 -172l228 900q-24 4 -41 4q-147 0 -244.5 -129t-97.5 -355zM678 250h33q149 0 247.5 134.5t98.5 352.5q0 140 -41 245.5t-113 166.5z" />
<glyph unicode="&#xd9;" horiz-adv-x="1349" d="M27 1262v180q0 28 26 28h504q27 0 27 -28v-180q0 -29 -27 -29h-106v-690q0 -293 227 -293q106 0 163.5 78.5t57.5 201.5v703h-106q-11 0 -19 8t-8 21v180q0 28 27 28h503q27 0 27 -28v-180q0 -29 -27 -29h-118v-684q0 -274 -135 -418.5t-365 -144.5q-231 0 -368.5 144.5 t-137.5 418.5v684h-119q-26 0 -26 29zM432 1956l119 135q8 11 21 13t22 -7l336 -332q11 -9 12 -22.5t-8 -24.5l-92 -108q-9 -11 -21.5 -12t-23.5 8l-361 303q-17 21 -4 47z" />
<glyph unicode="&#xda;" horiz-adv-x="1349" d="M27 1262v180q0 28 26 28h504q27 0 27 -28v-180q0 -29 -27 -29h-106v-690q0 -293 227 -293q106 0 163.5 78.5t57.5 201.5v703h-106q-11 0 -19 8t-8 21v180q0 28 27 28h503q27 0 27 -28v-180q0 -29 -27 -29h-118v-684q0 -274 -135 -418.5t-365 -144.5q-231 0 -368.5 144.5 t-137.5 418.5v684h-119q-26 0 -26 29zM481 1716q-9 10 -8.5 24t10.5 23l336 332q11 9 23 8t20 -12l117 -137q8 -10 7 -24t-11 -23l-359 -303q-25 -18 -43 6z" />
<glyph unicode="&#xdb;" horiz-adv-x="1349" d="M27 1262v180q0 28 26 28h504q27 0 27 -28v-180q0 -29 -27 -29h-106v-690q0 -293 227 -293q106 0 163.5 78.5t57.5 201.5v703h-106q-11 0 -19 8t-8 21v180q0 28 27 28h503q27 0 27 -28v-180q0 -29 -27 -29h-118v-684q0 -274 -135 -418.5t-365 -144.5q-231 0 -368.5 144.5 t-137.5 418.5v684h-119q-26 0 -26 29zM344 1716q-6 10 -5.5 24t9.5 23l314 310q5 8 18 8q12 0 25 -10l307 -308q9 -9 10 -22.5t-6 -24.5l-90 -104q-20 -23 -45 -4l-201 211l-201 -211q-9 -9 -21.5 -8t-21.5 12z" />
<glyph unicode="&#xdc;" horiz-adv-x="1349" d="M27 1262v180q0 28 26 28h504q27 0 27 -28v-180q0 -29 -27 -29h-106v-690q0 -293 227 -293q106 0 163.5 78.5t57.5 201.5v703h-106q-11 0 -19 8t-8 21v180q0 28 27 28h503q27 0 27 -28v-180q0 -29 -27 -29h-118v-684q0 -274 -135 -418.5t-365 -144.5q-231 0 -368.5 144.5 t-137.5 418.5v684h-119q-26 0 -26 29zM371 1722q0 53 35 90t86 37t85.5 -37t34.5 -90t-34.5 -89t-85.5 -36t-86 36t-35 89zM727 1722q0 53 35 90t86 37q50 0 85.5 -37.5t35.5 -89.5t-35.5 -88.5t-85.5 -36.5q-51 0 -86 36t-35 89z" />
<glyph unicode="&#xdd;" horiz-adv-x="1265" d="M-16 1262v180q0 28 26 28h525q11 0 18.5 -7.5t7.5 -20.5v-180q0 -29 -26 -29h-82l186 -426h8l180 426h-90q-26 0 -26 29v180q0 13 7.5 20.5t18.5 7.5h520q27 0 27 -28v-180q0 -29 -27 -29h-118l-369 -664v-331h125q27 0 27 -29v-180q0 -13 -8 -21t-19 -8h-526 q-27 0 -27 29v180q0 29 27 29h123v331l-363 664h-119q-26 0 -26 29zM371 1716q-9 10 -8.5 24t10.5 23l336 332q11 9 23 8t20 -12l116 -137q8 -10 7 -24t-11 -23l-358 -303q-25 -18 -43 6z" />
<glyph unicode="&#xde;" horiz-adv-x="1138" d="M94 29v161q0 29 25 29h90v1032h-80q-27 0 -27 29v162q0 28 27 28h317q27 0 27 -28v-246h182q209 0 327 -116t118 -328q0 -210 -119 -318t-348 -108h-174v-107h137q27 0 27 -29v-161q0 -29 -27 -29h-477q-11 0 -18 8t-7 21zM463 545h176q81 0 130.5 52t49.5 155 t-50.5 154.5t-129.5 51.5h-176v-413z" />
<glyph unicode="&#xdf;" horiz-adv-x="1298" d="M45 29v161q0 29 27 29h84v754q0 238 124.5 374t327.5 136q97 0 173 -26t120.5 -70t67 -95t22.5 -106q0 -63 -21 -113.5t-50.5 -82.5t-59.5 -59.5t-51 -59t-21 -66.5q0 -36 27 -64.5t69.5 -49.5t94.5 -42.5t104 -51t94.5 -68t69.5 -101.5t27 -143q0 -123 -95 -213 t-259 -90q-55 0 -103.5 12t-83.5 30.5t-66.5 46.5t-50.5 52.5t-37 56.5t-26 51t-17 43.5t-10 26.5q-10 25 15 39l121 53q25 12 36 -10q2 -3 10 -27.5t19 -49t29 -51.5t46.5 -43.5t63.5 -16.5q51 0 83 28.5t32 77.5q0 43 -24 75.5t-62.5 53.5t-85 40.5t-93 44t-85 57 t-62.5 86t-24 124.5q0 54 17.5 98t42 72t49 53t42 56.5t17.5 68.5q0 46 -34 80.5t-95 34.5q-66 0 -112 -65t-46 -207v-754h66q26 0 26 -29v-161q0 -29 -26 -29h-420q-27 0 -27 29z" />
<glyph unicode="&#xe0;" horiz-adv-x="1009" d="M47 281q0 152 114 230.5t335 78.5h114v16q0 93 -39 134.5t-122 41.5q-54 0 -98 -11t-65.5 -24.5t-39.5 -24.5t-27 -11q-14 0 -22 10l-105 131q-13 20 2 35q2 3 16 15.5t47 33.5t75.5 39.5t109 32.5t139.5 14q89 0 160 -23.5t126.5 -72t85.5 -131.5t30 -195v-383h82 q26 0 26 -29v-159q0 -29 -26 -29h-230q-86 0 -86 94v80h-2q-7 -15 -12 -24t-22.5 -36t-39.5 -46t-53.5 -41t-74.5 -33.5t-93 -11.5q-141 0 -223 81.5t-82 217.5zM207 1493l119 135q8 11 21 13t22 -7l336 -331q11 -9 12 -23t-8 -25l-93 -108q-9 -11 -21.5 -12t-23.5 8 l-360 303q-17 21 -4 47zM332 317q0 -50 29.5 -77t76.5 -27q19 0 37 4.5t32 10t27.5 16t22 18.5t19 21t15 19t11.5 17.5t8 12.5v104h-100q-89 0 -133.5 -28.5t-44.5 -90.5z" />
<glyph unicode="&#xe1;" horiz-adv-x="1009" d="M47 281q0 152 114 230.5t335 78.5h114v16q0 93 -39 134.5t-122 41.5q-54 0 -98 -11t-65.5 -24.5t-39.5 -24.5t-27 -11q-14 0 -22 10l-105 131q-13 20 2 35q2 3 16 15.5t47 33.5t75.5 39.5t109 32.5t139.5 14q89 0 160 -23.5t126.5 -72t85.5 -131.5t30 -195v-383h82 q26 0 26 -29v-159q0 -29 -26 -29h-230q-86 0 -86 94v80h-2q-7 -15 -12 -24t-22.5 -36t-39.5 -46t-53.5 -41t-74.5 -33.5t-93 -11.5q-141 0 -223 81.5t-82 217.5zM324 1253q-9 10 -8.5 24t10.5 23l336 332q11 9 23 8t20 -12l116 -137q8 -10 7 -24t-11 -23l-358 -303 q-25 -18 -43 6zM332 317q0 -50 29.5 -77t76.5 -27q19 0 37 4.5t32 10t27.5 16t22 18.5t19 21t15 19t11.5 17.5t8 12.5v104h-100q-89 0 -133.5 -28.5t-44.5 -90.5z" />
<glyph unicode="&#xe2;" horiz-adv-x="1009" d="M47 281q0 152 114 230.5t335 78.5h114v16q0 93 -39 134.5t-122 41.5q-54 0 -98 -11t-65.5 -24.5t-39.5 -24.5t-27 -11q-14 0 -22 10l-105 131q-13 20 2 35q2 3 16 15.5t47 33.5t75.5 39.5t109 32.5t139.5 14q89 0 160 -23.5t126.5 -72t85.5 -131.5t30 -195v-383h82 q26 0 26 -29v-159q0 -29 -26 -29h-230q-86 0 -86 94v80h-2q-7 -15 -12 -24t-22.5 -36t-39.5 -46t-53.5 -41t-74.5 -33.5t-93 -11.5q-141 0 -223 81.5t-82 217.5zM201 1253q-6 10 -5.5 24t9.5 23l313 310q5 8 19 8q11 0 24 -10l307 -308q9 -9 10 -22.5t-6 -24.5l-90 -104 q-20 -23 -45 -4l-200 211l-201 -211q-9 -9 -21.5 -8t-21.5 12zM332 317q0 -50 29.5 -77t76.5 -27q19 0 37 4.5t32 10t27.5 16t22 18.5t19 21t15 19t11.5 17.5t8 12.5v104h-100q-89 0 -133.5 -28.5t-44.5 -90.5z" />
<glyph unicode="&#xe3;" horiz-adv-x="1009" d="M47 281q0 152 114 230.5t335 78.5h114v16q0 93 -39 134.5t-122 41.5q-54 0 -98 -11t-65.5 -24.5t-39.5 -24.5t-27 -11q-14 0 -22 10l-105 131q-13 20 2 35q2 3 16 15.5t47 33.5t75.5 39.5t109 32.5t139.5 14q89 0 160 -23.5t126.5 -72t85.5 -131.5t30 -195v-383h82 q26 0 26 -29v-159q0 -29 -26 -29h-230q-86 0 -86 94v80h-2q-7 -15 -12 -24t-22.5 -36t-39.5 -46t-53.5 -41t-74.5 -33.5t-93 -11.5q-141 0 -223 81.5t-82 217.5zM205 1149q0 127 50.5 200.5t150.5 73.5q42 0 77.5 -13t59 -32t44.5 -37.5t43.5 -32t45.5 -14.5q32 0 47.5 27 t15.5 98q0 29 27 29h98q25 0 25 -29q0 -133 -50.5 -207.5t-152.5 -74.5q-42 0 -77.5 12.5t-59 30.5t-44.5 36.5t-43.5 31t-45.5 12.5q-31 0 -47.5 -23.5t-16.5 -87.5q0 -29 -24 -29h-99q-24 0 -24 29zM332 317q0 -50 29.5 -77t76.5 -27q19 0 37 4.5t32 10t27.5 16t22 18.5 t19 21t15 19t11.5 17.5t8 12.5v104h-100q-89 0 -133.5 -28.5t-44.5 -90.5z" />
<glyph unicode="&#xe4;" horiz-adv-x="1009" d="M47 281q0 152 114 230.5t335 78.5h114v16q0 93 -39 134.5t-122 41.5q-54 0 -98 -11t-65.5 -24.5t-39.5 -24.5t-27 -11q-14 0 -22 10l-105 131q-13 20 2 35q2 3 16 15.5t47 33.5t75.5 39.5t109 32.5t139.5 14q89 0 160 -23.5t126.5 -72t85.5 -131.5t30 -195v-383h82 q26 0 26 -29v-159q0 -29 -26 -29h-230q-86 0 -86 94v80h-2q-7 -15 -12 -24t-22.5 -36t-39.5 -46t-53.5 -41t-74.5 -33.5t-93 -11.5q-141 0 -223 81.5t-82 217.5zM236 1260q0 53 34.5 89.5t85.5 36.5t86 -36.5t35 -89.5t-35 -89t-86 -36t-85.5 36t-34.5 89zM332 317 q0 -50 29.5 -77t76.5 -27q19 0 37 4.5t32 10t27.5 16t22 18.5t19 21t15 19t11.5 17.5t8 12.5v104h-100q-89 0 -133.5 -28.5t-44.5 -90.5zM592 1260q0 53 35 89.5t86 36.5q50 0 85.5 -37t35.5 -89t-35.5 -88.5t-85.5 -36.5q-51 0 -86 36t-35 89z" />
<glyph unicode="&#xe5;" horiz-adv-x="1009" d="M47 281q0 152 114 230.5t335 78.5h114v16q0 93 -39 134.5t-122 41.5q-54 0 -98 -11t-65.5 -24.5t-39.5 -24.5t-27 -11q-14 0 -22 10l-105 131q-13 20 2 35q2 3 16 15.5t47 33.5t75.5 39.5t109 32.5t139.5 14q89 0 160 -23.5t126.5 -72t85.5 -131.5t30 -195v-383h82 q26 0 26 -29v-159q0 -29 -26 -29h-230q-86 0 -86 94v80h-2q-7 -15 -12 -24t-22.5 -36t-39.5 -46t-53.5 -41t-74.5 -33.5t-93 -11.5q-141 0 -223 81.5t-82 217.5zM332 317q0 -50 29.5 -77t76.5 -27q19 0 37 4.5t32 10t27.5 16t22 18.5t19 21t15 19t11.5 17.5t8 12.5v104h-100 q-89 0 -133.5 -28.5t-44.5 -90.5zM403 1294q0 53 35.5 91t83.5 38q53 0 86 -37t33 -92q0 -54 -33 -91.5t-86 -37.5t-86 37.5t-33 91.5zM483 1294q0 -21 10.5 -35t28.5 -14t28.5 14t10.5 35t-10.5 35t-28.5 14t-28.5 -14t-10.5 -35z" />
<glyph unicode="&#xe6;" horiz-adv-x="1548" d="M47 281q0 152 114 230.5t335 78.5h114v16q0 93 -39 134.5t-122 41.5q-54 0 -98 -11t-65.5 -24.5t-39.5 -24.5t-27 -11q-14 0 -22 10l-105 131q-13 20 2 35q2 3 16 15.5t47 33.5t75.5 39.5t109 32.5t139.5 14q193 0 297 -107q122 107 281 107q212 0 318 -136t108 -392 q0 -13 -9.5 -23t-21.5 -10h-565q14 -122 74 -184t143 -62q48 0 91 15t71 37.5t43.5 39t23.5 29.5q18 25 39 4l105 -111q19 -21 4 -45q-11 -19 -36 -45.5t-73 -64t-126 -63t-167 -25.5q-122 0 -224 54.5t-165 154.5q-13 -21 -30 -42.5t-50.5 -54t-69 -56.5t-86.5 -42 t-104 -18q-141 0 -223 81.5t-82 217.5zM332 317q0 -50 29.5 -77t76.5 -27q41 0 74.5 14t56.5 40t33.5 42t24.5 41q-9 42 -15 86h-102q-89 0 -133.5 -28.5t-44.5 -90.5zM895 618h332q-3 80 -44 134.5t-116 54.5q-68 0 -115.5 -48t-56.5 -141z" />
<glyph unicode="&#xe7;" horiz-adv-x="1013" d="M57 506q0 121 37.5 221t99 163t138 97.5t157.5 34.5q64 0 116 -17t80 -41.5t42.5 -44t17.5 -32.5h5l-5 92q0 29 27 29h143q27 0 27 -29v-377q0 -29 -27 -29h-178q-24 0 -24 29v29q-3 64 -51 112t-123 48q-79 0 -143 -75t-64 -208q0 -137 64 -215t157 -78q83 0 145.5 43.5 t81.5 77.5q19 26 41 4l105 -111q18 -21 6 -45q-7 -13 -22 -31.5t-48 -47t-72 -52t-99 -42.5t-126 -23l-8 -31q9 0 19 -1t29.5 -8t34 -19t25.5 -36.5t11 -58.5q0 -75 -46.5 -119.5t-121.5 -44.5q-45 0 -87 15t-61.5 28t-21.5 17q-23 13 -8 43l26 41q6 11 19.5 12.5t23.5 -6.5 q41 -27 84 -27q49 0 49 41q0 23 -11.5 33t-43.5 10q-34 0 -44.5 7.5t-4.5 29.5l25 78q-175 26 -285.5 162.5t-110.5 351.5z" />
<glyph unicode="&#xe8;" horiz-adv-x="995" d="M57 506q0 121 38.5 221t102 163t143 97.5t165.5 34.5q212 0 318 -136t108 -392q0 -13 -9.5 -23t-21.5 -10h-565q14 -122 74 -184t143 -62q48 0 91 15t71 37.5t43.5 39t23.5 29.5q18 25 39 4l105 -111q19 -21 4 -45q-11 -19 -36 -45.5t-73 -64t-126 -63t-167 -25.5 q-98 0 -183.5 35.5t-149.5 101t-101 164.5t-37 219zM236 1493l118 135q8 11 21 13t22 -7l336 -331q11 -9 12 -23t-8 -25l-92 -108q-9 -11 -21.5 -12t-23.5 8l-360 303q-17 21 -4 47zM342 618h332q-3 80 -44 134.5t-116 54.5q-68 0 -115.5 -48t-56.5 -141z" />
<glyph unicode="&#xe9;" horiz-adv-x="995" d="M57 506q0 121 38.5 221t102 163t143 97.5t165.5 34.5q212 0 318 -136t108 -392q0 -13 -9.5 -23t-21.5 -10h-565q14 -122 74 -184t143 -62q48 0 91 15t71 37.5t43.5 39t23.5 29.5q18 25 39 4l105 -111q19 -21 4 -45q-11 -19 -36 -45.5t-73 -64t-126 -63t-167 -25.5 q-98 0 -183.5 35.5t-149.5 101t-101 164.5t-37 219zM342 618h332q-3 80 -44 134.5t-116 54.5q-68 0 -115.5 -48t-56.5 -141zM352 1253q-9 10 -8.5 24t10.5 23l336 332q11 9 23 8t20 -12l117 -137q8 -10 7 -24t-11 -23l-359 -303q-25 -18 -43 6z" />
<glyph unicode="&#xea;" horiz-adv-x="995" d="M57 506q0 121 38.5 221t102 163t143 97.5t165.5 34.5q212 0 318 -136t108 -392q0 -13 -9.5 -23t-21.5 -10h-565q14 -122 74 -184t143 -62q48 0 91 15t71 37.5t43.5 39t23.5 29.5q18 25 39 4l105 -111q19 -21 4 -45q-11 -19 -36 -45.5t-73 -64t-126 -63t-167 -25.5 q-98 0 -183.5 35.5t-149.5 101t-101 164.5t-37 219zM203 1253q-6 10 -5.5 24t9.5 23l313 310q5 8 19 8q11 0 24 -10l307 -308q9 -9 10 -22.5t-6 -24.5l-90 -104q-20 -23 -45 -4l-200 211l-201 -211q-9 -9 -21.5 -8t-21.5 12zM342 618h332q-3 80 -44 134.5t-116 54.5 q-68 0 -115.5 -48t-56.5 -141z" />
<glyph unicode="&#xeb;" horiz-adv-x="995" d="M57 506q0 121 38.5 221t102 163t143 97.5t165.5 34.5q212 0 318 -136t108 -392q0 -13 -9.5 -23t-21.5 -10h-565q14 -122 74 -184t143 -62q48 0 91 15t71 37.5t43.5 39t23.5 29.5q18 25 39 4l105 -111q19 -21 4 -45q-11 -19 -36 -45.5t-73 -64t-126 -63t-167 -25.5 q-98 0 -183.5 35.5t-149.5 101t-101 164.5t-37 219zM223 1260q0 53 35 89.5t86 36.5t86 -36.5t35 -89.5t-35 -89t-86 -36t-86 36t-35 89zM342 618h332q-3 80 -44 134.5t-116 54.5q-68 0 -115.5 -48t-56.5 -141zM580 1260q0 53 34.5 89.5t85.5 36.5q50 0 85.5 -37t35.5 -89 t-35.5 -88.5t-85.5 -36.5q-51 0 -85.5 36t-34.5 89z" />
<glyph unicode="&#xec;" horiz-adv-x="602" d="M-102 1489l118 135q8 11 21 13t22 -7l336 -332q11 -9 12 -22.5t-8 -24.5l-92 -108q-9 -11 -21.5 -12t-23.5 8l-360 303q-17 21 -4 47zM68 29v159q0 29 24 29h82v574h-82q-24 0 -24 28v160q0 29 24 29h330q24 0 24 -29v-762h70q27 0 27 -29v-159q0 -29 -27 -29h-424 q-24 0 -24 29z" />
<glyph unicode="&#xed;" horiz-adv-x="602" d="M70 29v159q0 29 24 29h82v574h-82q-24 0 -24 28v160q0 29 24 29h330q25 0 25 -29v-762h69q27 0 27 -29v-159q0 -29 -27 -29h-424q-24 0 -24 29zM193 1253q-9 10 -8.5 24t10.5 23l335 332q11 9 23 8t20 -12l117 -137q8 -10 7 -24t-11 -23l-358 -303q-25 -18 -43 6z" />
<glyph unicode="&#xee;" horiz-adv-x="602" d="M-31 1253q-6 10 -5.5 24t9.5 23l314 310q5 8 18 8t25 -10l307 -308q9 -9 10 -22.5t-6 -24.5l-90 -104q-20 -23 -45 -4l-201 211l-201 -211q-9 -9 -21.5 -8t-21.5 12zM70 29v159q0 29 24 29h82v574h-82q-24 0 -24 28v160q0 29 24 29h330q25 0 25 -29v-762h69q27 0 27 -29 v-159q0 -29 -27 -29h-424q-24 0 -24 29z" />
<glyph unicode="&#xef;" horiz-adv-x="602" d="M-12 1260q0 53 35 89.5t86 36.5t85.5 -36.5t34.5 -89.5t-34.5 -89t-85.5 -36t-86 36t-35 89zM70 29v159q0 29 24 29h82v574h-82q-24 0 -24 28v160q0 29 24 29h330q25 0 25 -29v-762h69q27 0 27 -29v-159q0 -29 -27 -29h-424q-24 0 -24 29zM344 1260q0 53 35 89.5t86 36.5 q50 0 85.5 -37t35.5 -89t-35.5 -88.5t-85.5 -36.5q-51 0 -86 36t-35 89z" />
<glyph unicode="&#xf0;" horiz-adv-x="1107" d="M61 483q0 204 115 324.5t352 120.5q134 0 232 -66q-12 144 -45 228l-64 -76q-11 -14 -28 0l-88 73q-17 14 -5 29l91 107q-45 28 -99 28q-80 0 -114.5 -34.5t-34.5 -83.5q0 -29 -27 -29h-194q-25 0 -25 29q0 157 99.5 253.5t293.5 96.5q138 0 254 -78l74 88q10 17 29 2 l88 -74q16 -13 4 -28l-82 -99q155 -202 155 -559q0 -361 -134 -555t-373 -194q-114 0 -205.5 39t-149.5 107.5t-88.5 158t-30.5 192.5zM338 471q0 -116 54 -185t151 -69q110 0 161.5 110t57.5 341q-87 59 -184 59q-125 0 -182.5 -73t-57.5 -183z" />
<glyph unicode="&#xf1;" horiz-adv-x="1114" d="M70 29v159q0 29 24 29h84v574h-84q-24 0 -24 28v160q0 29 24 29h289q27 0 27 -29v-131h6q2 9 8.5 24.5t26 43.5t46 50t73 39t102.5 17q143 0 221 -98.5t80 -261.5v-445h84q26 0 26 -29v-159q0 -29 -26 -29h-271q-84 0 -84 94v479q0 102 -27 156.5t-93 54.5q-38 0 -66 -18 t-41 -43.5t-18.5 -43.5t-5.5 -26v-436h63q27 0 27 -29v-159q0 -29 -27 -29h-420q-24 0 -24 29zM199 1149q0 128 50 201t150 73q42 0 77.5 -13t59.5 -32t44.5 -37.5t43.5 -32t46 -14.5q32 0 47.5 27t15.5 98q0 29 27 29h98q25 0 25 -29q0 -133 -50.5 -207.5t-152.5 -74.5 q-42 0 -77.5 12.5t-59 30.5t-44.5 36.5t-43.5 31t-45.5 12.5q-31 0 -47.5 -23.5t-16.5 -87.5q0 -29 -24 -29h-99q-24 0 -24 29z" />
<glyph unicode="&#xf2;" horiz-adv-x="1054" d="M57 506q0 237 129.5 376.5t339.5 139.5q212 0 341.5 -140t129.5 -376q0 -237 -127 -378.5t-344 -141.5q-216 0 -342.5 141t-126.5 379zM215 1493l119 135q8 11 21 13t22 -7l336 -331q11 -9 12 -23t-8 -25l-92 -108q-9 -11 -21.5 -12t-23.5 8l-361 303q-17 21 -4 47z M334 508q0 -134 51.5 -213.5t140.5 -79.5t142 79.5t53 213.5q0 130 -54.5 206.5t-140.5 76.5t-139 -76.5t-53 -206.5z" />
<glyph unicode="&#xf3;" horiz-adv-x="1054" d="M57 506q0 237 129.5 376.5t339.5 139.5q212 0 341.5 -140t129.5 -376q0 -237 -127 -378.5t-344 -141.5q-216 0 -342.5 141t-126.5 379zM334 508q0 -134 51.5 -213.5t140.5 -79.5t142 79.5t53 213.5q0 130 -54.5 206.5t-140.5 76.5t-139 -76.5t-53 -206.5zM369 1253 q-9 10 -8.5 24t10.5 23l336 332q11 9 23 8t20 -12l116 -137q8 -10 7 -24t-11 -23l-358 -303q-25 -18 -43 6z" />
<glyph unicode="&#xf4;" horiz-adv-x="1054" d="M57 506q0 237 129.5 376.5t339.5 139.5q212 0 341.5 -140t129.5 -376q0 -237 -127 -378.5t-344 -141.5q-216 0 -342.5 141t-126.5 379zM213 1253q-6 10 -5.5 24t9.5 23l313 310q5 8 19 8q11 0 24 -10l308 -308q9 -9 10 -22.5t-6 -24.5l-90 -104q-20 -23 -45 -4l-201 211 l-201 -211q-9 -9 -21.5 -8t-21.5 12zM334 508q0 -134 51.5 -213.5t140.5 -79.5t142 79.5t53 213.5q0 130 -54.5 206.5t-140.5 76.5t-139 -76.5t-53 -206.5z" />
<glyph unicode="&#xf5;" horiz-adv-x="1054" d="M57 506q0 237 129.5 376.5t339.5 139.5q212 0 341.5 -140t129.5 -376q0 -237 -127 -378.5t-344 -141.5q-216 0 -342.5 141t-126.5 379zM217 1149q0 127 50.5 200.5t150.5 73.5q42 0 77.5 -13t59 -32t44.5 -37.5t43.5 -32t45.5 -14.5q32 0 48 27t16 98q0 29 26 29h99 q24 0 24 -29q0 -133 -50.5 -207.5t-152.5 -74.5q-42 0 -77.5 12.5t-59 30.5t-44.5 36.5t-43.5 31t-45.5 12.5q-31 0 -47 -23.5t-16 -87.5q0 -29 -25 -29h-98q-25 0 -25 29zM334 508q0 -134 51.5 -213.5t140.5 -79.5t142 79.5t53 213.5q0 130 -54.5 206.5t-140.5 76.5 t-139 -76.5t-53 -206.5z" />
<glyph unicode="&#xf6;" horiz-adv-x="1054" d="M57 506q0 237 129.5 376.5t339.5 139.5q212 0 341.5 -140t129.5 -376q0 -237 -127 -378.5t-344 -141.5q-216 0 -342.5 141t-126.5 379zM236 1260q0 53 34.5 89.5t85.5 36.5t86 -36.5t35 -89.5t-35 -89t-86 -36t-85.5 36t-34.5 89zM334 508q0 -134 51.5 -213.5 t140.5 -79.5t142 79.5t53 213.5q0 130 -54.5 206.5t-140.5 76.5t-139 -76.5t-53 -206.5zM592 1260q0 53 35 89.5t86 36.5q50 0 85.5 -37t35.5 -89t-35.5 -88.5t-85.5 -36.5q-51 0 -86 36t-35 89z" />
<glyph unicode="&#xf7;" horiz-adv-x="813" d="M78 522v189q0 13 9.5 22.5t21.5 9.5h596q12 0 21 -9.5t9 -22.5v-189q0 -14 -9 -24.5t-21 -10.5h-596q-12 0 -21.5 10.5t-9.5 24.5zM295 283q0 54 35.5 91.5t87.5 37.5q51 0 87 -37.5t36 -91.5t-36 -91.5t-87 -37.5q-52 0 -87.5 37.5t-35.5 91.5zM295 948q0 54 35.5 91.5 t87.5 37.5q51 0 87 -37.5t36 -91.5t-36 -90.5t-87 -36.5q-52 0 -87.5 36.5t-35.5 90.5z" />
<glyph unicode="&#xf8;" horiz-adv-x="1054" d="M57 506q0 237 129.5 376.5t339.5 139.5q93 0 172 -31l11 23q12 28 34 28h56q13 0 18.5 -7.5t-0.5 -20.5l-29 -66q99 -64 154 -178t55 -264q0 -237 -127 -378.5t-344 -141.5q-75 0 -153 20l-17 -39q-18 -28 -32 -28h-58q-12 0 -18.5 8.5t0.5 19.5l35 78 q-108 64 -167 182.5t-59 278.5zM334 508q0 -145 55 -221l213 485q-36 19 -76 19q-86 0 -139 -76.5t-53 -206.5zM469 223q24 -8 57 -8q89 0 142 79.5t53 213.5q0 113 -43 188z" />
<glyph unicode="&#xf9;" horiz-adv-x="1091" d="M33 819v160q0 29 26 29h271q41 0 63.5 -24.5t22.5 -70.5v-479q0 -211 121 -211q37 0 65 18.5t41 43.5t19 43t6 26v437h-58q-26 0 -26 28v160q0 29 26 29h301q27 0 27 -29v-762h82q27 0 27 -29v-159q0 -29 -27 -29h-229q-86 0 -86 94v66h-7q-17 -53 -34 -79 q-64 -95 -207 -95t-228.5 100t-85.5 260v445h-84q-26 0 -26 28zM164 1493l119 135q8 11 21 13t22 -7l336 -331q11 -9 12 -23t-8 -25l-93 -108q-9 -11 -21.5 -12t-23.5 8l-360 303q-17 21 -4 47z" />
<glyph unicode="&#xfa;" horiz-adv-x="1091" d="M33 819v160q0 29 26 29h271q41 0 63.5 -24.5t22.5 -70.5v-479q0 -211 121 -211q37 0 65 18.5t41 43.5t19 43t6 26v437h-58q-26 0 -26 28v160q0 29 26 29h301q27 0 27 -29v-762h82q27 0 27 -29v-159q0 -29 -27 -29h-229q-86 0 -86 94v66h-7q-17 -53 -34 -79 q-64 -95 -207 -95t-228.5 100t-85.5 260v445h-84q-26 0 -26 28zM276 1253q-9 10 -8 24t11 23l335 332q11 9 23 8t20 -12l117 -137q8 -10 7 -24t-11 -23l-358 -303q-25 -18 -43 6z" />
<glyph unicode="&#xfb;" horiz-adv-x="1091" d="M33 819v160q0 29 26 29h271q41 0 63.5 -24.5t22.5 -70.5v-479q0 -211 121 -211q37 0 65 18.5t41 43.5t19 43t6 26v437h-58q-26 0 -26 28v160q0 29 26 29h301q27 0 27 -29v-762h82q27 0 27 -29v-159q0 -29 -27 -29h-229q-86 0 -86 94v66h-7q-17 -53 -34 -79 q-64 -95 -207 -95t-228.5 100t-85.5 260v445h-84q-26 0 -26 28zM164 1253q-6 10 -5.5 24t9.5 23l313 310q5 8 19 8q12 0 24 -10l307 -308q9 -9 10.5 -22.5t-5.5 -24.5l-91 -104q-20 -23 -45 -4l-200 211l-201 -211q-9 -9 -21.5 -8t-21.5 12z" />
<glyph unicode="&#xfc;" horiz-adv-x="1091" d="M33 819v160q0 29 26 29h271q41 0 63.5 -24.5t22.5 -70.5v-479q0 -211 121 -211q37 0 65 18.5t41 43.5t19 43t6 26v437h-58q-26 0 -26 28v160q0 29 26 29h301q27 0 27 -29v-762h82q27 0 27 -29v-159q0 -29 -27 -29h-229q-86 0 -86 94v66h-7q-17 -53 -34 -79 q-64 -95 -207 -95t-228.5 100t-85.5 260v445h-84q-26 0 -26 28zM209 1260q0 53 35 89.5t86 36.5t86 -36.5t35 -89.5t-35 -89t-86 -36t-86 36t-35 89zM565 1260q0 53 35 89.5t86 36.5q50 0 85.5 -37t35.5 -89t-35.5 -88.5t-85.5 -36.5q-51 0 -86 36t-35 89z" />
<glyph unicode="&#xfd;" horiz-adv-x="1095" d="M18 819v160q0 29 25 29h408q26 0 26 -29v-160q0 -28 -26 -28h-41l129 -551h4l139 551h-49q-25 0 -25 28v160q0 29 25 29h422q24 0 24 -29v-160q0 -28 -24 -28h-94l-259 -885q-25 -83 -43.5 -134.5t-46.5 -105.5t-60 -83t-78 -47.5t-105 -18.5q-22 0 -43.5 2.5t-38.5 6 t-35 10t-30.5 11.5t-27.5 14t-23.5 14.5t-21 15.5t-17 14.5t-15.5 14.5t-13 11q-26 26 -12 43l101 125q15 18 38 2q1 -1 16 -14t22.5 -17t27 -10t43.5 -6q45 0 68 37t43 117l24 102h-55q-34 0 -49.5 14.5t-28.5 51.5l-209 715h-90q-25 0 -25 28zM391 1253q-9 10 -8.5 24 t10.5 23l336 332q11 9 23 8t20 -12l117 -137q8 -10 7 -24t-11 -23l-359 -303q-25 -18 -43 6z" />
<glyph unicode="&#xfe;" horiz-adv-x="1075" d="M10 -272q0 28 25 28h86v1495h-76q-11 0 -18 8t-7 21v162q0 28 25 28h322q24 0 24 -28v-541q76 123 225 123q178 0 289 -139t111 -383q0 -231 -107.5 -373.5t-290.5 -142.5q-58 0 -104 14.5t-72.5 37t-41.5 43t-21 40.5h-4q4 -53 4 -78v-287h127q26 0 26 -28v-160 q0 -29 -26 -29h-471q-11 0 -18 8t-7 21v160zM381 500q0 -136 52.5 -211.5t127.5 -75.5q84 0 135.5 77.5t51.5 207.5q0 134 -50 213.5t-137 79.5q-79 0 -129.5 -76t-50.5 -215z" />
<glyph unicode="&#xff;" horiz-adv-x="1095" d="M18 819v160q0 29 25 29h408q26 0 26 -29v-160q0 -28 -26 -28h-41l129 -551h4l139 551h-49q-25 0 -25 28v160q0 29 25 29h422q24 0 24 -29v-160q0 -28 -24 -28h-94l-259 -885q-25 -83 -43.5 -134.5t-46.5 -105.5t-60 -83t-78 -47.5t-105 -18.5q-22 0 -43.5 2.5t-38.5 6 t-35 10t-30.5 11.5t-27.5 14t-23.5 14.5t-21 15.5t-17 14.5t-15.5 14.5t-13 11q-26 26 -12 43l101 125q15 18 38 2q1 -1 16 -14t22.5 -17t27 -10t43.5 -6q45 0 68 37t43 117l24 102h-55q-34 0 -49.5 14.5t-28.5 51.5l-209 715h-90q-25 0 -25 28zM246 1260q0 53 35 89.5 t86 36.5t85.5 -36.5t34.5 -89.5t-34.5 -89t-85.5 -36t-86 36t-35 89zM602 1260q0 53 35 89.5t86 36.5q50 0 85.5 -37t35.5 -89t-35.5 -88.5t-85.5 -36.5q-51 0 -86 36t-35 89z" />
<glyph unicode="&#x152;" horiz-adv-x="1728" d="M68 743q0 140 36 259.5t98 203.5t143.5 144t173 89.5t186.5 30.5h897q24 0 24 -28v-406q0 -28 -24 -28h-203q-29 0 -29 28v197h-379v-377h309q27 0 27 -29v-180q0 -29 -27 -29h-309v-380h379v196q0 29 27 29h205q24 0 24 -29v-405q0 -29 -24 -29h-891q-135 0 -253 54 t-204.5 150.5t-136 236t-49.5 302.5zM369 737q0 -215 95.5 -346.5t240.5 -134.5v961q-145 -5 -240.5 -131.5t-95.5 -348.5z" />
<glyph unicode="&#x153;" horiz-adv-x="1658" d="M57 506q0 237 129.5 376.5t339.5 139.5q209 0 334 -150q61 73 141.5 111.5t167.5 38.5q212 0 319 -136t107 -392q0 -14 -8 -23.5t-20 -9.5h-566q14 -122 73.5 -184t142.5 -62q48 0 92 15.5t71.5 37t44 39.5t21.5 29q8 11 19 12.5t20 -8.5l106 -111q16 -21 4 -45 q-7 -13 -23 -33t-51.5 -50t-79 -54.5t-110 -42.5t-139.5 -18q-97 0 -182 38.5t-146 110.5q-127 -149 -338 -149q-216 0 -342.5 141t-126.5 379zM334 508q0 -134 51.5 -213.5t140.5 -79.5q87 0 141 79t54 214q0 130 -54.5 206.5t-140.5 76.5t-139 -76.5t-53 -206.5zM1008 618 h329q-2 80 -42 134.5t-117 54.5q-68 0 -114.5 -48t-55.5 -141z" />
<glyph unicode="&#x178;" horiz-adv-x="1265" d="M-16 1262v180q0 28 26 28h525q11 0 18.5 -7.5t7.5 -20.5v-180q0 -29 -26 -29h-82l186 -426h8l180 426h-90q-26 0 -26 29v180q0 13 7.5 20.5t18.5 7.5h520q27 0 27 -28v-180q0 -29 -27 -29h-118l-369 -664v-331h125q27 0 27 -29v-180q0 -13 -8 -21t-19 -8h-526 q-27 0 -27 29v180q0 29 27 29h123v331l-363 664h-119q-26 0 -26 29zM336 1722q0 53 35 90t86 37t86 -37t35 -90t-35 -89t-86 -36t-86 36t-35 89zM692 1722q0 53 35 90t86 37q50 0 85.5 -37.5t35.5 -89.5t-35.5 -88.5t-85.5 -36.5q-51 0 -86 36t-35 89z" />
<glyph unicode="&#x2c6;" horiz-adv-x="780" d="M53 1253q-6 10 -5.5 24t9.5 23l314 310q5 8 18 8t25 -10l307 -308q9 -9 10 -22.5t-6 -24.5l-90 -104q-20 -23 -45 -4l-201 211l-201 -211q-9 -9 -21.5 -8t-21.5 12z" />
<glyph unicode="&#x2dc;" horiz-adv-x="776" d="M47 1149q0 127 50.5 200.5t150.5 73.5q42 0 77.5 -13t59 -32t44.5 -37.5t43.5 -32t45.5 -14.5q32 0 48 27t16 98q0 29 26 29h99q24 0 24 -29q0 -133 -50.5 -207.5t-152.5 -74.5q-42 0 -77.5 12.5t-59 30.5t-44.5 36.5t-43.5 31t-45.5 12.5q-31 0 -47 -23.5t-16 -87.5 q0 -29 -25 -29h-98q-25 0 -25 29z" />
<glyph unicode="&#x2000;" horiz-adv-x="1052" />
<glyph unicode="&#x2001;" horiz-adv-x="2104" />
<glyph unicode="&#x2002;" horiz-adv-x="1052" />
<glyph unicode="&#x2003;" horiz-adv-x="2104" />
<glyph unicode="&#x2004;" horiz-adv-x="701" />
<glyph unicode="&#x2005;" horiz-adv-x="526" />
<glyph unicode="&#x2006;" horiz-adv-x="350" />
<glyph unicode="&#x2007;" horiz-adv-x="350" />
<glyph unicode="&#x2008;" horiz-adv-x="263" />
<glyph unicode="&#x2009;" horiz-adv-x="420" />
<glyph unicode="&#x200a;" horiz-adv-x="116" />
<glyph unicode="&#x2010;" horiz-adv-x="876" d="M111 444v191q0 14 8.5 23.5t21.5 9.5h596q12 0 20.5 -9.5t8.5 -23.5v-191q0 -13 -8.5 -21.5t-20.5 -8.5h-596q-13 0 -21.5 8t-8.5 22z" />
<glyph unicode="&#x2011;" horiz-adv-x="876" d="M111 444v191q0 14 8.5 23.5t21.5 9.5h596q12 0 20.5 -9.5t8.5 -23.5v-191q0 -13 -8.5 -21.5t-20.5 -8.5h-596q-13 0 -21.5 8t-8.5 22z" />
<glyph unicode="&#x2012;" horiz-adv-x="876" d="M111 444v191q0 14 8.5 23.5t21.5 9.5h596q12 0 20.5 -9.5t8.5 -23.5v-191q0 -13 -8.5 -21.5t-20.5 -8.5h-596q-13 0 -21.5 8t-8.5 22z" />
<glyph unicode="&#x2013;" horiz-adv-x="1136" d="M111 444v191q0 14 8.5 23.5t21.5 9.5h856q12 0 20.5 -9.5t8.5 -23.5v-191q0 -13 -8.5 -21.5t-20.5 -8.5h-856q-13 0 -21.5 8t-8.5 22z" />
<glyph unicode="&#x2014;" horiz-adv-x="1712" d="M111 444v191q0 14 8.5 23.5t21.5 9.5h1430q12 0 21.5 -10t9.5 -23v-191q0 -13 -9.5 -21.5t-21.5 -8.5h-1430q-13 0 -21.5 8t-8.5 22z" />
<glyph unicode="&#x2018;" horiz-adv-x="399" d="M68 1405q0 266 178 266q14 0 14 -10v-66q0 -12 -14 -12q-31 0 -51.5 -24t-20.5 -68l2 -27q13 9 31 9q51 0 86 -36.5t35 -90.5t-35 -91.5t-86 -37.5q-64 0 -101.5 50t-37.5 138z" />
<glyph unicode="&#x2019;" horiz-adv-x="411" d="M74 1393q0 54 35 91.5t86 37.5q64 0 101.5 -50.5t37.5 -138.5q0 -266 -178 -266q-15 0 -15 10v66q0 12 15 12q30 0 50.5 24t20.5 68l-4 27q-7 -8 -30 -8q-50 0 -84.5 36.5t-34.5 90.5z" />
<glyph unicode="&#x201a;" horiz-adv-x="446" d="M94 111q0 54 35.5 91.5t87.5 37.5q62 0 99.5 -50.5t37.5 -138.5q0 -266 -178 -266q-14 0 -14 10v66q0 12 14 12q30 0 52 24t22 66l-4 29q-11 -8 -31 -8q-51 0 -86 36.5t-35 90.5z" />
<glyph unicode="&#x201c;" horiz-adv-x="733" d="M68 1405q0 266 178 266q14 0 14 -10v-66q0 -12 -14 -12q-31 0 -51.5 -24t-20.5 -68l2 -27q13 9 31 9q51 0 86 -36.5t35 -90.5t-35 -91.5t-86 -37.5q-64 0 -101.5 50t-37.5 138zM401 1405q0 266 181 266q12 0 12 -10v-66q0 -12 -12 -12q-31 0 -52.5 -24t-21.5 -68l2 -27 q13 9 33 9q50 0 84.5 -36.5t34.5 -90.5t-35 -91.5t-86 -37.5q-64 0 -102 50t-38 138z" />
<glyph unicode="&#x201d;" horiz-adv-x="747" d="M74 1393q0 54 35 91.5t86 37.5q64 0 101.5 -50.5t37.5 -138.5q0 -266 -178 -266q-15 0 -15 10v66q0 12 15 12q30 0 50.5 24t20.5 68l-4 27q-7 -8 -30 -8q-50 0 -84.5 36.5t-34.5 90.5zM408 1393q0 54 35 91.5t87 37.5q64 0 102 -50.5t38 -138.5q0 -266 -181 -266 q-14 0 -14 10v66q0 12 14 12q30 0 51 24.5t21 67.5l-2 27q-11 -8 -31 -8q-51 0 -85.5 36.5t-34.5 90.5z" />
<glyph unicode="&#x201e;" horiz-adv-x="778" d="M94 111q0 54 35.5 91.5t87.5 37.5q62 0 99.5 -50.5t37.5 -138.5q0 -266 -178 -266q-14 0 -14 10v66q0 12 14 12q30 0 52 24t22 66l-4 29q-11 -8 -31 -8q-51 0 -86 36.5t-35 90.5zM424 111q0 54 36 91.5t87 37.5q64 0 101.5 -50.5t37.5 -138.5q0 -136 -45 -201t-135 -65 q-14 0 -14 10v66q0 12 14 12q31 0 52.5 24t21.5 66q0 10 -1 17.5t-3 9.5l-1 2q-10 -8 -28 -8q-52 0 -87.5 36.5t-35.5 90.5z" />
<glyph unicode="&#x2022;" horiz-adv-x="616" d="M141 686q0 90 44 144.5t122 54.5q76 0 123 -55.5t47 -143.5q0 -90 -46.5 -143.5t-123.5 -53.5q-79 0 -122.5 52.5t-43.5 144.5z" />
<glyph unicode="&#x2026;" horiz-adv-x="1009" d="M94 113q0 53 35 90t86 37q52 0 87.5 -37t35.5 -90q0 -55 -35 -92t-88 -37q-51 0 -86 37t-35 92zM385 113q0 53 35 90t86 37q52 0 87.5 -37t35.5 -90q0 -55 -35 -92t-88 -37q-51 0 -86 37t-35 92zM672 113q0 53 35 90t86 37t86.5 -37t35.5 -90q0 -55 -35.5 -92t-86.5 -37 t-86 37t-35 92z" />
<glyph unicode="&#x202f;" horiz-adv-x="420" />
<glyph unicode="&#x205f;" horiz-adv-x="526" />
<glyph unicode="&#x20ac;" horiz-adv-x="1290" d="M68 510v127q0 29 26 29h90q-2 20 -2 61t2 61h-90q-26 0 -26 27v127q0 29 26 29h117q61 236 228 374t384 138q66 0 129.5 -14t106 -33t78.5 -41.5t52 -36t21 -19.5q17 -24 7 -41l-134 -153q-6 -10 -16.5 -11t-17.5 7q-92 80 -215 80q-102 0 -184.5 -67.5t-125.5 -182.5 h432q27 0 27 -29v-127q0 -13 -8 -20t-19 -7h-471q-2 -18 -2 -53q0 -23 4 -69h355q24 0 24 -29v-127q0 -29 -24 -29h-307q48 -107 130 -168t181 -61q56 0 103 16t66.5 30.5t33.5 29.5q19 19 34 -4l134 -156q10 -17 -7 -41q-5 -6 -21 -19.5t-52 -36t-78.5 -41t-106 -32.5 t-129.5 -14q-214 0 -381 134t-229 363h-119q-26 0 -26 29z" />
<glyph unicode="&#x2122;" horiz-adv-x="1959" d="M102 1184v268q0 7 5.5 12.5t13.5 5.5h688q7 0 12.5 -5t5.5 -13v-268q0 -8 -5.5 -13.5t-12.5 -5.5h-129q-16 0 -16 19v121h-101v-549h70q6 0 11 -6t5 -15v-125q0 -18 -16 -18h-330q-16 0 -16 18v125q0 21 16 21h70v549h-107v-121q0 -8 -5.5 -13.5t-12.5 -5.5h-127 q-7 0 -13 5.5t-6 13.5zM891 608v131q0 17 16 17h70v549h-53q-15 0 -15 16v133q0 16 15 16h221q56 0 72 -57l110 -332q12 -31 22 -68.5t13 -58.5l4 -22h4q10 77 37 149l113 332q11 29 27.5 43t45.5 14h236q14 0 14 -16v-133q0 -16 -14 -16h-70v-549h70q14 0 14 -17v-131 q0 -16 -14 -16h-303q-6 0 -11.5 4.5t-5.5 11.5v131q0 17 17 17h43v409h-4l-127 -448q-15 -51 -70 -51t-70 51l-129 448h-4v-409h45q17 0 17 -17v-131q0 -7 -5.5 -11.5t-11.5 -4.5h-303q-16 0 -16 16z" />
<glyph unicode="&#xe000;" horiz-adv-x="1003" d="M0 0v1004h1004v-1004h-1004z" />
</font>
</defs>
</svg>
