<?xml version="1.0" standalone="no"?>
<!DOCTYPE svg PUBLIC "-//W3C//DTD SVG 1.1//EN" "http://www.w3.org/Graphics/SVG/1.1/DTD/svg11.dtd" >
<svg xmlns="http://www.w3.org/2000/svg">
<metadata></metadata>
<defs>
<font id="boton_pro_lightregular" horiz-adv-x="1024" >
<font-face units-per-em="2048" ascent="1536" descent="-512" />
<missing-glyph horiz-adv-x="598" />
<glyph unicode="&#xfb01;" d="M57 0v63h168v938h-168v64h168v152q0 63 8 105.5t30 78t64.5 52.5t106.5 17q54 0 133 -14v-74q-79 23 -127 23q-137 0 -137 -152v-188h512v-1002h172v-63h-405v63h155v938h-434v-938h170v-63h-416zM696 1331v115h119v-115h-119z" />
<glyph unicode="&#xfb02;" horiz-adv-x="1067" d="M57 0v63h168v938h-168v64h168v152q0 134 47 193.5t177 59.5q53 0 118 -10v-65q-58 10 -102 10q-53 0 -85.5 -11.5t-49 -38t-22 -58.5t-5.5 -85v-147h189v-64h-189v-938h170v-63h-416zM602 0v63h164v1319h-150v64h226v-1383h170v-63h-410z" />
<glyph horiz-adv-x="2048" />
<glyph horiz-adv-x="2048" />
<glyph unicode="&#xd;" horiz-adv-x="2048" />
<glyph unicode=" "  horiz-adv-x="598" />
<glyph unicode="&#x09;" horiz-adv-x="598" />
<glyph unicode="&#xa0;" horiz-adv-x="598" />
<glyph unicode="!" horiz-adv-x="555" d="M258 0v119h121v-119h-121zM270 1446h97l-9 -1190h-79q-7 1012 -9 1190z" />
<glyph unicode="&#x22;" horiz-adv-x="524" d="M90 1522h98l-30 -596h-37zM336 1522h98l-31 -596h-36z" />
<glyph unicode="#" horiz-adv-x="1124" d="M49 551v70h295l33 245h-285v70h295l70 510h65l-69 -510h276l70 510h65l-69 -510h282v-70h-293l-30 -245h284v-70h-297l-73 -551h-66l74 551h-277l-73 -551h-66l74 551h-285zM410 621h276l33 245h-277z" />
<glyph unicode="$" horiz-adv-x="1110" d="M147 12v447h66q1 -28 4 -54.5t11.5 -64t21.5 -70.5t36.5 -69t54 -63.5t76.5 -50.5t101 -34v688q-47 16 -76.5 26.5t-72 30t-69.5 37.5t-57.5 45.5t-48 58.5t-29 72.5t-11.5 90.5q0 159 116 266q43 39 95.5 61.5t82 27t70.5 7.5v193h64v-195q111 -17 187 -80.5t110 -164.5 v227h65v-424h-65q-39 328 -297 379v-602q50 -17 80 -28.5t77 -33.5t76 -42.5t63 -53t53.5 -68.5t32.5 -86t13 -108q0 -206 -162 -318q-95 -64 -233 -69v-193h-64v193q-59 11 -107 31.5t-77.5 41t-55.5 51.5t-37.5 50t-27.5 49v-201h-66zM229 1112q0 -40 10 -75t24.5 -60 t40.5 -48t47 -37t56 -30t55 -23.5t56 -19.5v582q-89 -3 -156 -44.5t-100 -105.5t-33 -139zM582 51q148 3 233.5 95.5t85.5 220.5q0 67 -21.5 122t-52 90t-78 64.5t-83 44.5t-84.5 31v-668z" />
<glyph unicode="%" horiz-adv-x="1724" d="M57 1001q0 68 9 130t32.5 124.5t60 108t96 74t136.5 28.5q70 0 126 -22t91.5 -61t60 -84.5t36.5 -101.5t17 -102.5t5 -95.5q0 -71 -8.5 -134t-32 -127t-60 -110t-97 -75t-138.5 -29q-62 0 -113 18t-85 47t-59.5 71t-40 83.5t-23 91t-11 87.5t-2.5 79zM129 1001 q0 -415 262 -415q264 0 264 432q0 72 -12.5 136t-41 123.5t-82 94.5t-126.5 35q-61 0 -107.5 -23t-75.5 -61t-48 -92t-26 -109.5t-7 -120.5zM430 0l791 1446h75l-790 -1446h-76zM997 455q0 68 9 130t32.5 124.5t60 108t96 74t136.5 28.5q70 0 126 -22t91.5 -61t60 -84.5 t36.5 -101.5t17 -102.5t5 -95.5q0 -71 -8.5 -134t-32 -127.5t-60 -110.5t-97 -75t-138.5 -29q-62 0 -113 18t-85 47t-59.5 71t-40 83.5t-23 91.5t-11 88t-2.5 79zM1069 455q0 -416 262 -416q264 0 264 432q0 72 -12.5 136t-41 123.5t-82 94.5t-126.5 35q-61 0 -107.5 -23 t-75.5 -60.5t-48 -91.5t-26 -109.5t-7 -120.5z" />
<glyph unicode="&#x26;" horiz-adv-x="1280" d="M106 420q0 65 18 121.5t43 95t66.5 76t72.5 58.5t77 48q-39 54 -60.5 87.5t-45 99.5t-23.5 131q0 148 107 243t260 95q59 0 116 -17t105 -49.5t77 -85t29 -117.5q0 -88 -49 -159q-36 -54 -105 -96.5t-292 -153.5q137 -157 227.5 -252.5t271.5 -268.5q41 80 58.5 144 t27.5 180h78q-8 -102 -26 -178.5t-34 -112.5t-46 -88l227 -221h-110l-162 158q-65 -85 -175.5 -134t-242.5 -49q-109 0 -201.5 35.5t-155.5 96t-98 142t-35 171.5zM188 418q0 -164 120 -269.5t296 -105.5q220 0 352 168q-191 184 -289 287t-235 260q-38 -21 -58.5 -33.5 t-61 -45t-63.5 -65t-42 -84.5t-19 -112zM330 1141q0 -130 123 -283q79 38 121.5 58.5t95 48.5t77.5 45.5t53.5 41.5t40 45t19.5 47t8 56q0 91 -70.5 147t-172.5 56q-55 0 -106.5 -17t-94 -48.5t-68.5 -82.5t-26 -114z" />
<glyph unicode="'" horiz-adv-x="278" d="M90 1522h98l-30 -596h-37z" />
<glyph unicode="(" horiz-adv-x="468" d="M127 516q0 564 143 969h74q-121 -430 -121 -959q0 -467 121 -901h-74q-143 455 -143 891z" />
<glyph unicode=")" horiz-adv-x="468" d="M123 -373q121 438 121 948q0 511 -121 910h74q76 -244 110.5 -449t34.5 -448q0 -435 -76 -727q-24 -94 -69 -234h-74z" />
<glyph unicode="*" horiz-adv-x="811" d="M61 956l275 152l-275 154l41 67l265 -162q-2 221 -2 303h73l-2 -303l271 162l38 -67l-270 -154l270 -152l-38 -69l-271 166q0 -193 2 -314h-73l4 312l-267 -164z" />
<glyph unicode="+" horiz-adv-x="1482" d="M193 561v76h509v510h78v-510h510v-76h-510v-510h-78v510h-509z" />
<glyph unicode="," horiz-adv-x="468" d="M96 -219l107 360h151l-192 -360h-66z" />
<glyph unicode="-" horiz-adv-x="894" d="M82 547v74h731v-74h-731z" />
<glyph unicode="." horiz-adv-x="468" d="M170 0v137h133v-137h-133z" />
<glyph unicode="/" horiz-adv-x="681" d="M-8 -201l614 1856h84l-616 -1856h-82z" />
<glyph unicode="0" horiz-adv-x="1150" d="M82 735q0 89 9.5 172t30.5 169t58.5 156t90 125.5t130 86.5t172.5 31q90 0 164 -27t124.5 -71t89 -107t60.5 -127.5t35.5 -141t18 -139t4.5 -129.5q0 -112 -12.5 -212t-47 -202.5t-88.5 -176t-143 -119.5t-205 -46q-91 0 -166 29t-125 75t-87.5 112.5t-58.5 132.5 t-33.5 144.5t-16.5 139t-4 125.5zM164 735q0 -116 12 -213.5t41.5 -186.5t75.5 -151t118 -98.5t164 -36.5q73 0 133 23.5t102 62.5t74 96t51 118t31 134.5t16.5 139.5t4.5 139q0 94 -11.5 180t-41 172t-74.5 148.5t-117.5 101.5t-164.5 39q-79 0 -143 -26t-108.5 -73.5 t-76 -108.5t-50 -138.5t-27 -155.5t-9.5 -166z" />
<glyph unicode="1" horiz-adv-x="1150" d="M367 1321v70l200 55h58v-1383h176v-63h-416v63h162v1313z" />
<glyph unicode="2" horiz-adv-x="1150" d="M119 0v74q373 405 474 526q89 106 140 180q127 189 127 338q0 122 -79 200.5t-226 78.5q-112 0 -195 -62q-34 -26 -57.5 -56t-35.5 -66t-17 -60.5t-10 -62.5h-88q16 119 47 180q18 35 48.5 68.5t74.5 65t106.5 50.5t132.5 19q161 0 271 -96t110 -257q0 -163 -125 -352 q-78 -115 -205.5 -259t-400.5 -435h680v311h72v-385h-844z" />
<glyph unicode="3" horiz-adv-x="1150" d="M90 389h76q5 -37 15.5 -74t38 -88t67 -88.5t108.5 -64.5t156 -27q156 0 263.5 94t107.5 240q0 64 -23 121t-68 103t-119 73t-167 27q-43 0 -90 -7v82q5 0 30.5 -1t38.5 -1q162 0 263.5 85t101.5 222q0 143 -96 229.5t-250 86.5q-139 0 -234 -78t-108 -236h-84 q21 140 78 222q57 83 152.5 123.5t207.5 40.5q98 0 179 -32.5t132 -85.5t79 -119.5t28 -137.5q0 -68 -21 -126t-50.5 -95t-68.5 -66t-68.5 -43.5t-57.5 -22.5q135 -37 216 -133t81 -243q0 -161 -133.5 -276.5t-333.5 -115.5q-209 0 -332 132q-96 102 -115 280z" />
<glyph unicode="4" horiz-adv-x="1150" d="M117 379v82l561 985h129v-997h309v-70h-309v-316h166v-63h-414v63h168v316h-610zM193 449h534v942z" />
<glyph unicode="5" horiz-adv-x="1150" d="M133 385h80q6 -156 100.5 -249t253.5 -93q120 0 205 59t123.5 153t38.5 212q0 81 -21.5 155t-62.5 134t-109 95.5t-153 35.5q-95 0 -179 -49t-128 -133l-105 10l64 731h710v-309h-71v245h-564l-53 -591q68 84 146.5 124.5t183.5 40.5q103 0 185.5 -41.5t133.5 -112 t78 -159.5t27 -188q0 -69 -14.5 -134.5t-49.5 -129t-86.5 -110.5t-131 -75.5t-177.5 -28.5q-196 0 -305.5 111.5t-118.5 296.5z" />
<glyph unicode="6" horiz-adv-x="1150" d="M141 688q0 423 168 635q115 150 324 150q178 0 278 -111q83 -93 99 -242h-78q-19 134 -88 203q-34 35 -88.5 58.5t-122.5 23.5q-74 0 -135 -25t-103.5 -66.5t-74.5 -101.5t-51.5 -123t-31.5 -137.5t-16 -139t-4 -134.5v-80q6 31 18.5 64.5t43.5 82.5t73 86t113 64t158 27 q203 0 318.5 -130t115.5 -333q0 -214 -124.5 -348t-314.5 -134q-103 0 -184.5 36t-136 98.5t-90 153t-51 195t-15.5 228.5zM252 449q0 -175 107.5 -289.5t261.5 -114.5q147 0 251.5 115t104.5 299q0 177 -97.5 286t-254.5 109q-93 0 -167 -37t-117.5 -97.5t-66 -130 t-22.5 -140.5z" />
<glyph unicode="7" horiz-adv-x="1150" d="M152 1100v346h813v-64l-418 -1319h182v-63h-432v63h164l418 1319h-654v-282h-73z" />
<glyph unicode="8" horiz-adv-x="1150" d="M102 379q0 154 88.5 250t215.5 125q-25 10 -42.5 17.5t-46.5 24t-49.5 33t-44 43t-38.5 56.5t-25 71t-10 88q0 77 27.5 146.5t80 123.5t135.5 86t187 32q175 0 296 -104.5t121 -278.5q0 -49 -11 -92.5t-26 -74t-40.5 -58t-45 -43.5t-49.5 -32.5t-44 -22.5t-38 -15 q59 -14 112 -43.5t97 -74t69.5 -109.5t25.5 -142q0 -188 -133 -299t-343 -111q-202 0 -335.5 110t-133.5 294zM186 393q0 -81 35 -153.5t96 -118.5q56 -42 130.5 -60t136.5 -18q159 0 268 96t109 248q0 72 -24 129.5t-62.5 93t-90.5 59t-104 33t-107 9.5q-177 0 -282 -86.5 t-105 -231.5zM233 1090q0 -134 99 -220t237 -86q158 0 250 90.5t92 223.5q0 145 -99.5 225t-238.5 80q-156 0 -248 -90t-92 -223z" />
<glyph unicode="9" horiz-adv-x="1150" d="M113 391h80q21 -158 112 -253t244 -95q73 0 133.5 24.5t103.5 65t76 97.5t53 118t33 130.5t18 131t5 123.5q0 35 -4 101q-57 -149 -155 -227.5t-253 -78.5q-198 0 -316 130.5t-118 330.5q0 133 51.5 242t153.5 175.5t237 66.5q83 0 152 -23.5t117.5 -63.5t85.5 -97 t60 -118t37 -133.5t19.5 -137.5t5.5 -134q0 -791 -499 -791q-195 0 -300.5 109.5t-131.5 306.5zM205 993q0 -182 102 -289.5t254 -107.5q164 0 267.5 117.5t103.5 285.5q0 169 -104.5 287.5t-258.5 118.5q-167 0 -265.5 -121t-98.5 -291z" />
<glyph unicode=":" horiz-adv-x="555" d="M250 0v137h135v-137h-135zM250 926v137h135v-137h-135z" />
<glyph unicode=";" horiz-adv-x="555" d="M178 -219l109 360h149l-190 -360h-68zM293 930v135h133v-135h-133z" />
<glyph unicode="&#x3c;" horiz-adv-x="1482" d="M233 563v70l955 489v-88l-846 -430l846 -430v-94z" />
<glyph unicode="=" horiz-adv-x="1482" d="M203 389v76h1077v-76h-1077zM203 729v78h1077v-78h-1077z" />
<glyph unicode="&#x3e;" horiz-adv-x="1482" d="M295 80v88l846 430l-846 430v94l954 -483v-70z" />
<glyph unicode="?" horiz-adv-x="937" d="M55 993q0 44 2.5 75.5t13.5 87.5t40 108.5t75 95.5q58 53 138.5 81.5t169.5 28.5q166 0 271 -99t105 -241q0 -43 -12 -84.5t-28.5 -75.5t-52.5 -80.5t-65.5 -80.5t-84.5 -94q-89 -98 -111 -147t-22 -132v-180h-82v154q1 49 2 75.5t9.5 59.5t16 50t33.5 52.5t49 62 t74 83.5q111 125 153 195t42 149q0 116 -89.5 187t-216.5 71q-170 0 -266 -121q-34 -43 -52.5 -101.5t-21.5 -91.5t-4 -88h-86zM393 0v125h123v-125h-123z" />
<glyph unicode="@" horiz-adv-x="1533" d="M80 672q0 169 61 320t165 259t249.5 171t308.5 63q176 0 316.5 -76.5t219.5 -213t79 -308.5q0 -109 -35.5 -216t-90.5 -184.5t-125.5 -125.5t-137.5 -48q-64 0 -100 40t-36 112v24q-47 -82 -119.5 -128t-152.5 -46q-106 0 -167.5 81t-61.5 222q0 138 54 259t146 192.5 t197 71.5q81 0 135 -40t74 -114l26 115h74l-108 -500q-19 -88 -19 -135q0 -92 74 -92q45 0 92 35q97 71 155 200t58 275q0 235 -154.5 385.5t-398.5 150.5q-199 0 -359.5 -98t-251.5 -271.5t-91 -387.5q0 -295 178.5 -473.5t474.5 -178.5q351 0 629 275l47 -43 q-149 -152 -314.5 -224.5t-361.5 -72.5q-216 0 -381.5 90t-256.5 254.5t-91 380.5zM535 618q0 -110 43.5 -174.5t117.5 -64.5q75 0 139 50.5t104 128.5t62.5 167t22.5 172q0 86 -46 134t-126 48q-86 0 -159 -62t-115.5 -168t-42.5 -231z" />
<glyph unicode="A" horiz-adv-x="1193" d="M-4 0v63h123l403 1319h-137v64h418v-64h-137l401 -1319h125v-63h-350v63h137l-115 394h-551l-118 -394h149v-63h-348zM332 522h512l-252 860z" />
<glyph unicode="B" horiz-adv-x="1150" d="M43 0v63h170v1319h-170v64h547q64 0 113.5 -6.5t100 -23.5t91.5 -51.5t72 -86.5q49 -84 49 -184q0 -122 -70 -210t-190 -114q141 -24 219 -122.5t78 -244.5q0 -132 -67 -236.5t-189 -143.5q-72 -23 -195 -23h-559zM291 63h338q156 0 248 87.5t92 242.5q0 174 -99 258 t-270 84h-309v-672zM291 803h315q61 0 118 17.5t104 51t75.5 90t28.5 128.5q0 102 -48 169t-124 95t-178 28h-291v-579z" />
<glyph unicode="C" horiz-adv-x="1150" d="M88 694q0 75 5.5 145t20 150t37.5 148t61.5 131.5t88 108t120.5 71.5t157 27q133 0 229 -69t137 -194v234h68v-440h-70q-11 80 -36.5 148.5t-68.5 126.5t-109.5 91t-149.5 33q-71 0 -130.5 -25t-100.5 -66t-73 -99t-51 -118.5t-30.5 -131t-16 -130.5t-4.5 -122 q0 -67 4 -127t15.5 -129.5t30.5 -127t51.5 -112.5t75 -92.5t104.5 -60.5t137 -23q91 0 160.5 33t111.5 92t64.5 132t27.5 161h82q-10 -89 -29 -160.5t-54.5 -134t-85.5 -104t-123 -65.5t-166 -24q-95 0 -172.5 31t-129.5 86t-90 124t-58.5 153t-30 164t-9.5 165z" />
<glyph unicode="D" horiz-adv-x="1193" d="M47 0v63h170v1319h-170v64h490q168 0 249 -35q75 -32 132 -92t90.5 -129t54.5 -155.5t28 -162.5t7 -159q0 -101 -12.5 -191.5t-43 -185.5t-91.5 -170t-148 -117q-102 -49 -340 -49h-416zM297 63h166q67 0 110 2t105.5 13.5t103.5 34.5q69 38 117.5 108t72.5 157t34 167 t10 164q0 87 -8.5 168t-31 173.5t-70 167t-115.5 113.5q-56 32 -117 41.5t-146 9.5h-231v-1319z" />
<glyph unicode="E" horiz-adv-x="1110" d="M49 0v63h168v1319h-168v64h914v-426h-72v362h-596v-585h543v-68h-543v-666h596v396h72v-459h-914z" />
<glyph unicode="F" horiz-adv-x="980" d="M47 0v63h168v1319h-168v64h858v-424h-71v360h-539v-587h491v-66h-491v-666h170v-63h-418z" />
<glyph unicode="G" horiz-adv-x="1236" d="M90 731q0 85 10 166.5t31.5 167t60.5 157.5t92.5 129t132 89.5t173.5 32.5q83 0 150.5 -23t112.5 -64t74.5 -88t47.5 -104v252h69v-440h-71q-14 82 -42 151t-73 126t-113.5 89.5t-154.5 32.5q-81 0 -147.5 -32t-110.5 -88.5t-75.5 -124.5t-48.5 -148t-24.5 -151 t-7.5 -142q0 -88 11.5 -174.5t42.5 -179.5t78 -162.5t124.5 -114.5t175.5 -45q116 0 207 66q57 41 94 100.5t53.5 134t22 134.5t6.5 143h-405v67h481v-688h-72l-4 219q-125 -244 -389 -244q-97 0 -177.5 33t-135 91t-94.5 131t-62 160.5t-32.5 171t-10.5 169.5z" />
<glyph unicode="H" horiz-adv-x="1280" d="M49 0v63h166v1319h-166v64h414v-64h-166v-596h684v596h-170v64h414v-64h-164v-1319h164v-63h-414v63h170v656h-684v-656h166v-63h-414z" />
<glyph unicode="I" horiz-adv-x="512" d="M53 0v63h164v1319h-164v64h410v-64h-166v-1319h166v-63h-410z" />
<glyph unicode="J" horiz-adv-x="768" d="M-8 16v84q40 -18 66.5 -28t72 -19.5t92.5 -9.5q147 0 213 104q28 46 36.5 106.5t8.5 166.5v962h-172v64h418v-64h-166v-989q0 -148 -26 -221q-73 -199 -322 -199q-86 0 -221 43z" />
<glyph unicode="K" horiz-adv-x="1150" d="M47 0v63h168v1319h-168v64h410v-64h-162v-655l610 655h-166v64h396v-64h-129l-488 -514l488 -805h141v-63h-397v63h165l-454 746l-166 -178v-568h162v-63h-410z" />
<glyph unicode="L" horiz-adv-x="980" d="M47 0v63h168v1319h-168v64h410v-64h-162v-1319h532v396h70v-459h-850z" />
<glyph unicode="M" horiz-adv-x="1536" d="M49 0v63h168v1319h-168v64h295l420 -1329l428 1329h293v-64h-164v-1319h164v-63h-398v63h154v1319l-440 -1382h-76l-436 1382v-1319h145v-63h-385z" />
<glyph unicode="N" horiz-adv-x="1280" d="M55 0v63h162v1319h-162v64h277l669 -1383v1319h-163v64h399v-64h-164v-1382h-121l-665 1368v-1305h166v-63h-398z" />
<glyph unicode="O" horiz-adv-x="1236" d="M86 729q0 77 7 150t24.5 149t44.5 141t69 123t96 99t127.5 64.5t161.5 23.5q122 0 217.5 -46t154.5 -119.5t97 -175t53 -203t15 -212.5q0 -78 -7.5 -151.5t-25.5 -149t-45.5 -140.5t-70 -122t-96.5 -97.5t-128 -64t-162 -23.5q-101 0 -184 31.5t-140 88t-98.5 128 t-65 158.5t-34 172t-10.5 176zM168 731q0 -94 11.5 -183t43 -183.5t80 -164t129.5 -114.5t184 -45q108 0 190.5 45t131 114.5t79.5 165.5t41.5 185.5t10.5 187.5q0 76 -8.5 149t-28 151t-54.5 143t-83.5 117.5t-120.5 82t-160 29.5q-106 0 -187.5 -46t-129 -116t-78 -164.5 t-41 -179.5t-10.5 -174z" />
<glyph unicode="P" d="M47 0v63h168v1319h-168v64h533q115 0 182 -27q109 -43 161 -147.5t52 -233.5q0 -141 -57 -243q-28 -50 -63.5 -84t-70 -52.5t-84.5 -28.5t-89 -12t-101 -2h-215v-553h172v-63h-420zM295 682h227q136 0 203 33q87 41 125.5 129t38.5 196q0 78 -25.5 156.5t-75.5 120.5 q-74 65 -225 65h-268v-700z" />
<glyph unicode="Q" horiz-adv-x="1236" d="M86 713q0 80 7 154t24 152t44 143.5t69.5 125t97 100.5t130 65t165.5 24q122 0 216.5 -47t152 -121t94.5 -177t51 -204t14 -213q0 -339 -138 -537.5t-376 -204.5q178 -106 401 -215l-63 -59q-166 91 -496 293q-89 20 -159 76.5t-113 130.5t-71 166t-39 177t-11 171z M168 725q0 -61 4.5 -120t17 -129t33 -130t55.5 -117.5t80.5 -98t111.5 -65t146 -24.5q79 0 145.5 24.5t112 65.5t81 99t57 118.5t34.5 131t18 131t5 122.5q0 107 -13.5 201.5t-46.5 183t-82.5 152t-127.5 101.5t-176 38q-99 0 -178 -38.5t-130 -102.5t-85 -153t-48 -185.5 t-14 -204.5z" />
<glyph unicode="R" horiz-adv-x="1193" d="M51 0v63h164v1319h-164v64h598q176 0 267.5 -90.5t91.5 -257.5q0 -126 -62.5 -220t-181.5 -118q91 -38 122.5 -88t47.5 -160l67 -449h150v-63h-223l-43 303q-3 21 -9.5 71t-10.5 79t-13 70t-21 73q-11 32 -27.5 56t-40 38t-43.5 22.5t-51.5 12t-49 4t-50.5 0.5h-272v-666 h170v-63h-416zM297 797h324q70 0 125 19t88 48.5t54.5 69.5t29.5 78t8 78q0 292 -312 292h-317v-585z" />
<glyph unicode="S" horiz-adv-x="1110" d="M147 0v455h68q0 -54 11 -108t38 -110.5t67.5 -99.5t105.5 -70.5t145 -27.5q143 0 232 93t89 230q0 27 -5 56t-18.5 70t-45 81.5t-78.5 71.5q-65 44 -226 96.5t-231 98.5q-69 46 -107 117t-38 155q0 133 77 229q111 138 297 138q120 0 214.5 -63t140.5 -185v219h67v-424 h-67q-19 183 -115 286t-244 103q-130 0 -212.5 -87t-82.5 -208q0 -60 19.5 -106t57.5 -78.5t76.5 -53.5t94.5 -42q26 -10 98 -35t112 -41t94.5 -47t90.5 -66q109 -109 109 -282q0 -76 -25 -142q-23 -64 -63.5 -111.5t-81.5 -72.5t-90 -40t-80 -18.5t-61 -3.5 q-122 0 -217 56.5t-148 169.5v-203h-68z" />
<glyph unicode="T" horiz-adv-x="1067" d="M51 1018v428h961v-428h-66v364h-373v-1319h166v-63h-411v63h164v1319h-369v-364h-72z" />
<glyph unicode="U" horiz-adv-x="1193" d="M27 1382v64h417v-64h-178v-929q0 -52 1 -80.5t7.5 -70.5t20.5 -75q38 -93 120.5 -140.5t180.5 -47.5q84 0 153 32.5t111 90.5q42 57 54 136.5t12 225.5v858h-168v64h409v-64h-166v-813q0 -99 -1.5 -148.5t-8.5 -113.5t-23 -107t-44 -79q-55 -72 -143.5 -110t-186.5 -38 q-154 0 -272 95q-46 37 -74.5 79t-40.5 94t-15.5 94.5t-3.5 110.5v936h-161z" />
<glyph unicode="V" horiz-adv-x="1193" d="M-6 1382v64h375v-64h-150l383 -1282l377 1282h-154v64h371v-64h-137l-414 -1382h-94l-420 1382h-137z" />
<glyph unicode="W" horiz-adv-x="1835" d="M8 1382v64h367v-64h-148l287 -1290l352 1354h103l360 -1354l287 1290h-160v64h369v-64h-135l-308 -1382h-106l-361 1346l-352 -1346h-102l-316 1382h-137z" />
<glyph unicode="X" horiz-adv-x="1110" d="M12 0v63h121l379 701l-336 618h-121v64h342v-64h-133l295 -555l293 555h-147v64h354v-64h-127l-334 -618l379 -701h119v-63h-346v63h139l-334 635l-346 -635h158v-63h-355z" />
<glyph unicode="Y" horiz-adv-x="1110" d="M4 1382v64h379v-64h-152l326 -772l328 772h-162v64h381v-64h-141l-371 -852v-467h162v-63h-410v63h168v467l-375 852h-133z" />
<glyph unicode="Z" d="M86 0v63l745 1317h-649v-358h-71v424h811v-66l-744 -1314h674v395h70v-461h-836z" />
<glyph unicode="[" horiz-adv-x="468" d="M147 -385v1868h304v-64h-228v-1741h228v-63h-304z" />
<glyph unicode="\" horiz-adv-x="681" d="M-8 1655h82l616 -1856h-84z" />
<glyph unicode="]" horiz-adv-x="468" d="M16 -322h228v1741h-228v64h306v-1868h-306v63z" />
<glyph unicode="^" horiz-adv-x="1482" d="M293 592l409 854h74l412 -854h-84l-363 762l-362 -762h-86z" />
<glyph unicode="_" d="M-20 -332h1064v-59h-1064v59z" />
<glyph unicode="`" horiz-adv-x="598" d="M182 1495h148l86 -287h-60z" />
<glyph unicode="a" d="M94 287q0 157 124 254.5t347 97.5q70 0 176 -12v129q0 124 -64.5 196t-189.5 72q-109 0 -178.5 -59t-81.5 -166h-90q47 291 346 291q175 0 255.5 -93t80.5 -256v-678h162v-63h-238v164q-44 -90 -126.5 -139.5t-186.5 -49.5q-80 0 -145.5 27t-106 72t-62.5 100t-22 113z M174 289q0 -113 76 -180.5t190 -67.5q71 0 125.5 24t87.5 62.5t54 93.5t28.5 109.5t7.5 118.5v112q-104 17 -180 17q-185 0 -287 -79t-102 -210z" />
<glyph unicode="b" horiz-adv-x="1110" d="M41 0v63h168v1319h-168v64h246v-574q49 99 138 159.5t202 60.5q87 0 156.5 -36t112.5 -93t71.5 -133.5t39.5 -152.5t11 -155q0 -67 -8.5 -129t-26 -125t-49 -114.5t-74 -91.5t-104 -62.5t-135.5 -22.5q-230 0 -334 236v-213h-246zM285 532q0 -66 10 -131t34.5 -131 t61 -116t94.5 -81.5t129 -31.5q108 0 181.5 65t106 169t32.5 241q0 238 -81.5 372t-231.5 134q-162 0 -249 -133t-87 -357z" />
<glyph unicode="c" horiz-adv-x="894" d="M88 520q0 79 10.5 153.5t38 152t69.5 134.5t110 93.5t155 36.5q94 0 170.5 -51t106.5 -138v164h61v-352h-59q-7 59 -27 113t-52.5 100.5t-84 74t-113.5 27.5q-71 0 -126.5 -35.5t-88 -89t-53 -124.5t-28 -134.5t-7.5 -126.5t8.5 -125.5t31 -128t56.5 -115t89.5 -81 t125.5 -31.5q65 0 115.5 26t81.5 71t48.5 98.5t23.5 115.5h77q-7 -78 -28.5 -142t-60 -117.5t-101.5 -83.5t-145 -30q-89 0 -160 32t-116 84.5t-74.5 124.5t-41.5 147t-12 157z" />
<glyph unicode="d" horiz-adv-x="1110" d="M88 528q0 82 12.5 159t42.5 151.5t75.5 130t117 89.5t160.5 34q108 0 197 -56t126 -155v501h-157v64h237v-1383h158v-63h-238v219q-44 -116 -127.5 -179t-204.5 -63q-89 0 -159 33t-114.5 86.5t-73.5 126.5t-40.5 148t-11.5 157zM172 528q0 -231 86 -358 q89 -127 227 -127q77 0 135.5 33t94.5 78q106 132 106 397q0 114 -22 201.5t-55 138.5t-78 83t-85.5 43t-82.5 11q-67 0 -127 -31q-199 -102 -199 -469z" />
<glyph unicode="e" d="M90 539q0 87 14 165t46 150t79.5 124t119.5 83t161 31q94 0 169.5 -34.5t122 -88.5t77.5 -127t43 -144t12 -145h-756v-18q0 -69 10 -134.5t35 -131t63 -114t98 -78.5t136 -30q136 0 217 94.5t94 235.5h84q-20 -193 -120.5 -296.5t-270.5 -103.5q-91 0 -165 32.5 t-123.5 87t-83 127.5t-48 152t-14.5 163zM178 623h670q-7 78 -29.5 146.5t-62 127t-103.5 93t-145 34.5q-62 0 -115.5 -23t-91.5 -62.5t-66 -91t-42 -108.5t-15 -116z" />
<glyph unicode="f" horiz-adv-x="598" d="M57 0v63h168v938h-168v64h168v152q0 132 45 192.5t172 60.5q58 0 140 -10v-69q-68 14 -119 14q-93 0 -126.5 -39.5t-33.5 -134.5v-166h189v-64h-189v-938h170v-63h-416z" />
<glyph unicode="g" horiz-adv-x="1110" d="M90 545q0 79 13.5 154t44.5 146.5t76 125.5t115 86.5t155 32.5q123 0 206 -65.5t119 -184.5v225h242v-64h-164v-1007q0 -59 -2 -95t-11 -85t-26 -82t-49.5 -67t-79.5 -58q-100 -53 -229 -53q-148 0 -241.5 77t-127.5 224h88q17 -111 96 -171.5t193 -60.5q90 0 168 36.5 t112 109.5q29 61 29 251v193q-101 -213 -325 -213q-87 0 -157 32.5t-115 86t-75 125.5t-42.5 146.5t-12.5 154.5zM172 543q0 -132 36.5 -239.5t111 -174t174.5 -66.5q106 0 181.5 69.5t109.5 174t34 230.5q0 122 -28 218.5t-74.5 154.5t-103 88t-117.5 30 q-135 0 -229.5 -129t-94.5 -356z" />
<glyph unicode="h" horiz-adv-x="1150" d="M39 0v63h170v1319h-170v64h248v-559q42 103 134 154t210 51q64 0 117 -16t98.5 -51.5t71.5 -99.5t26 -151v-711h168v-63h-410v63h164v715q0 66 -21.5 116t-58 77.5t-80 41t-92.5 13.5q-163 0 -245 -107.5t-82 -281.5v-574h166v-63h-414z" />
<glyph unicode="i" horiz-adv-x="512" d="M55 0v63h168v938h-168v64h246v-1002h166v-63h-412zM182 1331v115h119v-115h-119z" />
<glyph unicode="j" horiz-adv-x="468" d="M-158 -334q107 -43 195 -43q90 0 129 46.5t39 135.5v1196h-166v64h246v-1255q0 -252 -248 -252q-101 0 -195 32v76zM162 1331v115h123v-115h-123z" />
<glyph unicode="k" d="M45 0v63h166v1319h-166v64h246v-897l471 452h-160v64h375v-64h-115l-342 -317l361 -621h110v-63h-346v63h139l-323 566l-170 -162v-404h170v-63h-416z" />
<glyph unicode="l" horiz-adv-x="512" d="M47 0v63h164v1319h-164v64h242v-1383h168v-63h-410z" />
<glyph unicode="m" horiz-adv-x="1622" d="M55 0v63h168v938h-168v64h240v-182q33 95 108 148.5t187 53.5q227 0 262 -200q27 95 113 148.5t190 53.5q94 0 156 -43q63 -45 82.5 -105.5t19.5 -154.5v-721h154v-63h-406v63h174v752q0 207 -198 207q-279 0 -279 -438v-521h170v-63h-414v63h166v725q0 79 -19.5 129.5 t-78.5 81.5q-48 23 -98 23q-94 0 -162 -53q-72 -55 -96.5 -145.5t-24.5 -221.5v-539h166v-63h-412z" />
<glyph unicode="n" horiz-adv-x="1150" d="M55 0v63h170v938h-170v64h242v-197q36 108 125.5 165t212.5 57q204 0 276 -156q33 -70 33 -242v-629h168v-63h-420v63h172v670q0 81 -12.5 137.5t-54.5 96.5q-62 59 -176 59q-49 0 -100.5 -16.5t-88.5 -46.5q-76 -62 -101.5 -153t-25.5 -228v-519h162v-63h-412z" />
<glyph unicode="o" d="M92 526q0 85 14 163.5t46.5 152.5t80.5 128t122 87t165 33q87 0 157.5 -32.5t117.5 -86.5t79 -126t46 -148t14 -156q0 -82 -14 -159.5t-46.5 -152t-80 -130t-120 -89t-161.5 -33.5t-161 32t-119.5 85t-79.5 125t-46 148.5t-14 158.5zM182 532q0 -225 90 -359t236 -134 q109 0 187 71.5t113.5 181t35.5 243.5q0 230 -90.5 360.5t-239.5 130.5q-106 0 -182.5 -68.5t-113 -178.5t-36.5 -247z" />
<glyph unicode="p" horiz-adv-x="1110" d="M45 -356h170v1357h-170v64h242v-207q60 115 134 174.5t191 59.5q89 0 160 -33.5t116 -88t75 -128.5t42.5 -150t12.5 -157q0 -102 -22 -196.5t-68 -177.5t-127.5 -133.5t-188.5 -50.5q-106 0 -193 56t-132 172v-561h180v-64h-422v64zM291 522q0 -68 8 -130t30 -127.5 t56 -113t92 -78t133 -30.5q74 0 132.5 32.5t94 83t58.5 118.5t32 132.5t9 131.5t-8.5 130t-31.5 129t-58 114t-92.5 79t-131.5 31q-105 0 -179.5 -67t-109 -178t-34.5 -257z" />
<glyph unicode="q" horiz-adv-x="1110" d="M88 535q0 81 12.5 157t43 150t75.5 128.5t116 88t159 33.5q117 0 191 -59.5t134 -174.5v207h242v-64h-170v-1357h170v-64h-422v64h180v561q-41 -111 -125.5 -169.5t-199.5 -58.5q-87 0 -157.5 34t-116 89t-76 129t-43.5 150t-13 156zM170 541q0 -66 9 -130.5t32 -132.5 t58 -119t93 -83.5t132 -32.5q75 0 133 30.5t92.5 78t57 113t30.5 128t8 129.5q0 58 -7 113.5t-21 113.5t-40 106.5t-60 87t-84.5 60t-110.5 21.5q-74 0 -131.5 -31t-92.5 -79t-58 -114t-31.5 -129t-8.5 -130z" />
<glyph unicode="r" horiz-adv-x="681" d="M55 0v63h168v938h-168v64h242v-164q33 85 100 134.5t158 49.5q38 0 86 -10v-86q-62 15 -102 15q-54 0 -96 -20t-68 -52.5t-43.5 -77.5t-24 -90t-6.5 -94v-607h168v-63h-414z" />
<glyph unicode="s" horiz-adv-x="894" d="M121 0v352h61q11 -77 37.5 -136t57 -91.5t69 -53t68.5 -26.5t61 -6q96 0 168 62.5t72 156.5q0 36 -8 65.5t-30.5 55.5t-44 44.5t-68.5 43t-82 40.5t-105 46q-50 22 -81 37.5t-68 41t-57.5 52t-35 65.5t-14.5 85q0 116 83 187t212 71q50 0 93.5 -13t68.5 -27t52 -43 t35.5 -41t26.5 -40v135h64v-340h-64q-3 19 -5 31t-11 47t-20.5 60t-33.5 58.5t-49 54.5t-68.5 36.5t-90.5 15.5q-95 0 -158 -55t-63 -140q0 -62 37 -102t102 -74q34 -18 93.5 -43.5t103.5 -44.5t96 -50t85 -63.5t55.5 -81t22.5 -106.5q0 -126 -90 -207.5t-219 -81.5 q-103 0 -172.5 42.5t-124.5 123.5v-143h-61z" />
<glyph unicode="t" horiz-adv-x="641" d="M35 1001v64h184v240l76 18v-258h293v-64h-293v-743q0 -55 4.5 -86.5t21 -60t50 -40.5t88.5 -12q43 0 129 21v-70q-78 -16 -152 -16q-116 0 -167.5 59t-51.5 174v774h-182z" />
<glyph unicode="u" horiz-adv-x="1110" d="M35 1001v64h244v-725q0 -87 14.5 -147t64.5 -101q58 -47 138 -47q92 0 166 61q56 46 87.5 117.5t39.5 135.5t8 149v493h-174v64h251v-1002h162v-63h-239v184q-57 -101 -127 -154t-176 -53q-82 0 -146 31q-47 24 -78 57t-46 74.5t-20 80.5t-5 91v690h-164z" />
<glyph unicode="v" horiz-adv-x="980" d="M-4 1001v64h373v-64h-168l297 -923l288 923h-157v64h356v-64h-119l-329 -1001h-91l-333 1001h-117z" />
<glyph unicode="w" horiz-adv-x="1622" d="M-4 1001v64h360v-64h-163l266 -946l291 1008h112l299 -997l271 935h-172v64h364v-64h-113l-288 -1001h-121l-295 987l-287 -987h-119l-288 1001h-117z" />
<glyph unicode="x" horiz-adv-x="937" d="M23 0v63h122l279 490l-256 448h-121v64h344v-64h-135l209 -383l217 383h-133v64h334v-64h-117l-262 -448l276 -490h121v-63h-352v63h137l-223 416l-236 -416h138v-63h-342z" />
<glyph unicode="y" horiz-adv-x="1067" d="M10 1001v64h375v-64h-162l322 -911l319 911h-157v64h352v-64h-119l-412 -1146q-16 -46 -24.5 -69t-26 -62t-32 -59t-38.5 -46.5t-50 -39.5t-62 -22.5t-78 -9.5q-46 0 -102 17v71q49 -18 102 -18t92.5 19t67.5 58t44 74t36 91l47 133l-371 1009h-123z" />
<glyph unicode="z" horiz-adv-x="894" d="M78 0v63l645 938h-565v-276h-66v340h717v-64l-637 -938h571v289h66v-352h-731z" />
<glyph unicode="{" horiz-adv-x="509" d="M14 518v60q54 14 83.5 27.5t49.5 40.5t26.5 65t6.5 104v379q0 79 10 129.5t37 90t77 56.5t128 17h55v-64h-55q-51 0 -78.5 -5.5t-52 -25.5t-34 -61t-9.5 -110v-400q0 -124 -33 -179.5t-127 -92.5q94 -37 127 -93t33 -180v-372q0 -139 30 -185.5t132 -46.5h67v-63h-51 q-144 0 -200 65.5t-56 221.5v389q0 120 -32 164t-134 69z" />
<glyph unicode="|" horiz-adv-x="362" d="M143 -385v1868h76v-1868h-76z" />
<glyph unicode="}" horiz-adv-x="509" d="M23 -328h55q50 0 78 5.5t52.5 26t34 61.5t9.5 110v399q0 124 33 180t127 93q-94 37 -127 92.5t-33 179.5v373q0 139 -30 185t-132 46h-67v64h51q144 0 200 -65.5t56 -221.5v-389q0 -120 32 -164t134 -69v-60q-54 -14 -83.5 -27.5t-49.5 -40.5t-26.5 -65t-6.5 -104v-379 q0 -79 -10 -129.5t-37 -90t-77 -56.5t-128 -17h-55v63z" />
<glyph unicode="~" horiz-adv-x="1482" d="M168 526q78 104 144.5 148.5t154.5 44.5q98 0 231 -68l127 -63q74 -36 110.5 -48t76.5 -12q73 0 127 38t141 145l55 -52q-94 -121 -165 -165.5t-164 -44.5q-56 0 -94.5 12t-137.5 61l-125 62q-117 57 -192 57q-60 0 -104 -31t-128 -135z" />
<glyph unicode="&#xa1;" horiz-adv-x="555" d="M172 1327v119h121v-119h-121zM184 0l9 1190h79q7 -1012 9 -1190h-97z" />
<glyph unicode="&#xa2;" horiz-adv-x="937" d="M94 535q0 73 9.5 144.5t35 148t63.5 134.5t100 97.5t140 44.5v188h64v-188q178 -14 248 -186v163h61v-352h-59q-11 117 -77.5 208.5t-172.5 104.5v-987q61 4 107.5 31.5t75.5 72t45 96t22 110.5h78q-9 -80 -29.5 -142.5t-58 -114t-98 -81.5t-142.5 -35v-195h-64v199 q-76 5 -137 42t-99.5 91.5t-64.5 125.5t-36.5 140.5t-10.5 139.5zM176 535q0 -61 6.5 -118t25 -119t47 -109.5t77 -83.5t110.5 -48v983q-62 -11 -110.5 -49.5t-77 -90t-47 -118.5t-25 -126.5t-6.5 -120.5z" />
<glyph unicode="&#xa3;" horiz-adv-x="1110" d="M37 0v66h160l98 679h-170v64h178l25 166q15 106 22.5 149.5t25 101t42.5 93.5q31 43 70.5 70.5t83.5 38.5t75.5 14.5t73.5 3.5h184v-64h-149q-39 0 -68.5 -2.5t-68 -11.5t-71 -30t-56.5 -54q-51 -69 -84 -297l-25 -176h401v-63h-409l-99 -680h674v391h72v-459h-985z" />
<glyph unicode="&#xa4;" horiz-adv-x="1384" d="M156 696q0 100 31.5 184.5t101.5 168.5l-125 125l57 55l123 -125q85 68 168.5 98.5t183.5 30.5q103 0 184 -29t167 -96l122 123l56 -57l-125 -123q129 -161 129 -357q0 -95 -29.5 -175t-99.5 -177l123 -125l-56 -55l-125 125q-149 -131 -352 -131q-99 0 -181.5 31.5 t-168.5 99.5l-117 -119l-55 55l117 121q-129 150 -129 352zM238 696q0 -200 133 -335.5t329 -135.5q189 0 319 135t130 330q0 204 -130 339.5t-325 135.5q-194 0 -325 -135t-131 -334z" />
<glyph unicode="&#xa5;" horiz-adv-x="1140" d="M20 1382v64h379v-64h-151l325 -772l328 772h-162v64h381v-64h-141l-266 -612h331v-63h-358l-76 -172h434v-64h-436v-408h162v-63h-410v63h168v408h-432v64h430l-75 172h-355v63h328l-270 612h-134z" />
<glyph unicode="&#xa6;" horiz-adv-x="362" d="M143 -385v793h76v-793h-76zM143 690v793h76v-793h-76z" />
<glyph unicode="&#xa7;" horiz-adv-x="980" d="M90 584q0 46 16 88.5t36 70.5t54.5 58t52.5 43t50 33q-30 27 -47 44.5t-44.5 54t-41.5 81.5t-14 98q0 132 90.5 226t240.5 94q106 0 182 -46t119 -112q11 -18 20 -39.5t14 -35t10 -40.5t6 -34.5t4.5 -39.5t3.5 -34h-80q-3 127 -77 218t-204 91q-116 0 -184 -74.5 t-68 -175.5q0 -88 58 -154t182 -141q180 -107 215 -131q43 -30 74 -57t62 -63t47 -78.5t16 -90.5q0 -46 -16 -89.5t-37 -73t-54 -59.5t-51.5 -43.5t-46.5 -31.5q30 -28 49.5 -49.5t46 -59t40 -83t13.5 -96.5q0 -133 -102 -219.5t-238 -86.5q-128 0 -223 80 q-39 32 -64.5 69.5t-38.5 81.5t-17.5 73.5t-8.5 76.5h78q3 -135 78 -222t205 -87q105 0 180.5 65t75.5 166q0 35 -10.5 68.5t-24.5 59.5t-40.5 53.5t-46.5 45t-56 41.5t-55 35.5t-56 32.5q-58 34 -87 51.5t-76.5 48.5t-71.5 51.5t-55.5 52t-46 59t-25.5 62.5t-11 73z M170 582q0 -46 19 -86.5t56.5 -74t64.5 -52.5t71 -45q25 -15 109 -65t131 -77q36 22 59.5 39.5t56 49.5t49.5 73.5t17 89.5q0 28 -8 54.5t-18.5 47t-33 43.5t-40 38.5t-51 38t-54 35t-61.5 36.5l-181 109q-79 -47 -123 -99q-63 -74 -63 -155z" />
<glyph unicode="&#xa8;" horiz-adv-x="598" d="M96 1235v135h131v-135h-131zM371 1235v135h129v-135h-129z" />
<glyph unicode="&#xa9;" horiz-adv-x="1640" d="M92 723q0 200 96.5 367.5t264 264.5t368.5 97t368.5 -96.5t264 -263.5t96.5 -367q0 -152 -57 -287.5t-154.5 -233t-233 -154t-286.5 -56.5q-200 0 -367 97t-263.5 264.5t-96.5 367.5zM143 721q0 -140 53 -267t143 -218.5t215.5 -145t264.5 -53.5q185 0 341.5 91.5 t246.5 248.5t90 344q0 190 -89.5 348t-245.5 249t-343 91q-184 0 -339.5 -92t-246 -250.5t-90.5 -345.5zM436 713q0 212 101 343.5t264 131.5q176 0 260 -160v137h59v-297h-57q-29 129 -95.5 195.5t-166.5 66.5q-132 0 -211.5 -116t-79.5 -307q0 -186 81 -296t218 -110 q226 0 260 258h68q-17 -152 -101 -233.5t-225 -81.5q-174 0 -274.5 125.5t-100.5 343.5z" />
<glyph unicode="&#xaa;" horiz-adv-x="641" d="M55 977q0 59 26 104t70 70.5t94.5 38t106.5 12.5q52 0 101 -6v59q0 166 -148 166q-65 0 -105 -36t-46 -101h-74q18 98 71 146.5t152 48.5q213 0 213 -234v-395h100v-55h-161v77q-28 -46 -78.5 -70t-108.5 -24q-88 0 -150.5 56t-62.5 143zM121 979q0 -66 44 -104.5 t111 -38.5q49 0 84 19t53.5 46t28.5 68t12.5 72.5t2.5 72.5l-2 25q-47 8 -103 8q-60 0 -109 -14t-85.5 -53.5t-36.5 -100.5z" />
<glyph unicode="&#xab;" horiz-adv-x="724" d="M94 586l166 340h78l-135 -353l135 -333h-78zM377 586l166 340h78l-134 -353l134 -333h-78z" />
<glyph unicode="&#xac;" horiz-adv-x="1482" d="M158 639v74h1122v-635h-78v561h-1044z" />
<glyph unicode="&#xad;" horiz-adv-x="894" d="M80 547v74h731v-74h-731z" />
<glyph unicode="&#xae;" horiz-adv-x="1640" d="M92 723q0 200 96.5 367.5t264 264.5t368.5 97t368.5 -96.5t264 -263.5t96.5 -367q0 -152 -57 -287.5t-154.5 -233t-233 -154t-286.5 -56.5q-200 0 -367 97t-263.5 264.5t-96.5 367.5zM143 721q0 -140 53 -267t143 -218.5t215.5 -145t264.5 -53.5q185 0 341.5 91.5 t246.5 248.5t90 344q0 190 -89.5 348t-245.5 249t-343 91q-184 0 -339.5 -92t-246 -250.5t-90.5 -345.5zM479 289v59h109v754h-109v59h406q123 0 179 -58.5t56 -152.5q0 -158 -159 -202q57 -23 79 -57t35 -120l37 -223h102v-59h-163l-41 239q-12 67 -22 99.5t-34 53.5 t-56 25.5t-97 4.5h-146v-363h113v-59h-289zM655 772h176q106 0 161 42t55 124q0 164 -191 164h-201v-330z" />
<glyph unicode="&#xaf;" horiz-adv-x="598" d="M55 1235v78h486v-78h-486z" />
<glyph unicode="&#xb0;" horiz-adv-x="724" d="M80 1249q0 117 82.5 200t199.5 83q116 0 199.5 -84t83.5 -199q0 -116 -83.5 -198t-199.5 -82q-117 0 -199.5 81.5t-82.5 198.5zM141 1249q0 -91 65 -156t156 -65q93 0 158.5 64.5t65.5 156.5t-66 158t-158 66t-156.5 -66.5t-64.5 -157.5z" />
<glyph unicode="&#xb1;" horiz-adv-x="1482" d="M188 0v76h1098v-76h-1098zM188 848v76h510v495h78v-495h510v-76h-510v-500h-78v500h-510z" />
<glyph unicode="&#xb2;" horiz-adv-x="782" d="M80 907v58q33 33 95.5 96t89.5 90.5t70.5 72t65.5 69t46.5 53t39.5 49.5q80 109 80 204q0 72 -49 118t-141 46q-93 0 -143.5 -49.5t-59.5 -140.5h-72q10 124 83.5 189t195.5 65q112 0 186 -61.5t74 -166.5q0 -106 -84 -221q-15 -21 -33.5 -43.5t-46 -52t-46.5 -50 t-59 -61t-59 -59.5l-71 -71l-72 -72h420v194h63v-256h-573z" />
<glyph unicode="&#xb3;" horiz-adv-x="782" d="M74 1157h71q3 -31 13.5 -62t35 -68t74.5 -60t119 -23q100 0 168 56t68 143q0 81 -62 136.5t-178 55.5q-31 0 -68 -4v70q25 -2 54 -2q104 0 167.5 49t63.5 131q0 85 -60.5 135.5t-158.5 50.5q-90 0 -150 -47.5t-69 -146.5h-72q10 123 93.5 189.5t205.5 66.5 q131 0 207 -72.5t76 -169.5q0 -47 -15 -85.5t-40.5 -64t-49 -40.5t-49.5 -25q174 -52 174 -225q0 -110 -87.5 -185t-227.5 -75q-130 0 -212 72t-91 200z" />
<glyph unicode="&#xb4;" horiz-adv-x="598" d="M182 1208l86 287h146l-174 -287h-58z" />
<glyph unicode="&#xb5;" horiz-adv-x="1110" d="M33 1001v64h246v-741q0 -132 54.5 -205.5t162.5 -73.5q80 0 145 45q32 22 57 51t41.5 58t27.5 68.5t17 69.5t9 74.5t3.5 71t0.5 70.5v448h-174v64h251v-1002h162v-63h-239v184q-16 -28 -26.5 -44.5t-39.5 -51.5t-57.5 -55.5t-74 -38t-95.5 -17.5q-37 0 -69.5 7.5 t-52.5 16t-42.5 26t-32.5 27.5t-28 30v-502h-80v1419h-166z" />
<glyph unicode="&#xb6;" horiz-adv-x="1251" d="M166 1053q0 94 34 172t97 131q56 47 126.5 68.5t172.5 21.5h412v-64h-72v-1726h-68v1726h-315v-1726h-70v1022q-148 20 -232.5 120t-84.5 255z" />
<glyph unicode="&#xb7;" horiz-adv-x="468" d="M170 516v137h133v-137h-133z" />
<glyph unicode="&#xb8;" horiz-adv-x="598" d="M141 -313h74q14 -76 78 -76q43 0 66.5 26.5t23.5 67.5q0 40 -22 66t-62 26q-45 0 -70 -35l-71 15l71 254h66l-53 -193q40 21 73 21q63 0 102.5 -44t39.5 -108q0 -70 -47 -114t-117 -44q-68 0 -106 37t-46 101z" />
<glyph unicode="&#xb9;" horiz-adv-x="782" d="M252 1710v59l139 37h51v-843h117v-56h-295v56h107v782z" />
<glyph unicode="&#xba;" horiz-adv-x="641" d="M47 1128q0 65 15.5 125t46 111.5t83.5 82t121 30.5q72 0 125.5 -30.5t84 -82t45 -111.5t14.5 -127q0 -51 -9 -99.5t-30 -94.5t-51.5 -80t-76.5 -55t-102 -21q-58 0 -104 20.5t-76 54.5t-49.5 80.5t-28 95t-8.5 101.5zM119 1126q0 -136 52.5 -215.5t139.5 -79.5 q96 0 147.5 85.5t51.5 211.5q0 132 -52.5 212.5t-142.5 80.5q-91 0 -143.5 -82t-52.5 -213z" />
<glyph unicode="&#xbb;" horiz-adv-x="724" d="M102 246l134 352l-134 332h78l168 -346l-168 -338h-78zM385 246l133 352l-133 332h78l168 -348l-168 -336h-78z" />
<glyph unicode="&#xbc;" horiz-adv-x="1724" d="M242 1350v59l139 37h51v-844h117v-55h-295v55h106v782q-13 -4 -55.5 -16.5t-62.5 -17.5zM420 0l790 1446h76l-790 -1446h-76zM938 231v58l373 610h98v-608h205v-60h-205v-176h109v-55h-289v55h110v176h-401zM1008 291h331v536z" />
<glyph unicode="&#xbd;" horiz-adv-x="1724" d="M209 1350v59l139 37h51v-844h117v-55h-295v55h107v782q-13 -3 -56 -16t-63 -18zM385 0l791 1446h75l-790 -1446h-76zM1016 0v57q33 33 95.5 96t89.5 90.5t70.5 72t65.5 69t46.5 53t39.5 49.5q80 109 80 205q0 72 -49 118t-141 46q-93 0 -143.5 -49.5t-59.5 -140.5h-72 q10 124 83.5 189t195.5 65q112 0 186 -61.5t74 -166.5q0 -106 -84 -221q-12 -16 -26 -33.5t-33 -39t-33.5 -38t-41.5 -44t-42 -43.5t-49 -50t-49 -49.5t-56 -56t-57 -56.5h420v195h63v-256h-573z" />
<glyph unicode="&#xbe;" horiz-adv-x="1724" d="M113 797h71q3 -31 13.5 -62t35 -68t74.5 -60t119 -23q100 0 168 55.5t68 142.5q0 81 -62 137t-178 56q-31 0 -68 -4v69q25 -2 54 -2q104 0 167.5 49t63.5 132q0 85 -60.5 135.5t-158.5 50.5q-90 0 -150 -48t-69 -147h-72q10 123 93.5 189.5t205.5 66.5q131 0 207 -72 t76 -169q0 -47 -15 -85.5t-40.5 -64t-49 -40.5t-49.5 -25q174 -52 174 -226q0 -110 -87.5 -185t-227.5 -75q-130 0 -212 72.5t-91 200.5zM510 0l790 1446h76l-790 -1446h-76zM1020 231v58l373 610h98v-608h205v-60h-205v-176h108v-55h-288v55h110v176h-401zM1090 291h331 v536z" />
<glyph unicode="&#xbf;" horiz-adv-x="937" d="M63 317q0 43 12 84.5t29 75.5t52.5 81t65.5 81t85 94q89 98 111 147t22 132v180h82v-154q-1 -49 -2 -75.5t-9.5 -59.5t-16 -50t-33.5 -52.5t-49 -62t-74 -83.5q-111 -125 -153 -195t-42 -149q0 -116 89.5 -187t216.5 -71q170 0 266 121q34 43 52.5 101.5t21.5 91.5t4 88 h86q0 -44 -2.5 -75.5t-13.5 -87.5t-40 -108.5t-75 -95.5q-58 -53 -138.5 -82t-169.5 -29q-166 0 -271.5 99t-105.5 241zM418 1321v125h123v-125h-123z" />
<glyph unicode="&#xc0;" horiz-adv-x="1193" d="M-4 0v63h123l403 1319h-137v64h418v-64h-137l401 -1319h125v-63h-350v63h137l-115 394h-551l-118 -394h149v-63h-348zM319 1833h183l229 -246h-72zM332 522h512l-252 860z" />
<glyph unicode="&#xc1;" horiz-adv-x="1193" d="M-4 0v63h123l403 1319h-137v64h418v-64h-137l401 -1319h125v-63h-350v63h137l-115 394h-551l-118 -394h149v-63h-348zM332 522h512l-252 860zM459 1587l229 246h182l-340 -246h-71z" />
<glyph unicode="&#xc2;" horiz-adv-x="1193" d="M-4 0v63h123l403 1319h-137v64h418v-64h-137l401 -1319h125v-63h-350v63h137l-115 394h-551l-118 -394h149v-63h-348zM332 522h512l-252 860zM367 1589l165 217h132l157 -217h-51l-172 135l-176 -135h-55z" />
<glyph unicode="&#xc3;" horiz-adv-x="1193" d="M-4 0v63h123l403 1319h-137v64h418v-64h-137l401 -1319h125v-63h-350v63h137l-115 394h-551l-118 -394h149v-63h-348zM281 1628q5 207 153 207q47 0 82.5 -16.5t79.5 -49.5l70 -49q61 -45 98 -45q22 0 37 8t23 17.5t13 32t7 37.5t4 47h65q0 -209 -145 -209q-73 0 -160 63 l-65 47q-68 49 -109 49q-78 0 -88 -139h-65zM332 522h512l-252 860z" />
<glyph unicode="&#xc4;" horiz-adv-x="1193" d="M-4 0v63h123l403 1319h-137v64h418v-64h-137l401 -1319h125v-63h-350v63h137l-115 394h-551l-118 -394h149v-63h-348zM332 522h512l-252 860zM360 1616v135h138v-135h-138zM686 1616v135h137v-135h-137z" />
<glyph unicode="&#xc5;" horiz-adv-x="1193" d="M-4 0v63h123l403 1319h-137v64h418v-64h-137l401 -1319h125v-63h-350v63h137l-115 394h-551l-118 -394h149v-63h-348zM332 522h512l-252 860zM438 1700q0 69 49.5 116.5t118.5 47.5q68 0 117 -48.5t49 -115.5q0 -69 -49 -117.5t-117 -48.5q-69 0 -118.5 48.5t-49.5 117.5 zM502 1700q0 -44 29.5 -74.5t74.5 -30.5q42 0 72.5 31.5t30.5 73.5q0 43 -30.5 74.5t-72.5 31.5q-44 0 -74 -31.5t-30 -74.5z" />
<glyph unicode="&#xc6;" horiz-adv-x="1748" d="M-2 0v63h127l612 1319h-162v64h1029v-426h-72v362h-641l94 -585h481v-68h-471l105 -666h432v394h72v-457h-748v63h166l-61 394h-580l-182 -394h143v-63h-344zM412 518h536l-135 864z" />
<glyph unicode="&#xc7;" horiz-adv-x="1150" d="M88 694q0 75 5.5 145t20 150t37.5 148t61.5 131.5t88 108t120.5 71.5t157 27q133 0 229 -69t137 -194v234h68v-440h-70q-11 80 -36.5 148.5t-68.5 126.5t-109.5 91t-149.5 33q-71 0 -130.5 -25t-100.5 -66t-73 -99t-51 -118.5t-30.5 -131t-16 -130.5t-4.5 -122 q0 -67 4 -127t15.5 -129.5t30.5 -127t51.5 -112.5t75 -92.5t104.5 -60.5t137 -23q91 0 160.5 33t111.5 92t64.5 132t27.5 161h82q-12 -110 -39.5 -193.5t-77.5 -150.5t-130 -103.5t-189 -40.5l-37 -139q38 23 76 23q65 0 105 -45t40 -111q0 -73 -48.5 -118.5t-121.5 -45.5 q-70 0 -108.5 37.5t-46.5 103.5h76q14 -77 79 -77q44 0 69.5 27.5t25.5 70.5q0 40 -23.5 67t-64.5 27q-45 0 -70 -37l-74 17l58 202q-87 7 -157.5 41.5t-118 90.5t-82 124t-53.5 149t-27.5 157.5t-8.5 158.5z" />
<glyph unicode="&#xc8;" horiz-adv-x="1110" d="M49 0v63h168v1319h-168v64h914v-426h-72v362h-596v-585h543v-68h-543v-666h596v396h72v-459h-914zM279 1833h182l229 -246h-72z" />
<glyph unicode="&#xc9;" horiz-adv-x="1110" d="M49 0v63h168v1319h-168v64h914v-426h-72v362h-596v-585h543v-68h-543v-666h596v396h72v-459h-914zM416 1587l229 246h182l-340 -246h-71z" />
<glyph unicode="&#xca;" horiz-adv-x="1110" d="M49 0v63h168v1319h-168v64h914v-426h-72v362h-596v-585h543v-68h-543v-666h596v396h72v-459h-914zM324 1589l165 217h132l157 -217h-51l-172 135l-176 -135h-55z" />
<glyph unicode="&#xcb;" horiz-adv-x="1110" d="M49 0v63h168v1319h-168v64h914v-426h-72v362h-596v-585h543v-68h-543v-666h596v396h72v-459h-914zM322 1616v135h137v-135h-137zM647 1616v135h137v-135h-137z" />
<glyph unicode="&#xcc;" horiz-adv-x="512" d="M-20 1833h182l229 -246h-72zM53 0v63h164v1319h-164v64h410v-64h-166v-1319h166v-63h-410z" />
<glyph unicode="&#xcd;" horiz-adv-x="512" d="M53 0v63h164v1319h-164v64h410v-64h-166v-1319h166v-63h-410zM119 1587l229 246h182l-340 -246h-71z" />
<glyph unicode="&#xce;" horiz-adv-x="512" d="M25 1589l165 217h132l157 -217h-51l-172 135l-176 -135h-55zM53 0v63h164v1319h-164v64h410v-64h-166v-1319h166v-63h-410z" />
<glyph unicode="&#xcf;" horiz-adv-x="512" d="M25 1616v135h137v-135h-137zM53 0v63h164v1319h-164v64h410v-64h-166v-1319h166v-63h-410zM350 1616v135h137v-135h-137z" />
<glyph unicode="&#xd0;" horiz-adv-x="1193" d="M47 0v63h170v652h-168v67h168v600h-170v64h490q168 0 249 -35q75 -32 132 -92t90.5 -129t54.5 -155.5t28 -162.5t7 -159q0 -101 -12.5 -191.5t-43 -185.5t-91.5 -170t-148 -117q-102 -49 -311 -49h-445zM297 63h192q64 0 102.5 2t94 13.5t96.5 34.5q69 38 117.5 108 t72.5 157t34 167t10 164q0 87 -8.5 168t-31 173.5t-70 167t-115.5 113.5q-56 32 -117 41.5t-146 9.5h-231v-600h338v-67h-338v-652z" />
<glyph unicode="&#xd1;" horiz-adv-x="1280" d="M55 0v63h162v1319h-162v64h277l669 -1383v1319h-163v64h399v-64h-164v-1382h-121l-665 1368v-1305h166v-63h-398zM322 1628q5 207 153 207q47 0 82.5 -16.5t79.5 -49.5l70 -49q61 -45 98 -45q22 0 37 8t23 17.5t13 32t7 37.5t4 47h65q0 -209 -145 -209q-73 0 -160 63 l-65 47q-68 49 -109 49q-78 0 -88 -139h-65z" />
<glyph unicode="&#xd2;" horiz-adv-x="1236" d="M86 729q0 77 7 150t24.5 149t44.5 141t69 123t96 99t127.5 64.5t161.5 23.5q122 0 217.5 -46t154.5 -119.5t97 -175t53 -203t15 -212.5q0 -78 -7.5 -151.5t-25.5 -149t-45.5 -140.5t-70 -122t-96.5 -97.5t-128 -64t-162 -23.5q-101 0 -184 31.5t-140 88t-98.5 128 t-65 158.5t-34 172t-10.5 176zM168 731q0 -94 11.5 -183t43 -183.5t80 -164t129.5 -114.5t184 -45q108 0 190.5 45t131 114.5t79.5 165.5t41.5 185.5t10.5 187.5q0 76 -8.5 149t-28 151t-54.5 143t-83.5 117.5t-120.5 82t-160 29.5q-106 0 -187.5 -46t-129 -116t-78 -164.5 t-41 -179.5t-10.5 -174zM342 1833h182l230 -246h-72z" />
<glyph unicode="&#xd3;" horiz-adv-x="1236" d="M86 729q0 77 7 150t24.5 149t44.5 141t69 123t96 99t127.5 64.5t161.5 23.5q122 0 217.5 -46t154.5 -119.5t97 -175t53 -203t15 -212.5q0 -78 -7.5 -151.5t-25.5 -149t-45.5 -140.5t-70 -122t-96.5 -97.5t-128 -64t-162 -23.5q-101 0 -184 31.5t-140 88t-98.5 128 t-65 158.5t-34 172t-10.5 176zM168 731q0 -94 11.5 -183t43 -183.5t80 -164t129.5 -114.5t184 -45q108 0 190.5 45t131 114.5t79.5 165.5t41.5 185.5t10.5 187.5q0 76 -8.5 149t-28 151t-54.5 143t-83.5 117.5t-120.5 82t-160 29.5q-106 0 -187.5 -46t-129 -116t-78 -164.5 t-41 -179.5t-10.5 -174zM481 1587l230 246h182l-340 -246h-72z" />
<glyph unicode="&#xd4;" horiz-adv-x="1236" d="M86 729q0 77 7 150t24.5 149t44.5 141t69 123t96 99t127.5 64.5t161.5 23.5q122 0 217.5 -46t154.5 -119.5t97 -175t53 -203t15 -212.5q0 -78 -7.5 -151.5t-25.5 -149t-45.5 -140.5t-70 -122t-96.5 -97.5t-128 -64t-162 -23.5q-101 0 -184 31.5t-140 88t-98.5 128 t-65 158.5t-34 172t-10.5 176zM168 731q0 -94 11.5 -183t43 -183.5t80 -164t129.5 -114.5t184 -45q108 0 190.5 45t131 114.5t79.5 165.5t41.5 185.5t10.5 187.5q0 76 -8.5 149t-28 151t-54.5 143t-83.5 117.5t-120.5 82t-160 29.5q-106 0 -187.5 -46t-129 -116t-78 -164.5 t-41 -179.5t-10.5 -174zM387 1589l166 217h131l158 -217h-51l-173 135l-176 -135h-55z" />
<glyph unicode="&#xd5;" horiz-adv-x="1236" d="M86 729q0 77 7 150t24.5 149t44.5 141t69 123t96 99t127.5 64.5t161.5 23.5q122 0 217.5 -46t154.5 -119.5t97 -175t53 -203t15 -212.5q0 -78 -7.5 -151.5t-25.5 -149t-45.5 -140.5t-70 -122t-96.5 -97.5t-128 -64t-162 -23.5q-101 0 -184 31.5t-140 88t-98.5 128 t-65 158.5t-34 172t-10.5 176zM168 731q0 -94 11.5 -183t43 -183.5t80 -164t129.5 -114.5t184 -45q108 0 190.5 45t131 114.5t79.5 165.5t41.5 185.5t10.5 187.5q0 76 -8.5 149t-28 151t-54.5 143t-83.5 117.5t-120.5 82t-160 29.5q-106 0 -187.5 -46t-129 -116t-78 -164.5 t-41 -179.5t-10.5 -174zM301 1628q1 37 7.5 69.5t22 65.5t47.5 52.5t77 19.5q33 0 63.5 -10.5t49 -22t48.5 -33.5l70 -49q61 -45 98 -45q22 0 37 8t23 17.5t13 32t7 37.5t4 47h66q0 -35 -5 -65t-18.5 -66t-45 -57t-77.5 -21q-72 0 -159 63l-66 47q-41 30 -63 39.5t-45 9.5 q-78 0 -88 -139h-66z" />
<glyph unicode="&#xd6;" horiz-adv-x="1236" d="M86 729q0 77 7 150t24.5 149t44.5 141t69 123t96 99t127.5 64.5t161.5 23.5q122 0 217.5 -46t154.5 -119.5t97 -175t53 -203t15 -212.5q0 -78 -7.5 -151.5t-25.5 -149t-45.5 -140.5t-70 -122t-96.5 -97.5t-128 -64t-162 -23.5q-101 0 -184 31.5t-140 88t-98.5 128 t-65 158.5t-34 172t-10.5 176zM168 731q0 -94 11.5 -183t43 -183.5t80 -164t129.5 -114.5t184 -45q108 0 190.5 45t131 114.5t79.5 165.5t41.5 185.5t10.5 187.5q0 76 -8.5 149t-28 151t-54.5 143t-83.5 117.5t-120.5 82t-160 29.5q-106 0 -187.5 -46t-129 -116t-78 -164.5 t-41 -179.5t-10.5 -174zM391 1616v135h137v-135h-137zM717 1616v135h137v-135h-137z" />
<glyph unicode="&#xd7;" horiz-adv-x="1482" d="M326 240l360 358l-360 363l55 55l360 -363l361 361l53 -51l-360 -363l360 -360l-55 -56l-361 363l-360 -361z" />
<glyph unicode="&#xd8;" horiz-adv-x="1236" d="M72 -188l174 313q-85 99 -123.5 252t-38.5 311q0 112 15 216.5t54 210.5t98.5 184t156 127t219.5 49q94 0 169 -25t148 -80l129 232h82l-160 -285q156 -199 156 -553q0 -191 -54.5 -384t-170.5 -294q-130 -113 -322 -113q-89 0 -160.5 23.5t-146.5 75.5l-145 -260h-80z M166 682q0 -323 121 -485l618 1106q-61 56 -123 81t-145 25q-82 0 -150 -25.5t-115.5 -68t-84.5 -102t-59.5 -123.5t-36.5 -138t-19.5 -138.5t-5.5 -131.5zM336 139q103 -100 264 -100q81 0 149 25.5t115.5 68.5t84 104t59 126t36.5 141t19.5 143.5t5.5 138.5 q0 284 -115 457z" />
<glyph unicode="&#xd9;" horiz-adv-x="1193" d="M27 1382v64h417v-64h-178v-929q0 -52 1 -80.5t7.5 -70.5t20.5 -75q38 -93 120.5 -140.5t180.5 -47.5q84 0 153 32.5t111 90.5q42 57 54 136.5t12 225.5v858h-168v64h409v-64h-166v-813q0 -99 -1.5 -148.5t-8.5 -113.5t-23 -107t-44 -79q-55 -72 -143.5 -110t-186.5 -38 q-154 0 -272 95q-46 37 -74.5 79t-40.5 94t-15.5 94.5t-3.5 110.5v936h-161zM322 1833h182l229 -246h-71z" />
<glyph unicode="&#xda;" horiz-adv-x="1193" d="M27 1382v64h417v-64h-178v-929q0 -52 1 -80.5t7.5 -70.5t20.5 -75q38 -93 120.5 -140.5t180.5 -47.5q84 0 153 32.5t111 90.5q42 57 54 136.5t12 225.5v858h-168v64h409v-64h-166v-813q0 -99 -1.5 -148.5t-8.5 -113.5t-23 -107t-44 -79q-55 -72 -143.5 -110t-186.5 -38 q-154 0 -272 95q-46 37 -74.5 79t-40.5 94t-15.5 94.5t-3.5 110.5v936h-161zM461 1587l229 246h182l-340 -246h-71z" />
<glyph unicode="&#xdb;" horiz-adv-x="1193" d="M27 1382v64h417v-64h-178v-929q0 -52 1 -80.5t7.5 -70.5t20.5 -75q38 -93 120.5 -140.5t180.5 -47.5q84 0 153 32.5t111 90.5q42 57 54 136.5t12 225.5v858h-168v64h409v-64h-166v-813q0 -99 -1.5 -148.5t-8.5 -113.5t-23 -107t-44 -79q-55 -72 -143.5 -110t-186.5 -38 q-154 0 -272 95q-46 37 -74.5 79t-40.5 94t-15.5 94.5t-3.5 110.5v936h-161zM367 1589l165 217h132l157 -217h-51l-172 135l-176 -135h-55z" />
<glyph unicode="&#xdc;" horiz-adv-x="1193" d="M27 1382v64h417v-64h-178v-929q0 -52 1 -80.5t7.5 -70.5t20.5 -75q38 -93 120.5 -140.5t180.5 -47.5q84 0 153 32.5t111 90.5q42 57 54 136.5t12 225.5v858h-168v64h409v-64h-166v-813q0 -99 -1.5 -148.5t-8.5 -113.5t-23 -107t-44 -79q-55 -72 -143.5 -110t-186.5 -38 q-154 0 -272 95q-46 37 -74.5 79t-40.5 94t-15.5 94.5t-3.5 110.5v936h-161zM362 1616v135h138v-135h-138zM688 1616v135h137v-135h-137z" />
<glyph unicode="&#xdd;" horiz-adv-x="1110" d="M4 1382v64h379v-64h-152l326 -772l328 772h-162v64h381v-64h-141l-371 -852v-467h162v-63h-410v63h168v467l-375 852h-133zM416 1587l229 246h182l-340 -246h-71z" />
<glyph unicode="&#xde;" d="M47 0v63h168v1319h-168v64h408v-64h-158v-200h321q160 0 257.5 -110t97.5 -290q0 -197 -96 -313.5t-299 -116.5h-283v-289h172v-63h-420zM295 418h237q112 0 183.5 27.5t122.5 111.5q51 82 51 215q0 168 -80 257t-242 89h-272v-700z" />
<glyph unicode="&#xdf;" horiz-adv-x="1067" d="M37 0v63h166v945q0 126 24.5 216t98.5 158q95 86 231 86q148 0 238 -106t90 -252q0 -113 -47 -196t-146 -119q87 -27 129 -56q77 -52 112.5 -143.5t35.5 -196.5q0 -179 -93.5 -293t-267.5 -114q-58 0 -102 8v74q85 -11 94 -11q93 0 159 51.5t95 128t29 167.5 q0 145 -76.5 241.5t-218.5 96.5h-35v79q76 4 115 25q65 36 99 105.5t34 154.5q0 117 -68 201t-184 84q-66 0 -115.5 -25t-77.5 -62t-45 -90t-22.5 -99.5t-5.5 -98.5v-1022h-246z" />
<glyph unicode="&#xe0;" d="M94 287q0 157 124 254.5t347 97.5q70 0 176 -12v129q0 124 -64.5 196t-189.5 72q-109 0 -178.5 -59t-81.5 -166h-90q47 291 346 291q175 0 255.5 -93t80.5 -256v-678h162v-63h-238v164q-44 -90 -126.5 -139.5t-186.5 -49.5q-80 0 -145.5 27t-106 72t-62.5 100t-22 113z M174 289q0 -113 76 -180.5t190 -67.5q71 0 125.5 24t87.5 62.5t54 93.5t28.5 109.5t7.5 118.5v112q-104 17 -180 17q-185 0 -287 -79t-102 -210zM326 1495h147l86 -287h-59z" />
<glyph unicode="&#xe1;" d="M94 287q0 157 124 254.5t347 97.5q70 0 176 -12v129q0 124 -64.5 196t-189.5 72q-109 0 -178.5 -59t-81.5 -166h-90q47 291 346 291q175 0 255.5 -93t80.5 -256v-678h162v-63h-238v164q-44 -90 -126.5 -139.5t-186.5 -49.5q-80 0 -145.5 27t-106 72t-62.5 100t-22 113z M174 289q0 -113 76 -180.5t190 -67.5q71 0 125.5 24t87.5 62.5t54 93.5t28.5 109.5t7.5 118.5v112q-104 17 -180 17q-185 0 -287 -79t-102 -210zM465 1208l86 287h145l-174 -287h-57z" />
<glyph unicode="&#xe2;" d="M94 287q0 157 124 254.5t347 97.5q70 0 176 -12v129q0 124 -64.5 196t-189.5 72q-109 0 -178.5 -59t-81.5 -166h-90q47 291 346 291q175 0 255.5 -93t80.5 -256v-678h162v-63h-238v164q-44 -90 -126.5 -139.5t-186.5 -49.5q-80 0 -145.5 27t-106 72t-62.5 100t-22 113z M174 289q0 -113 76 -180.5t190 -67.5q71 0 125.5 24t87.5 62.5t54 93.5t28.5 109.5t7.5 118.5v112q-104 17 -180 17q-185 0 -287 -79t-102 -210zM324 1210l133 279h112l127 -279h-51l-131 197l-137 -197h-53z" />
<glyph unicode="&#xe3;" d="M94 287q0 157 124 254.5t347 97.5q70 0 176 -12v129q0 124 -64.5 196t-189.5 72q-109 0 -178.5 -59t-81.5 -166h-90q47 291 346 291q175 0 255.5 -93t80.5 -256v-678h162v-63h-238v164q-44 -90 -126.5 -139.5t-186.5 -49.5q-80 0 -145.5 27t-106 72t-62.5 100t-22 113z M174 289q0 -113 76 -180.5t190 -67.5q71 0 125.5 24t87.5 62.5t54 93.5t28.5 109.5t7.5 118.5v112q-104 17 -180 17q-185 0 -287 -79t-102 -210zM229 1247q0 36 7 72t22 72.5t45.5 59t71.5 22.5q61 0 141 -72l62 -55q52 -46 86 -46q21 0 35.5 11.5t22 35.5t10.5 50t5 65h64 q0 -29 -2.5 -55.5t-11 -60t-23.5 -57t-42 -40t-63 -16.5q-64 0 -133 63l-59 54q-58 53 -98 53q-66 0 -76 -156h-64z" />
<glyph unicode="&#xe4;" d="M94 287q0 157 124 254.5t347 97.5q70 0 176 -12v129q0 124 -64.5 196t-189.5 72q-109 0 -178.5 -59t-81.5 -166h-90q47 291 346 291q175 0 255.5 -93t80.5 -256v-678h162v-63h-238v164q-44 -90 -126.5 -139.5t-186.5 -49.5q-80 0 -145.5 27t-106 72t-62.5 100t-22 113z M174 289q0 -113 76 -180.5t190 -67.5q71 0 125.5 24t87.5 62.5t54 93.5t28.5 109.5t7.5 118.5v112q-104 17 -180 17q-185 0 -287 -79t-102 -210zM307 1235v135h131v-135h-131zM582 1235v135h129v-135h-129z" />
<glyph unicode="&#xe5;" d="M94 287q0 157 124 254.5t347 97.5q70 0 176 -12v129q0 124 -64.5 196t-189.5 72q-109 0 -178.5 -59t-81.5 -166h-90q47 291 346 291q175 0 255.5 -93t80.5 -256v-678h162v-63h-238v164q-44 -90 -126.5 -139.5t-186.5 -49.5q-80 0 -145.5 27t-106 72t-62.5 100t-22 113z M174 289q0 -113 76 -180.5t190 -67.5q71 0 125.5 24t87.5 62.5t54 93.5t28.5 109.5t7.5 118.5v112q-104 17 -180 17q-185 0 -287 -79t-102 -210zM309 1368q0 83 58.5 139t140.5 56t140.5 -57t58.5 -138q0 -83 -58 -140t-141 -57t-141 57t-58 140zM373 1368q0 -56 39.5 -96.5 t95.5 -40.5t95.5 40.5t39.5 96.5t-39.5 95.5t-95.5 39.5t-95.5 -39.5t-39.5 -95.5z" />
<glyph unicode="&#xe6;" horiz-adv-x="1662" d="M98 289q0 106 70 192q37 46 92 76t123.5 43.5t126 18t133.5 4.5h111v36q0 35 -1.5 64.5t-8 69t-17.5 71t-30.5 64t-46.5 54t-67.5 35t-90.5 13.5q-212 0 -265 -225h-82q34 142 113.5 213.5t222.5 71.5q278 0 326 -263q41 126 131 196.5t221 70.5q111 0 193 -42 t128.5 -116t68.5 -162.5t22 -193.5v-25h-740v-51q0 -64 9 -124.5t33 -123.5t60 -109.5t96 -76t136 -29.5q137 0 217.5 89.5t98.5 246.5h80q-21 -188 -119 -294t-279 -106q-153 0 -250 88t-127 240q0 -148 -102 -236.5t-252 -88.5q-141 0 -237.5 84t-96.5 225zM178 289 q0 -111 71.5 -178.5t182.5 -67.5q322 0 322 430v84h-158q-418 0 -418 -268zM836 623h653q0 77 -21 148.5t-60.5 130t-103.5 93.5t-143 35q-81 0 -144.5 -36.5t-101.5 -97t-57.5 -130t-21.5 -143.5z" />
<glyph unicode="&#xe7;" horiz-adv-x="894" d="M88 520q0 79 10.5 153.5t38 152t69.5 134.5t110 93.5t155 36.5q94 0 170.5 -51t106.5 -138v164h61v-352h-59q-7 59 -27 113t-52.5 100.5t-84 74t-113.5 27.5q-71 0 -126.5 -35.5t-88 -89t-53 -124.5t-28 -134.5t-7.5 -126.5t8.5 -125.5t31 -128t56.5 -115t89.5 -81 t125.5 -31.5q65 0 115.5 26t81.5 71t48.5 98.5t23.5 115.5h77q-7 -78 -28.5 -142t-60 -117.5t-101.5 -83.5t-145 -30h-29l-39 -137q40 21 74 21q63 0 102 -43.5t39 -108.5q0 -70 -47 -114t-117 -44q-68 0 -105.5 37t-45.5 101h73q14 -76 78 -76q43 0 66.5 26.5t23.5 67.5 q0 40 -22 66t-62 26q-45 0 -67 -35l-72 15l57 207q-85 18 -147.5 71.5t-97 130t-50.5 159.5t-16 175z" />
<glyph unicode="&#xe8;" d="M90 539q0 87 14 165t46 150t79.5 124t119.5 83t161 31q94 0 169.5 -34.5t122 -88.5t77.5 -127t43 -144t12 -145h-756v-18q0 -69 10 -134.5t35 -131t63 -114t98 -78.5t136 -30q136 0 217 94.5t94 235.5h84q-20 -193 -120.5 -296.5t-270.5 -103.5q-91 0 -165 32.5 t-123.5 87t-83 127.5t-48 152t-14.5 163zM178 623h670q-7 78 -29.5 146.5t-62 127t-103.5 93t-145 34.5q-62 0 -115.5 -23t-91.5 -62.5t-66 -91t-42 -108.5t-15 -116zM326 1495h147l86 -287h-59z" />
<glyph unicode="&#xe9;" d="M90 539q0 87 14 165t46 150t79.5 124t119.5 83t161 31q94 0 169.5 -34.5t122 -88.5t77.5 -127t43 -144t12 -145h-756v-18q0 -69 10 -134.5t35 -131t63 -114t98 -78.5t136 -30q136 0 217 94.5t94 235.5h84q-20 -193 -120.5 -296.5t-270.5 -103.5q-91 0 -165 32.5 t-123.5 87t-83 127.5t-48 152t-14.5 163zM178 623h670q-7 78 -29.5 146.5t-62 127t-103.5 93t-145 34.5q-62 0 -115.5 -23t-91.5 -62.5t-66 -91t-42 -108.5t-15 -116zM465 1208l86 287h145l-174 -287h-57z" />
<glyph unicode="&#xea;" d="M90 539q0 87 14 165t46 150t79.5 124t119.5 83t161 31q94 0 169.5 -34.5t122 -88.5t77.5 -127t43 -144t12 -145h-756v-18q0 -69 10 -134.5t35 -131t63 -114t98 -78.5t136 -30q136 0 217 94.5t94 235.5h84q-20 -193 -120.5 -296.5t-270.5 -103.5q-91 0 -165 32.5 t-123.5 87t-83 127.5t-48 152t-14.5 163zM178 623h670q-7 78 -29.5 146.5t-62 127t-103.5 93t-145 34.5q-62 0 -115.5 -23t-91.5 -62.5t-66 -91t-42 -108.5t-15 -116zM324 1210l133 279h112l127 -279h-51l-131 197l-137 -197h-53z" />
<glyph unicode="&#xeb;" d="M90 539q0 87 14 165t46 150t79.5 124t119.5 83t161 31q94 0 169.5 -34.5t122 -88.5t77.5 -127t43 -144t12 -145h-756v-18q0 -69 10 -134.5t35 -131t63 -114t98 -78.5t136 -30q136 0 217 94.5t94 235.5h84q-20 -193 -120.5 -296.5t-270.5 -103.5q-91 0 -165 32.5 t-123.5 87t-83 127.5t-48 152t-14.5 163zM178 623h670q-7 78 -29.5 146.5t-62 127t-103.5 93t-145 34.5q-62 0 -115.5 -23t-91.5 -62.5t-66 -91t-42 -108.5t-15 -116zM309 1235v135h131v-135h-131zM584 1235v135h129v-135h-129z" />
<glyph unicode="&#xec;" horiz-adv-x="512" d="M55 0v63h168v938h-168v64h246v-1002h166v-63h-412zM70 1495h147l86 -287h-59z" />
<glyph unicode="&#xed;" horiz-adv-x="512" d="M55 0v63h168v938h-168v64h246v-1002h166v-63h-412zM209 1208l86 287h145l-174 -287h-57z" />
<glyph unicode="&#xee;" horiz-adv-x="512" d="M55 0v63h168v938h-168v64h246v-1002h166v-63h-412zM55 1210l133 279h113l127 -279h-51l-131 197l-137 -197h-54z" />
<glyph unicode="&#xef;" horiz-adv-x="512" d="M35 1235v135h131v-135h-131zM55 0v63h168v938h-168v64h246v-1002h166v-63h-412zM309 1235v135h129v-135h-129z" />
<glyph unicode="&#xf0;" d="M92 528q0 103 25 199.5t74 180t133.5 134t193.5 50.5q105 0 203 -70q-74 140 -152 225l-254 -102l-24 59l235 94q-72 79 -123 119l66 37q66 -61 127 -127l184 72l23 -60l-162 -63q135 -166 214 -360.5t79 -393.5q0 -102 -24 -195.5t-72 -173.5t-131.5 -128t-192.5 -48 q-108 0 -192 49t-132.5 130t-73 175.5t-24.5 196.5zM186 532q0 -225 90.5 -359t237.5 -134q108 0 186 70.5t114 180.5t36 245q0 226 -90.5 358.5t-241.5 132.5q-105 0 -181.5 -68t-113.5 -178t-37 -248z" />
<glyph unicode="&#xf1;" horiz-adv-x="1150" d="M55 0v63h170v938h-170v64h242v-197q36 108 125.5 165t212.5 57q204 0 276 -156q33 -70 33 -242v-629h168v-63h-420v63h172v670q0 81 -12.5 137.5t-54.5 96.5q-62 59 -176 59q-49 0 -100.5 -16.5t-88.5 -46.5q-76 -62 -101.5 -153t-25.5 -228v-519h162v-63h-412zM293 1247 q0 36 6.5 72t21.5 72.5t45.5 59t71.5 22.5q62 0 142 -72l61 -55q52 -46 86 -46q28 0 44.5 23t22 54.5t7.5 84.5h63q0 -229 -141 -229q-64 0 -133 63l-60 54q-58 53 -98 53q-66 0 -76 -156h-63z" />
<glyph unicode="&#xf2;" d="M92 526q0 85 14 163.5t46.5 152.5t80.5 128t122 87t165 33q87 0 157.5 -32.5t117.5 -86.5t79 -126t46 -148t14 -156q0 -82 -14 -159.5t-46.5 -152t-80 -130t-120 -89t-161.5 -33.5t-161 32t-119.5 85t-79.5 125t-46 148.5t-14 158.5zM182 532q0 -225 90 -359t236 -134 q109 0 187 71.5t113.5 181t35.5 243.5q0 230 -90.5 360.5t-239.5 130.5q-106 0 -182.5 -68.5t-113 -178.5t-36.5 -247zM324 1495h147l86 -287h-59z" />
<glyph unicode="&#xf3;" d="M92 526q0 85 14 163.5t46.5 152.5t80.5 128t122 87t165 33q87 0 157.5 -32.5t117.5 -86.5t79 -126t46 -148t14 -156q0 -82 -14 -159.5t-46.5 -152t-80 -130t-120 -89t-161.5 -33.5t-161 32t-119.5 85t-79.5 125t-46 148.5t-14 158.5zM182 532q0 -225 90 -359t236 -134 q109 0 187 71.5t113.5 181t35.5 243.5q0 230 -90.5 360.5t-239.5 130.5q-106 0 -182.5 -68.5t-113 -178.5t-36.5 -247zM465 1208l86 287h145l-174 -287h-57z" />
<glyph unicode="&#xf4;" d="M92 526q0 85 14 163.5t46.5 152.5t80.5 128t122 87t165 33q87 0 157.5 -32.5t117.5 -86.5t79 -126t46 -148t14 -156q0 -82 -14 -159.5t-46.5 -152t-80 -130t-120 -89t-161.5 -33.5t-161 32t-119.5 85t-79.5 125t-46 148.5t-14 158.5zM182 532q0 -225 90 -359t236 -134 q109 0 187 71.5t113.5 181t35.5 243.5q0 230 -90.5 360.5t-239.5 130.5q-106 0 -182.5 -68.5t-113 -178.5t-36.5 -247zM324 1210l133 279h112l127 -279h-51l-131 197l-137 -197h-53z" />
<glyph unicode="&#xf5;" d="M92 526q0 85 14 163.5t46.5 152.5t80.5 128t122 87t165 33q87 0 157.5 -32.5t117.5 -86.5t79 -126t46 -148t14 -156q0 -82 -14 -159.5t-46.5 -152t-80 -130t-120 -89t-161.5 -33.5t-161 32t-119.5 85t-79.5 125t-46 148.5t-14 158.5zM182 532q0 -225 90 -359t236 -134 q109 0 187 71.5t113.5 181t35.5 243.5q0 230 -90.5 360.5t-239.5 130.5q-106 0 -182.5 -68.5t-113 -178.5t-36.5 -247zM229 1247q0 36 7 72t22 72.5t45.5 59t71.5 22.5q61 0 141 -72l62 -55q52 -46 86 -46q21 0 35.5 11.5t22 35.5t10.5 50t5 65h64q0 -29 -2.5 -55.5t-11 -60 t-23.5 -57t-42 -40t-63 -16.5q-64 0 -133 63l-59 54q-58 53 -98 53q-66 0 -76 -156h-64z" />
<glyph unicode="&#xf6;" d="M92 526q0 85 14 163.5t46.5 152.5t80.5 128t122 87t165 33q87 0 157.5 -32.5t117.5 -86.5t79 -126t46 -148t14 -156q0 -82 -14 -159.5t-46.5 -152t-80 -130t-120 -89t-161.5 -33.5t-161 32t-119.5 85t-79.5 125t-46 148.5t-14 158.5zM182 532q0 -225 90 -359t236 -134 q109 0 187 71.5t113.5 181t35.5 243.5q0 230 -90.5 360.5t-239.5 130.5q-106 0 -182.5 -68.5t-113 -178.5t-36.5 -247zM309 1235v135h131v-135h-131zM584 1235v135h129v-135h-129z" />
<glyph unicode="&#xf7;" horiz-adv-x="1392" d="M117 563v76h1159v-76h-1159zM641 231v117h111v-117h-111zM641 850v117h111v-117h-111z" />
<glyph unicode="&#xf8;" d="M61 -203l164 293q-137 154 -137 428q0 67 11 133.5t32.5 131.5t57 120.5t81.5 98t110 66.5t138 24q111 0 223 -70l136 242h73l-155 -289q75 -93 105 -193.5t30 -230.5q0 -79 -13 -155.5t-45 -154t-79.5 -135.5t-122.5 -94.5t-168 -36.5q-117 0 -226 68l-137 -246h-78z M176 506q0 -101 19.5 -180.5t68.5 -159.5l441 790q-79 70 -187 70q-76 0 -136.5 -34t-98 -87.5t-62.5 -124.5t-35 -138.5t-10 -135.5zM313 109q52 -38 91.5 -55t95.5 -17q74 0 134 33.5t98 86t63.5 121.5t36 136.5t10.5 134.5q0 108 -18 190t-68 162z" />
<glyph unicode="&#xf9;" horiz-adv-x="1110" d="M35 1001v64h244v-725q0 -87 14.5 -147t64.5 -101q58 -47 138 -47q92 0 166 61q56 46 87.5 117.5t39.5 135.5t8 149v493h-174v64h251v-1002h162v-63h-239v184q-57 -101 -127 -154t-176 -53q-82 0 -146 31q-47 24 -78 57t-46 74.5t-20 80.5t-5 91v690h-164zM369 1495h147 l86 -287h-59z" />
<glyph unicode="&#xfa;" horiz-adv-x="1110" d="M35 1001v64h244v-725q0 -87 14.5 -147t64.5 -101q58 -47 138 -47q92 0 166 61q56 46 87.5 117.5t39.5 135.5t8 149v493h-174v64h251v-1002h162v-63h-239v184q-57 -101 -127 -154t-176 -53q-82 0 -146 31q-47 24 -78 57t-46 74.5t-20 80.5t-5 91v690h-164zM506 1208 l86 287h145l-174 -287h-57z" />
<glyph unicode="&#xfb;" horiz-adv-x="1110" d="M35 1001v64h244v-725q0 -87 14.5 -147t64.5 -101q58 -47 138 -47q92 0 166 61q56 46 87.5 117.5t39.5 135.5t8 149v493h-174v64h251v-1002h162v-63h-239v184q-57 -101 -127 -154t-176 -53q-82 0 -146 31q-47 24 -78 57t-46 74.5t-20 80.5t-5 91v690h-164zM367 1210 l133 279h112l127 -279h-51l-131 197l-137 -197h-53z" />
<glyph unicode="&#xfc;" horiz-adv-x="1110" d="M35 1001v64h244v-725q0 -87 14.5 -147t64.5 -101q58 -47 138 -47q92 0 166 61q56 46 87.5 117.5t39.5 135.5t8 149v493h-174v64h251v-1002h162v-63h-239v184q-57 -101 -127 -154t-176 -53q-82 0 -146 31q-47 24 -78 57t-46 74.5t-20 80.5t-5 91v690h-164zM322 1235v135 h131v-135h-131zM596 1235v135h129v-135h-129z" />
<glyph unicode="&#xfd;" horiz-adv-x="1067" d="M10 1001v64h375v-64h-162l322 -911l319 911h-157v64h352v-64h-119l-412 -1146q-16 -46 -24.5 -69t-26 -62t-32 -59t-38.5 -46.5t-50 -39.5t-62 -22.5t-78 -9.5q-46 0 -102 17v71q49 -18 102 -18t92.5 19t67.5 58t44 74t36 91l47 133l-371 1009h-123zM485 1208l86 287h146 l-174 -287h-58z" />
<glyph unicode="&#xfe;" horiz-adv-x="1110" d="M45 -356h170v1738h-170v64h242v-588q60 115 134 174.5t191 59.5q89 0 160 -33.5t116 -88t75 -128.5t42.5 -150t12.5 -157t-13 -157.5t-43.5 -150t-76.5 -128.5t-116.5 -88.5t-158.5 -33.5q-221 0 -323 228v-561h180v-64h-422v64zM291 522q0 -244 88 -361.5t231 -117.5 q69 0 124.5 28t92.5 75t62 111.5t36 135.5t11 150q0 137 -32 242.5t-106.5 172t-183.5 66.5q-146 0 -231 -123q-53 -79 -72.5 -171t-19.5 -208z" />
<glyph unicode="&#xff;" horiz-adv-x="1067" d="M10 1001v64h375v-64h-162l322 -911l319 911h-157v64h352v-64h-119l-412 -1146q-16 -46 -24.5 -69t-26 -62t-32 -59t-38.5 -46.5t-50 -39.5t-62 -22.5t-78 -9.5q-46 0 -102 17v71q49 -18 102 -18t92.5 19t67.5 58t44 74t36 91l47 133l-371 1009h-123zM332 1235v135h131 v-135h-131zM606 1235v135h129v-135h-129z" />
<glyph unicode="&#x152;" horiz-adv-x="1705" d="M88 709q0 533 266 686q101 57 303 57q43 0 136 -3t120 -3h650v-424h-74v360h-574v-589h533v-68h-533v-662h574v394h74v-457h-676q-29 0 -123 -3t-139 -3q-174 0 -252 39q-68 34 -120 93.5t-82.5 126.5t-50 150t-26 155.5t-6.5 150.5zM170 729q0 -500 225 -627 q78 -43 254 -43q65 0 187 4v1319q-115 11 -191 11q-170 0 -264 -62q-211 -142 -211 -602z" />
<glyph unicode="&#x153;" horiz-adv-x="1792" d="M90 537q0 82 14 158.5t46 149.5t79 127t119.5 87t161.5 33q149 0 235 -78t146 -230q57 149 148 228.5t243 79.5q123 0 217 -62q57 -38 96.5 -92t60 -121t29.5 -126t13 -136h-760v-16q0 -70 11 -136.5t37.5 -132t65.5 -114.5t100.5 -79t137.5 -30q134 0 214.5 97t90.5 235 h82q-16 -184 -114 -293t-275 -109q-154 0 -256 87t-141 239q-52 -155 -143 -240.5t-244 -85.5q-89 0 -161 33t-118.5 87.5t-77.5 128.5t-44 151t-13 160zM176 539q0 -315 166 -445q71 -55 162 -55q74 0 133.5 32t96.5 83.5t62.5 118.5t35.5 133.5t10 132.5q0 67 -9.5 131.5 t-33.5 130.5t-60.5 115.5t-95.5 80.5t-133 31q-61 0 -112.5 -21.5t-87 -59t-62.5 -85.5t-42 -104t-22.5 -110t-7.5 -109zM940 623h672q-1 100 -39.5 190t-116.5 151.5t-180 61.5q-65 0 -119.5 -23.5t-92 -62t-64.5 -91.5t-41.5 -109t-18.5 -117z" />
<glyph unicode="&#x178;" horiz-adv-x="1110" d="M4 1382v64h379v-64h-152l326 -772l328 772h-162v64h381v-64h-141l-371 -852v-467h162v-63h-410v63h168v467l-375 852h-133zM324 1616v135h137v-135h-137zM649 1616v135h137v-135h-137z" />
<glyph unicode="&#x2c6;" horiz-adv-x="598" d="M113 1210l133 279h112l127 -279h-51l-131 197l-137 -197h-53z" />
<glyph unicode="&#x2dc;" horiz-adv-x="598" d="M14 1247q0 36 7 72t22 72.5t45.5 59t71.5 22.5q61 0 141 -72l61 -55q52 -46 87 -46q21 0 35.5 11.5t22 35.5t10.5 50t5 65h64q0 -29 -2.5 -55.5t-11 -60t-23.5 -57t-42 -40t-63 -16.5q-64 0 -133 63l-59 54q-58 53 -98 53q-66 0 -76 -156h-64z" />
<glyph unicode="&#x2000;" horiz-adv-x="932" />
<glyph unicode="&#x2001;" horiz-adv-x="1864" />
<glyph unicode="&#x2002;" horiz-adv-x="932" />
<glyph unicode="&#x2003;" horiz-adv-x="1864" />
<glyph unicode="&#x2004;" horiz-adv-x="621" />
<glyph unicode="&#x2005;" horiz-adv-x="466" />
<glyph unicode="&#x2006;" horiz-adv-x="310" />
<glyph unicode="&#x2007;" horiz-adv-x="310" />
<glyph unicode="&#x2008;" horiz-adv-x="233" />
<glyph unicode="&#x2009;" horiz-adv-x="372" />
<glyph unicode="&#x200a;" horiz-adv-x="103" />
<glyph unicode="&#x2010;" horiz-adv-x="894" d="M82 547v74h731v-74h-731z" />
<glyph unicode="&#x2011;" horiz-adv-x="894" d="M82 547v74h731v-74h-731z" />
<glyph unicode="&#x2012;" horiz-adv-x="894" d="M82 547v74h731v-74h-731z" />
<glyph unicode="&#x2013;" horiz-adv-x="1148" d="M82 547v74h985v-74h-985z" />
<glyph unicode="&#x2014;" horiz-adv-x="1511" d="M82 547v74h1348v-74h-1348z" />
<glyph unicode="&#x2018;" horiz-adv-x="468" d="M111 1063l196 383h66l-117 -383h-145z" />
<glyph unicode="&#x2019;" horiz-adv-x="468" d="M90 1063l119 383h143l-192 -383h-70z" />
<glyph unicode="&#x201a;" horiz-adv-x="468" d="M104 -233l121 385h142l-195 -385h-68z" />
<glyph unicode="&#x201c;" horiz-adv-x="716" d="M111 1063l196 383h66l-117 -383h-145zM358 1063l197 383h66l-117 -383h-146z" />
<glyph unicode="&#x201d;" horiz-adv-x="716" d="M90 1063l117 383h145l-196 -383h-66zM338 1063l117 383h145l-197 -383h-65z" />
<glyph unicode="&#x201e;" horiz-adv-x="716" d="M90 -231l117 383h145l-196 -383h-66zM338 -231l117 383h145l-197 -383h-65z" />
<glyph unicode="&#x2022;" horiz-adv-x="520" d="M109 432v324h301v-324h-301z" />
<glyph unicode="&#x2026;" horiz-adv-x="2048" d="M281 0v119h122v-119h-122zM961 0v119h122v-119h-122zM1645 0v119h122v-119h-122z" />
<glyph unicode="&#x202f;" horiz-adv-x="372" />
<glyph unicode="&#x2039;" horiz-adv-x="425" d="M86 586l166 340h78l-133 -353l133 -333h-78z" />
<glyph unicode="&#x203a;" horiz-adv-x="425" d="M94 246l133 352l-133 332h78l166 -348l-166 -336h-78z" />
<glyph unicode="&#x205f;" horiz-adv-x="466" />
<glyph unicode="&#x20ac;" horiz-adv-x="1167" d="M43 592v63h139q0 62 4 172h-143v64h147q30 293 153 438.5t329 145.5q129 0 208.5 -56.5t133.5 -185.5v213h65v-406h-69q-26 177 -115.5 271t-232.5 94q-163 0 -260 -123.5t-126 -390.5h594v-64h-598q-4 -66 -4 -172h602v-63h-600q11 -551 402 -551q139 0 223.5 77 t101.5 220h80q-20 -175 -128.5 -271t-286.5 -96q-217 0 -340.5 163t-135.5 458h-143z" />
<glyph unicode="&#x2122;" horiz-adv-x="1484" d="M41 1245v201h532v-201h-57v148h-174v-578h90v-49h-244v49h91v578h-183v-148h-55zM629 766v47h88v582h-88v51h196l199 -563l197 563h194v-51h-84v-582h84v-47h-225v47h80v590l-230 -637h-39l-225 631v-584h76v-47h-223z" />
<glyph unicode="&#xe000;" horiz-adv-x="1064" d="M0 0v1065h1065v-1065h-1065z" />
</font>
</defs>
</svg>
